<?xml version="1.0" standalone="no"?>
<!DOCTYPE svg PUBLIC "-//W3C//DTD SVG 20010904//EN"
 "http://www.w3.org/TR/2001/REC-SVG-20010904/DTD/svg10.dtd">
<svg version="1.0" xmlns="http://www.w3.org/2000/svg"
 width="260.000000pt" height="260.000000pt" viewBox="0 0 260.000000 260.000000"
 preserveAspectRatio="xMidYMid meet">
<metadata>
Created by potrace 1.14, written by Peter Selinger 2001-2017
</metadata>
<g transform="translate(0.000000,260.000000) scale(0.100000,-0.100000)"
fill="#000000" stroke="none">
<path d="M219 2320 c-6 -184 -5 -190 21 -190 403 -2 783 -9 810 -15 233 -46
412 -182 515 -390 96 -194 122 -413 76 -651 -56 -293 -255 -515 -531 -594 -60
-17 -110 -22 -250 -26 -96 -2 -185 -6 -197 -9 -55 -13 -83 -108 -47 -162 30
-47 68 -54 257 -49 95 3 188 8 207 11 338 60 582 240 716 530 39 84 79 226 92
330 10 73 8 335 -3 395 -46 254 -138 438 -294 589 -127 121 -272 195 -467 237
-66 14 -146 17 -491 18 l-413 2 -1 -26z"/>
<path d="M2245 2339 c-8 -12 7 -724 15 -732 7 -8 73 -11 151 -8 24 1 26 4 27
64 2 139 14 561 16 612 1 30 0 58 -3 62 -7 10 -201 12 -206 2z"/>
<path d="M231 1911 c-12 -8 -14 -134 -13 -808 0 -439 1 -814 1 -834 l1 -36 78
2 c42 2 80 3 84 4 4 1 7 357 7 793 0 864 1 842 -58 872 -33 18 -78 21 -100 7z"/>
</g>
</svg>
