<?xml version="1.0" standalone="no"?>
<!DOCTYPE svg PUBLIC "-//W3C//DTD SVG 1.1//EN" "http://www.w3.org/Graphics/SVG/1.1/DTD/svg11.dtd" >
<svg xmlns="http://www.w3.org/2000/svg" xmlns:xlink="http://www.w3.org/1999/xlink" version="1.1">
<metadata>
Created by FontForge 20190801 at Sun Mar 31 05:35:09 2019
 By root
Copyright (c) 2019 by Ufuk Aracioglu. All rights reserved. |DCNT
</metadata>
<defs>
<font id="AcherusGrotesque-Medium" horiz-adv-x="604" >
  <font-face 
    font-family="Acherus Grotesque Medium"
    font-weight="500"
    font-stretch="normal"
    units-per-em="1000"
    panose-1="0 0 0 0 0 0 0 0 0 0"
    ascent="800"
    descent="-200"
    x-height="509"
    cap-height="700"
    bbox="-41.1304 -350 1223 1195.62"
    underline-thickness="50"
    underline-position="-225"
    unicode-range="U+000D-FB03"
  />
<missing-glyph horiz-adv-x="253" 
 />
    <glyph glyph-name=".notdef" horiz-adv-x="253" 
 />
    <glyph glyph-name="uni0000" horiz-adv-x="0" 
 />
    <glyph glyph-name="uni0000" horiz-adv-x="0" 
 />
    <glyph glyph-name="uni000D" unicode="&#xd;" horiz-adv-x="253" 
 />
    <glyph glyph-name="space" unicode=" " horiz-adv-x="253" 
 />
    <glyph glyph-name="exclam" unicode="!" horiz-adv-x="340" 
d="M170 -11q-26 0 -44.5 18.5t-18.5 44.5q0 27 18.5 46t44.5 19q27 0 45.5 -19t18.5 -46q0 -26 -18.5 -44.5t-45.5 -18.5zM195 239h-49q-10 0 -14 3.5t-4 14.5l-11 426q0 17 18 17h71q18 0 18 -17l-11 -426q0 -11 -3.5 -14.5t-14.5 -3.5z" />
    <glyph glyph-name="quotedbl" unicode="&#x22;" horiz-adv-x="378" 
d="M101 443h-21q-10 0 -14 3.5t-4 14.5v222q0 17 18 17h48q20 0 16 -21l-27 -224q-3 -12 -16 -12zM279 443h-21q-10 0 -14 3.5t-4 14.5v222q0 17 18 17h48q20 0 16 -21l-27 -224q-3 -12 -16 -12z" />
    <glyph glyph-name="numbersign" unicode="#" horiz-adv-x="835" 
d="M166 18l43 168h-152q-10 0 -13.5 3.5t-3.5 13.5v33q0 10 3.5 13.5t13.5 3.5h169l51 197h-159q-17 0 -17 18v32q0 18 17 18h176l43 167q5 15 22 15h31q22 0 16 -17l-42 -165h195l43 167q4 15 22 15h31q22 0 16 -17l-42 -165h158q17 0 17 -18v-32q0 -11 -3.5 -14.5
t-13.5 -3.5h-175l-51 -197h164q18 0 18 -17v-33q0 -17 -18 -17h-181l-44 -171q-4 -15 -22 -15h-33q-20 0 -14 18l43 168h-196l-43 -171q-5 -15 -22 -15h-33q-20 0 -14 18zM347 450l-51 -197h195l51 197h-195z" />
    <glyph glyph-name="dollar" unicode="$" horiz-adv-x="615" 
d="M44 91l23 38q6 11 14 11q4 0 11 -4q82 -57 185 -64v243q-94 14 -153 47q-76 43 -76 137q0 48 23 94q25 48 80 80.5t126 36.5v58q0 10 3.5 14t14.5 4h18q18 0 18 -18v-58q102 -5 217 -75q13 -7 5 -24l-23 -38q-8 -12 -14 -12t-10 4q-93 62 -175 63v-236q97 -12 160 -48
q79 -42 79 -146q0 -84 -63 -145q-61 -59 -176 -64v-64q0 -17 -18 -17h-18q-18 0 -18 17v65q-127 7 -228 76q-14 8 -5 25zM331 307v-235q149 12 149 122q0 47 -35.5 72.5t-113.5 40.5zM277 400v227q-74 -6 -107 -44q-32 -38 -32 -81q0 -80 139 -102z" />
    <glyph glyph-name="percent" unicode="%" horiz-adv-x="863" 
d="M536 44q-46 46 -46 133q0 86 46 132q47 47 122 47t122 -47q46 -46 46 -132q0 -87 -46 -133t-122 -46t-122 46zM583 267q-27 -33 -27 -90t27 -90t75 -33t75 33t27 90t-27 90q-27 34 -75 34t-75 -34zM83 401q-46 46 -46 133q0 86 46 132q47 47 122 47t122 -47t47 -132
q0 -86 -47 -133q-46 -46 -122 -46t-122 46zM130 624q-27 -33 -27 -90t27 -90t75 -33t75 33q28 32 28 90t-28 90q-27 34 -75 34t-75 -34zM159 18l471 669q9 13 22 13h42q25 0 11 -17l-471 -669q-11 -14 -23 -14h-41q-23 0 -11 18z" />
    <glyph glyph-name="ampersand" unicode="&#x26;" horiz-adv-x="761" 
d="M243 375l-1 1q-30 28 -49 49q-21 25 -38 60.5t-17 66.5q-1 61 49 111t145 50t151 -50q55 -49 55 -111q0 -79 -61 -133q-46 -40 -100 -66l116 -112q42 46 163 130q8 5 11 5q6 0 12 -7l31 -37q12 -14 -4 -24q-1 -1 -10.5 -7.5t-18.5 -12.5l-34 -24q-51 -33 -94 -79
l173 -166q16 -19 -6 -19h-82q-13 0 -33 19l-112 109q-35 -40 -48 -53q-19 -19 -46 -42q-56 -46 -129 -46q-104 0 -163 56q-58 55 -58 145q0 81 66 126q57 38 132 61zM141 190q0 -59 36 -91t99 -32q15 0 41 7q38 19 54 34q25 25 29 30q7 9 13 15l12 16l12 15l-133 134
q-163 -46 -163 -128zM316 408l4 -4q47 16 88 54q40 37 40 81q0 43 -32.5 70.5t-83.5 27.5q-48 0 -76.5 -26.5t-28.5 -71.5q0 -54 89 -131z" />
    <glyph glyph-name="quotesingle" unicode="'" horiz-adv-x="196" 
d="M95 443h-21q-10 0 -14 3.5t-4 14.5v222q0 17 18 17h48q20 0 16 -21l-27 -224q-3 -12 -16 -12z" />
    <glyph glyph-name="parenleft" unicode="(" horiz-adv-x="393" 
d="M342 -84l-24 -41q-6 -11 -14 -11q-5 0 -12 4q-121 63 -188.5 171t-67.5 249t67.5 249t188.5 171q7 4 12 4q8 0 14 -11l24 -41q11 -18 -11 -30q-95 -44 -150 -135q-56 -92 -56 -207q0 -114 56 -206q55 -91 150 -136q22 -12 11 -30z" />
    <glyph glyph-name="parenright" unicode=")" horiz-adv-x="393" 
d="M95 -125l-23 41q-11 20 11 30q95 45 150 136q56 92 56 206q0 115 -56 207q-55 91 -150 135q-22 10 -11 30l23 41q6 11 14 11q5 0 12 -4q122 -63 189.5 -171t67.5 -249t-67.5 -249t-189.5 -171q-7 -4 -12 -4q-8 0 -14 11z" />
    <glyph glyph-name="asterisk" unicode="*" horiz-adv-x="437" 
d="M56 412l-13 25q-8 17 7 24l112 53l-110 50q-16 7 -8 23l13 25q6 12 14 12q3 0 10 -4l113 -63l-6 128q-1 10 3 13.5t15 3.5h28q19 0 17 -17l-6 -127l111 64q4 4 11 4t13 -11l13 -25q8 -17 -7 -24l-109 -52l112 -49q16 -7 7 -24l-13 -25q-6 -12 -13 -12q-3 0 -10 4l-115 64
l6 -133q1 -10 -3 -14t-15 -4h-27q-11 0 -15 4t-3 14l6 132l-115 -66q-14 -10 -23 7z" />
    <glyph glyph-name="plus" unicode="+" horiz-adv-x="496" 
d="M212 125v145h-144q-18 0 -18 18v37q0 11 4 14.5t14 3.5h144v143q0 18 17 18h39q17 0 17 -18v-143h144q10 0 13.5 -3.5t3.5 -13.5v-39q0 -10 -3.5 -13.5t-13.5 -3.5h-144v-145q0 -17 -18 -17h-37q-18 0 -18 17z" />
    <glyph glyph-name="comma" unicode="," horiz-adv-x="273" 
d="M68 -161l-16 25q-4 7 4 12q74 48 84 117h-6q-27 1 -45 19.5t-18 45.5t18.5 46t45.5 19q30 0 49 -22.5t19 -61.5q0 -137 -123 -201l-6 -2q-3 0 -6 3z" />
    <glyph glyph-name="hyphen" unicode="-" horiz-adv-x="429" 
d="M59 267v35q0 10 3.5 14t14.5 4h276q17 0 17 -18v-36q0 -10 -3.5 -13.5t-13.5 -3.5h-276q-11 0 -14.5 3.5t-3.5 14.5z" />
    <glyph glyph-name="period" unicode="." horiz-adv-x="270" 
d="M181 7q-19 -18 -46 -18t-46 18q-18 19 -18 46t18 46q19 19 46 19t46 -19t19 -46t-19 -46z" />
    <glyph glyph-name="slash" unicode="/" horiz-adv-x="390" 
d="M40 18l229 667q5 15 23 15h48q23 0 15 -17l-229 -668q-6 -15 -23 -15h-49q-20 0 -14 18z" />
    <glyph glyph-name="zero" unicode="0" horiz-adv-x="655" 
d="M536 89q-70 -102 -208 -102t-208 102q-71 103 -71 261t71 261q70 102 208 102t208 -102q71 -103 71 -261t-71 -261zM328 69q50 0 87.5 24t58 65.5t30 89t9.5 102.5t-9.5 103t-30 89t-58 65t-87.5 24t-87.5 -24t-58 -65t-30 -89t-9.5 -103t9.5 -102.5t30 -89t58 -65.5
t87.5 -24z" />
    <glyph glyph-name="one" unicode="1" horiz-adv-x="373" 
d="M175 18v567l-126 -45q-10 0 -13.5 3t-3.5 12v31q0 12 10 19l136 80q24 15 36 15h36q18 0 18 -17v-665q0 -18 -18 -18h-58q-17 0 -17 18z" />
    <glyph glyph-name="two" unicode="2" horiz-adv-x="560" 
d="M41 9v10q0 8 8 19l338 402q25 30 30.5 64t-7 62t-46.5 46.5t-82 18.5q-105 0 -179 -80q-14 -14 -25 1l-33 35q-12 13 -1 24q102 102 238 102q61 0 109.5 -19.5t76 -52t38.5 -73t-1.5 -85t-46.5 -84.5l-268 -318h312q10 0 14 -3.5t4 -14.5v-45q0 -18 -18 -18h-453
q-8 0 -8 9z" />
    <glyph glyph-name="three" unicode="3" horiz-adv-x="585" 
d="M44 113l31 34q13 13 25 1q76 -79 175 -79q173 0 173 135q0 49 -42.5 81.5t-109.5 32.5h-104q-10 0 -13.5 3.5t-3.5 13.5v42q0 10 3.5 13.5t13.5 3.5h103q69 0 101 33q32 34 32 71q0 62 -41.5 97.5t-111.5 35.5q-89 0 -161 -79q-7 -7 -12 -7q-7 0 -13 8l-31 34
q-12 13 -1 24q53 53 102.5 77.5t115.5 24.5q97 0 171 -53t74 -155q0 -52 -32 -93q-30 -38 -73 -56v-1q49 -15 87 -54q38 -40 38 -104q0 -103 -71 -156.5t-194 -53.5q-129 0 -232 102q-10 10 1 24z" />
    <glyph glyph-name="four" unicode="4" horiz-adv-x="647" 
d="M44 179v42q0 15 12 31l326 440q5 8 16 8h71q18 0 18 -17v-448h104q11 0 14.5 -3.5t3.5 -14.5v-38q0 -11 -3.5 -14.5t-14.5 -3.5h-104v-143q0 -10 -3.5 -14t-14.5 -4h-53q-17 0 -17 18v143h-337q-10 0 -14 3.5t-4 14.5zM399 586l-260 -351h260v351z" />
    <glyph glyph-name="five" unicode="5" horiz-adv-x="579" 
d="M40 113l31 34q7 7 13 7q5 0 11 -6q42 -40 82 -59.5t94 -19.5q87 0 129 34t42 110q0 129 -166 129h-187q-21 0 -18 17l44 324q2 12 4.5 14.5t12.5 2.5h339q18 0 18 -17v-46q0 -17 -18 -17h-282l-28 -196h120q253 0 253 -208q0 -112 -70.5 -170.5t-192.5 -58.5
q-129 0 -233 103q-10 10 2 23z" />
    <glyph glyph-name="six" unicode="6" horiz-adv-x="613" 
d="M545 603l-32 -34q-14 -14 -26 -2q-39 36 -74.5 50t-89.5 14q-91 0 -136 -79q-44 -79 -44 -209q54 114 200 114q95 0 159 -58q65 -57 65 -161q0 -106 -67 -179q-66 -72 -177 -72q-162 0 -221 103q-51 90 -51 223q0 400 278 400q66 0 117 -20t101 -65q11 -11 -2 -25z
M151 225q0 -22 7.5 -46.5t24.5 -51t52 -43.5t83 -17q73 0 115 46.5t42 119.5q0 67 -46 107q-45 42 -111 42q-65 0 -117 -47q-50 -47 -50 -110z" />
    <glyph glyph-name="seven" unicode="7" horiz-adv-x="564" 
d="M58 17l352 597h-361q-11 1 -14.5 4.5t-3.5 13.5v51q0 17 18 17h486q14 0 14 -13v-5q0 -9 -9 -24l-376 -642q-10 -16 -27 -16h-64q-23 0 -15 17z" />
    <glyph glyph-name="eight" unicode="8" horiz-adv-x="601" 
d="M182 358v3q-26 10 -68 42q-51 42 -51 115q0 86 62 140q62 55 177 55q113 0 174 -55q62 -54 62 -140q0 -74 -51 -115q-41 -33 -66 -43v-3q14 -4 33.5 -15t43.5 -30.5t40.5 -52.5t16.5 -72q0 -92 -65.5 -146t-188.5 -54q-122 0 -188.5 55t-66.5 145q0 77 57 125
q39 32 79 46zM137 192q0 -56 42.5 -90.5t121.5 -34.5t121.5 34.5t42.5 90.5q0 54 -48 89q-48 34 -116 42q-71 -7 -117.5 -42.5t-46.5 -88.5zM154 513q0 -49 41 -81t106 -38q65 6 106 38t41 81q0 54 -40.5 87.5t-106.5 33.5t-106.5 -33.5t-40.5 -87.5z" />
    <glyph glyph-name="nine" unicode="9" horiz-adv-x="612" 
d="M63 101l32 35q14 14 27 1q42 -36 81 -52t89 -16q92 0 135 79q44 80 44 210q-25 -53 -76 -84t-124 -31q-95 0 -160 57q-64 58 -64 162q0 107 67 178q67 73 178 73q128 0 193 -67q29 -31 47 -74q31 -76 31 -185q0 -400 -278 -400q-125 0 -223 89q-11 11 1 25zM139 468
q0 -67 45 -109q47 -41 112 -41t117 47q51 48 51 110q0 23 -8 48t-25 51t-52 43t-83 17q-74 0 -116 -48q-41 -49 -41 -118z" />
    <glyph glyph-name="colon" unicode=":" horiz-adv-x="270" 
d="M181 7q-19 -18 -46 -18t-46 18q-18 19 -18 46t18 46q19 19 46 19t46 -19t19 -46t-19 -46zM134 330q-27 0 -45 18.5t-18 45.5t18 46t45 19q28 0 47 -19t19 -46t-19 -45.5t-47 -18.5z" />
    <glyph glyph-name="semicolon" unicode=";" horiz-adv-x="273" 
d="M181 348q-19 -18 -46 -18t-46 18q-18 19 -18 46t18 46q19 19 46 19t46 -19t19 -46t-19 -46zM68 -165l-16 25q-4 7 4 12q74 46 84 117h-6q-27 0 -45 18.5t-18 45.5t18.5 46t45.5 19q30 0 49 -22.5t19 -61.5q0 -135 -123 -201l-6 -2q-3 0 -6 4z" />
    <glyph glyph-name="less" unicode="&#x3c;" horiz-adv-x="550" 
d="M31 374l452 249q8 3 11 3q6 0 6 -10v-50q0 -16 -17 -24l-344 -190l344 -190q17 -8 17 -24v-50q0 -11 -7 -11q-4 0 -10 3l-452 251q-15 7 -16 20v2q2 14 16 21z" />
    <glyph glyph-name="equal" unicode="=" horiz-adv-x="477" 
d="M59 385v35q0 10 3.5 14t14.5 4h324q10 0 13.5 -3.5t3.5 -13.5v-36q0 -10 -3.5 -13.5t-13.5 -3.5h-324q-18 0 -18 17zM59 188v35q0 11 3.5 14.5t14.5 3.5h324q10 0 13.5 -3.5t3.5 -13.5v-36q0 -10 -3.5 -13.5t-13.5 -3.5h-324q-18 0 -18 17z" />
    <glyph glyph-name="greater" unicode="&#x3e;" horiz-adv-x="550" 
d="M50 88v50q0 15 18 24l343 190l-343 190q-18 8 -18 24v50q0 10 7 10q4 0 11 -3l452 -249q15 -8 15 -21v-2q0 -13 -15 -20l-452 -251q-6 -3 -11 -3q-7 0 -7 11z" />
    <glyph glyph-name="question" unicode="?" horiz-adv-x="521" 
d="M282 6q-19 -18 -46 -18t-46 18q-18 19 -18 46t18 46q19 19 46 19t46 -19t19 -46t-19 -46zM197 233v106q0 11 12 14q211 37 211 142q0 56 -48 95t-130 39t-180 -67q-4 -4 -10 -4t-14 12l-23 38q-9 16 5 25q122 78 227 78q68 0 120.5 -19.5t83 -51t45.5 -67.5t15 -74
q0 -83 -57.5 -128.5t-174.5 -70.5v-67q0 -11 -3.5 -14.5t-14.5 -3.5h-47q-17 0 -17 18z" />
    <glyph glyph-name="at" unicode="@" horiz-adv-x="1064" 
d="M662 -121l9 -37q2 -8 2 -12t-2.5 -7.5t-9.5 -7.5q-66 -29 -146 -29q-201 0 -334 136q-132 136 -132 333q0 198 135 333t345 135q134 0 245 -53q110 -53 175 -158q66 -106 66 -251q0 -117 -33 -204q-39 -101 -136 -100q-110 0 -142 111l-10 33q-29 -38 -65 -69
q-49 -43 -128 -43q-101 0 -166 77q-63 78 -63 189t63 188q65 77 166 77q79 0 127 -46q37 -34 54 -64l11 85q8 14 17 14h39q17 0 17 -17v-364q0 -100 75 -100q58 0 78 70q18 65 18 163q0 125 -57 213q-109 175 -351 175q-173 0 -288 -113q-114 -112 -114 -281
q0 -167 111 -281q112 -114 277 -114q72 0 123 24q12 5 15 5q6 0 9 -10zM357 255q0 -81 45 -135q45 -53 117 -53q70 0 115 56q46 55 46 131t-46 131q-45 56 -115 56q-71 0 -117 -55q-45 -54 -45 -131z" />
    <glyph glyph-name="A" unicode="A" horiz-adv-x="719" 
d="M15 18l330 683q3 3 5 7.5t3.5 6.5t5.5 2h3q5 0 14 -16l331 -683q3 -7 -0.5 -12.5t-10.5 -5.5h-70q-14 0 -23 18l-73 159h-338l-74 -159q-9 -18 -23 -18h-70q-7 0 -10 5.5t0 12.5zM360 557l-136 -300h274l-136 300h-2z" />
    <glyph glyph-name="B" unicode="B" horiz-adv-x="669" 
d="M93 18v665q0 10 3.5 13.5t13.5 3.5h244q46 0 87.5 -10t78.5 -31.5t59 -60.5t22 -92q0 -99 -109 -145v-1q44 -15 82 -48q53 -41 53 -118q0 -101 -70 -147q-70 -47 -178 -47h-269q-17 0 -17 18zM381 319h-195v-240h187q160 0 160 124q0 49 -44 82q-43 34 -108 34zM349 621
h-163v-225h183q62 0 100.5 28.5t38.5 73.5q0 123 -159 123z" />
    <glyph glyph-name="C" unicode="C" horiz-adv-x="716" 
d="M634 154l35 -38q12 -14 0 -26q-48 -47 -118.5 -75t-143.5 -28q-148 0 -253 107q-105 106 -105 256t105 256q105 107 253 107q73 0 143.5 -27.5t118.5 -75.5q11 -11 -1 -24l-35 -39q-13 -13 -25 -1q-79 85 -201 85q-112 0 -188 -85t-76 -196t76 -196t188 -85q121 0 203 87
q6 6 11 6q7 0 13 -8z" />
    <glyph glyph-name="D" unicode="D" horiz-adv-x="758" 
d="M95 18v665q0 17 18 17h247q148 0 249 -101t101 -249q0 -149 -101 -250q-100 -100 -249 -100h-247q-18 0 -18 18zM188 621v-542h171q114 0 185 80q72 79 72 191t-72 191q-71 80 -185 80h-171z" />
    <glyph glyph-name="E" unicode="E" horiz-adv-x="635" 
d="M93 18v665q0 10 3.5 13.5t13.5 3.5h447q10 0 13.5 -3.5t3.5 -13.5v-46q0 -10 -3.5 -13.5t-13.5 -3.5h-371v-226h354q18 0 18 -18v-45q0 -11 -4 -14.5t-14 -3.5h-354v-232h371q17 0 17 -18v-45q0 -18 -17 -18h-447q-17 0 -17 18z" />
    <glyph glyph-name="F" unicode="F" horiz-adv-x="624" 
d="M95 18v665q0 17 18 17h446q10 0 13.5 -3.5t3.5 -13.5v-46q0 -10 -3.5 -13.5t-13.5 -3.5h-371v-226h362q17 0 17 -18v-45q0 -18 -17 -18h-362v-295q0 -18 -17 -18h-58q-11 0 -14.5 4t-3.5 14z" />
    <glyph glyph-name="G" unicode="G" horiz-adv-x="753" 
d="M405 306v45q0 11 3.5 14.5t14.5 3.5h251q17 0 17 -18v-223q0 -20 -16 -36q-51 -49 -122 -77q-72 -28 -147 -28q-148 0 -253 107q-104 107 -104 256t104 256q105 107 253 107q72 0 141.5 -27t120.5 -75q12 -11 -2 -25l-35 -38q-8 -8 -13 -8q-6 0 -13 7q-37 37 -90.5 60.5
t-108.5 23.5q-111 0 -187 -85q-76 -83 -76 -196q0 -111 76 -196t187 -85q112 0 192 70v149h-175q-18 0 -18 18z" />
    <glyph glyph-name="H" unicode="H" horiz-adv-x="758" 
d="M99 18v665q0 10 3.5 13.5t13.5 3.5h58q18 0 18 -17v-292h375v292q0 10 3.5 13.5t13.5 3.5h58q18 0 18 -17v-665q0 -18 -18 -18h-58q-17 0 -17 18v291h-375v-291q0 -18 -18 -18h-58q-17 0 -17 18z" />
    <glyph glyph-name="I" unicode="I" horiz-adv-x="290" 
d="M174 0h-58q-17 0 -17 18v665q0 10 3.5 13.5t13.5 3.5h58q18 0 18 -17v-665q0 -18 -18 -18z" />
    <glyph glyph-name="J" unicode="J" horiz-adv-x="454" 
d="M44 5l-5 47q-3 19 21 19q123 0 175.5 47t52.5 154v355h-152q-17 0 -17 18v38q0 10 3.5 13.5t13.5 3.5h228q18 0 18 -17v-411q0 -148 -77.5 -216t-237.5 -69q-13 0 -17 3.5t-6 14.5z" />
    <glyph glyph-name="K" unicode="K" horiz-adv-x="658" 
d="M99 18v665q0 10 3.5 13.5t13.5 3.5h59q10 0 13.5 -3.5t3.5 -13.5v-290l307 290q17 17 29 17h76q24 0 7 -17l-337 -317l355 -348q15 -18 -7 -18h-79q-11 0 -28 18l-323 318v-318q0 -18 -17 -18h-59q-17 0 -17 18z" />
    <glyph glyph-name="L" unicode="L" horiz-adv-x="571" 
d="M95 18v665q0 17 18 17h58q10 0 13.5 -3.5t3.5 -13.5v-602h333q17 0 17 -18v-45q0 -18 -17 -18h-408q-11 0 -14.5 4t-3.5 14z" />
    <glyph glyph-name="M" unicode="M" horiz-adv-x="992" 
d="M64 18l84 686q2 9 9 9h6q7 0 12 -9l321 -583l321 583q6 9 12 9h7q8 0 9 -9l83 -686q3 -18 -16 -18h-59q-10 0 -13 3t-5 15l-53 483l-262 -496q-9 -18 -20 -18h-8q-10 0 -20 18l-260 494l-55 -481q-2 -12 -5 -15t-13 -3h-59q-19 0 -16 18z" />
    <glyph glyph-name="N" unicode="N" horiz-adv-x="776" 
d="M98 18v687q0 8 9 8h6q7 0 14 -7l459 -527v504q0 10 3.5 13.5t13.5 3.5h58q11 0 14.5 -3.5t3.5 -13.5v-688q0 -8 -9 -8h-5q-8 0 -16 8l-458 531v-508q0 -18 -18 -18h-58q-17 0 -17 18z" />
    <glyph glyph-name="O" unicode="O" horiz-adv-x="814" 
d="M661 94q-105 -107 -253 -107q-147 0 -254 107q-105 106 -105 256t105 256q107 107 254 107q148 0 253 -107q105 -106 105 -256t-105 -256zM408 69q112 0 188 85t76 196q0 113 -76 196q-76 85 -188 85t-188 -85q-77 -86 -77 -196t77 -196q76 -85 188 -85z" />
    <glyph glyph-name="P" unicode="P" horiz-adv-x="621" 
d="M95 18v665q0 17 18 17h238q48 0 89.5 -10.5t78.5 -33.5t58 -65t21 -100q0 -76 -38 -128q-67 -88 -209 -88h-163v-257q0 -11 -3.5 -14.5t-13.5 -3.5h-58q-11 0 -14.5 4t-3.5 14zM346 621h-158v-267h158q162 0 162 137q0 130 -162 130z" />
    <glyph glyph-name="Q" unicode="Q" horiz-adv-x="814" 
d="M625 -115l-88 131q-69 -29 -130 -29q-148 0 -253 107q-105 106 -105 256t105 256q105 107 253 107t253 -107q106 -106 106 -256q0 -174 -153 -293l87 -120q10 -13 -4 -24l-47 -34q-13 -9 -24 6zM407 69q112 0 188 85q77 86 77 196q0 111 -77 196q-76 85 -188 85
q-111 2 -188 -84q-76 -85 -76 -197q0 -110 77 -196q76 -85 187 -85z" />
    <glyph glyph-name="R" unicode="R" horiz-adv-x="667" 
d="M95 18v665q0 17 18 17h240q46 0 87 -10.5t78 -33.5t58.5 -65.5t21.5 -100.5q0 -163 -156 -205l186 -263q12 -22 -15 -22h-56q-18 0 -30 18l-180 257h-159v-257q0 -18 -17 -18h-58q-10 0 -14 3.5t-4 14.5zM348 621h-160v-267h160q160 0 160 136q0 131 -160 131z" />
    <glyph glyph-name="S" unicode="S" horiz-adv-x="639" 
d="M56 91l23 38q6 11 13 11q4 0 11 -4q98 -65 217 -65q81 0 128.5 30t47.5 93q0 54 -45 80t-151 41q-97 12 -158 46q-78 43 -78 138q0 70 53 135q29 35 81.5 56t119.5 21q70 0 125.5 -17.5t121.5 -58.5q13 -7 4 -24l-22 -38q-9 -12 -15 -12t-10 4q-94 64 -194 64
q-95 0 -134 -38.5t-39 -88.5q0 -56 57 -79q50 -20 136 -31q102 -13 165 -51q74 -43 74 -143q0 -87 -67 -148t-190 -61q-157 0 -270 77q-14 9 -4 25z" />
    <glyph glyph-name="T" unicode="T" horiz-adv-x="613" 
d="M260 18v598h-232q-18 0 -18 18v49q0 17 18 17h558q10 0 13.5 -3.5t3.5 -13.5v-49q0 -18 -17 -18h-233v-598q0 -18 -17 -18h-58q-18 0 -18 18z" />
    <glyph glyph-name="U" unicode="U" horiz-adv-x="718" 
d="M73 288v395q0 10 3.5 13.5t13.5 3.5h58q18 0 18 -17v-390q0 -111 50.5 -167.5t142.5 -56.5q93 0 143.5 56.5t50.5 167.5v390q0 10 3.5 13.5t13.5 3.5h58q18 0 18 -17v-395q0 -143 -80 -223q-80 -78 -207 -78t-207 78q-79 79 -79 223z" />
    <glyph glyph-name="V" unicode="V" horiz-adv-x="719" 
d="M362 -17h-3q-3 0 -14 16l-330 684q-3 7 0 12t10 5h70q15 0 23 -17l243 -521l242 521q9 17 23 17h70q17 0 11 -17l-331 -684q-10 -16 -14 -16z" />
    <glyph glyph-name="W" unicode="W" horiz-adv-x="962" 
d="M276 -1l-260 684q-8 17 8 17h73q15 0 23 -17l177 -503l165 516q6 17 15 17h11q7 0 15 -17l164 -516l178 503q5 17 23 17h72q17 0 9 -17l-261 -684q-6 -16 -12 -16h-8q-6 0 -12 16l-174 538l-173 -538q-7 -16 -13 -16h-7q-6 0 -13 16z" />
    <glyph glyph-name="X" unicode="X" horiz-adv-x="669" 
d="M27 18l258 330l-259 335q-12 17 8 17h70q14 0 26 -17l206 -261l206 261q14 17 27 17h70q22 0 8 -17l-259 -335l258 -330q12 -18 -8 -18h-70q-14 0 -27 18l-205 256l-204 -256q-14 -18 -26 -18h-70q-21 0 -9 18z" />
    <glyph glyph-name="Y" unicode="Y" horiz-adv-x="632" 
d="M272 18v253l-260 412q-9 17 8 17h68q15 0 24 -17l206 -327l206 327q11 17 24 17h66q19 0 8 -17l-259 -412v-253q0 -10 -3.5 -14t-14.5 -4h-55q-18 0 -18 18z" />
    <glyph glyph-name="Z" unicode="Z" horiz-adv-x="619" 
d="M28 9v7q0 6 6 16l418 588h-377q-18 0 -18 17v46q0 17 18 17h510q9 0 9 -8v-8q0 -6 -7 -16l-417 -587h393q17 0 17 -18v-45q0 -18 -17 -18h-527q-8 0 -8 9z" />
    <glyph glyph-name="bracketleft" unicode="[" horiz-adv-x="384" 
d="M94 -168v863q0 10 3.5 13.5t13.5 3.5h191q10 0 13.5 -3.5t3.5 -13.5v-41q0 -10 -3.5 -13.5t-13.5 -3.5h-126v-747h126q10 0 13.5 -3.5t3.5 -13.5v-41q0 -10 -3.5 -13.5t-13.5 -3.5h-191q-10 0 -13.5 3.5t-3.5 13.5z" />
    <glyph glyph-name="backslash" unicode="\" horiz-adv-x="431" 
d="M359 0h-48q-15 0 -21 15l-230 668q-8 17 15 17h48q17 0 21 -15l230 -667q6 -18 -15 -18z" />
    <glyph glyph-name="bracketright" unicode="]" horiz-adv-x="381" 
d="M81 -110h125v747h-125q-18 0 -18 17v41q0 17 18 17h190q18 0 18 -17v-863q0 -17 -18 -17h-190q-18 0 -18 17v41q0 17 18 17z" />
    <glyph glyph-name="asciicircum" unicode="^" horiz-adv-x="364" 
d="M41 591l101 145q12 17 24 17h34q12 0 24 -17l102 -145q10 -18 -7 -18h-36q-17 0 -27 18l-73 110l-72 -110q-11 -18 -28 -18h-35q-19 0 -7 18z" />
    <glyph glyph-name="underscore" unicode="_" horiz-adv-x="521" 
d="M45 -69v39q0 10 3.5 14t14.5 4h398q17 0 17 -18v-39q0 -10 -3.5 -13.5t-13.5 -3.5h-398q-18 0 -18 17z" />
    <glyph glyph-name="grave" unicode="`" horiz-adv-x="245" 
d="M38 689l22 35q6 11 14 11q4 0 9 -6l125 -133q18 -19 -3 -19h-47q-15 0 -29 11l-87 78q-12 10 -4 23z" />
    <glyph glyph-name="a" unicode="a" horiz-adv-x="570" 
d="M432 18l-5 61q-69 -90 -196 -90q-73 0 -126 44q-51 43 -51 122t54 120.5t147 41.5q79 0 158 -32q0 88 -29.5 123.5t-104.5 35.5q-68 0 -151 -16q-2 -1 -7 -1q-11 0 -14 17l-9 36q-5 17 12 22q72 18 173 18q127 0 172 -56q46 -55 46 -184v-262q0 -18 -17 -18h-34
q-10 0 -18 18zM413 144v76q-85 33 -138 33q-133 0 -133 -98q0 -43 31 -70t86 -27q43 0 85 24t69 62z" />
    <glyph glyph-name="b" unicode="b" horiz-adv-x="635" 
d="M90 18v703q0 17 17 17h54q10 0 13.5 -3.5t3.5 -13.5v-310q12 28 52 64q47 45 127 45q101 0 166 -77t65 -188q0 -110 -65 -189q-65 -77 -166 -77q-79 0 -129 42q-37 33 -64 70l-10 -83q-8 -18 -19 -18h-28q-17 0 -17 18zM178 254q0 -74 45 -131q47 -56 116 -56
q72 0 117 54t45 134q0 78 -46 131q-45 55 -116 55q-69 0 -116 -56q-45 -55 -45 -131z" />
    <glyph glyph-name="c" unicode="c" horiz-adv-x="538" 
d="M465 117l28 -30q11 -13 1 -23q-76 -75 -185 -75t-186 77q-76 77 -76 188t76 188q77 78 186 78q110 0 185 -75q10 -11 -1 -22l-28 -31q-8 -8 -14 -8q-5 0 -10 5q-52 52 -131 52q-74 0 -125 -54t-51 -133q0 -78 51 -132q51 -53 125 -53q80 0 131 51q6 6 11 6q6 0 13 -9z
" />
    <glyph glyph-name="d" unicode="d" horiz-adv-x="635" 
d="M481 18l-10 83q-27 -37 -64 -70q-50 -42 -129 -42q-102 0 -167 77q-64 77 -64 189t64 188q65 77 167 77q80 0 127 -45q40 -36 52 -64v310q0 10 3.5 13.5t13.5 3.5h54q17 0 17 -17v-703q0 -18 -17 -18h-28q-12 0 -19 18zM134 255q0 -80 45 -134t117 -54q70 0 115 56
q46 56 46 131q0 76 -46 131q-45 56 -115 56q-71 0 -117 -55q-45 -54 -45 -131z" />
    <glyph glyph-name="e" unicode="e" horiz-adv-x="598" 
d="M540 224h-403q8 -67 59 -112q52 -46 121 -46q81 0 151 46q12 6 14 6q5 0 11 -7l22 -28q11 -14 1 -24q-33 -32 -88.5 -51t-113.5 -19q-113 0 -190 77q-77 79 -77 188q0 111 76 188q77 78 186 78q115 0 181 -80q67 -79 67 -197q0 -11 -3.5 -15t-13.5 -4zM308 447
q-70 0 -118 -49q-46 -50 -51 -114h328q-5 66 -48 114q-43 49 -111 49z" />
    <glyph glyph-name="f" unicode="f" horiz-adv-x="415" 
d="M115 18v418h-70q-10 0 -13.5 3.5t-3.5 13.5v37q0 10 3.5 13.5t13.5 3.5h70v31q0 223 186 223q51 0 88 -20q12 -7 9 -22l-8 -38q-3 -14 -9 -14t-13 4q-27 11 -58 11q-57 0 -82 -34.5t-25 -114.5v-26h171q18 0 18 -17v-37q0 -17 -18 -17h-171v-418q0 -10 -3.5 -14t-14.5 -4
h-52q-18 0 -18 18z" />
    <glyph glyph-name="g" unicode="g" horiz-adv-x="635" 
d="M99 -191l11 46q4 13 10 13q3 0 9 -3q87 -34 166 -34q162 0 162 197v70q-12 -21 -28 -42q-17 -21 -59 -44q-43 -23 -92 -23q-102 0 -167 77q-64 76 -64 189q0 112 64 188q65 77 167 77q80 0 129 -43q37 -31 64 -69l10 84q8 17 19 17h28q17 0 17 -17v-454q0 -285 -237 -285
q-102 0 -199 36q-15 6 -10 20zM296 69q70 0 115 55q46 55 46 131t-46 131q-45 56 -115 56q-72 0 -117 -54q-45 -52 -45 -133q0 -75 45 -131q46 -55 117 -55z" />
    <glyph glyph-name="h" unicode="h" horiz-adv-x="602" 
d="M93 18v703q0 10 3.5 13.5t13.5 3.5h54q17 0 17 -17v-297q59 96 154 96q91 0 144 -57t53 -170v-275q0 -18 -17 -18h-54q-17 0 -17 18v254q0 82 -35 125.5t-96 43.5q-60 0 -96 -50q-36 -49 -36 -125v-248q0 -18 -17 -18h-54q-17 0 -17 18z" />
    <glyph glyph-name="i" unicode="i" horiz-adv-x="314" 
d="M184 0h-53q-17 0 -17 18v474q0 10 3.5 13.5t13.5 3.5h53q18 0 18 -17v-474q0 -18 -18 -18zM157 616q-25 0 -41.5 16.5t-16.5 41.5q0 24 16.5 41t41.5 17q24 0 41 -17t17 -41q0 -25 -17 -41.5t-41 -16.5z" />
    <glyph glyph-name="j" unicode="j" horiz-adv-x="381" 
d="M-18 -188l8 38q3 14 9 14t13 -4q29 -17 69 -17q57 0 82 34.5t25 114.5v445h-130q-17 0 -17 17v38q0 17 17 17h200q18 0 18 -17v-505q0 -223 -186 -223q-59 0 -100 26q-11 8 -8 22zM230 616q-25 0 -41.5 16.5t-16.5 41.5q0 24 16.5 41t41.5 17q24 0 41 -17t17 -41
q0 -25 -17 -41.5t-41 -16.5z" />
    <glyph glyph-name="k" unicode="k" horiz-adv-x="559" 
d="M93 18v703q0 10 3.5 13.5t13.5 3.5h53q18 0 18 -17v-434l216 205q14 17 28 17h75q9 0 11 -5.5t-4 -11.5l-238 -222l251 -252q16 -18 -6 -18h-76q-13 0 -28 18l-229 230v-230q0 -10 -3.5 -14t-14.5 -4h-53q-17 0 -17 18z" />
    <glyph glyph-name="l" unicode="l" horiz-adv-x="285" 
d="M169 0h-53q-17 0 -17 18v703q0 10 3.5 13.5t13.5 3.5h53q18 0 18 -17v-703q0 -10 -3.5 -14t-14.5 -4z" />
    <glyph glyph-name="m" unicode="m" horiz-adv-x="917" 
d="M93 18v474q0 10 3.5 13.5t13.5 3.5h28q12 0 20 -17l10 -84q58 112 157 112q60 0 104 -33t64 -82q24 50 66 82.5t99 32.5q86 0 137.5 -57.5t51.5 -168.5v-276q0 -18 -17 -18h-54q-17 0 -17 18v254q0 80 -33.5 124.5t-88.5 44.5t-89 -46t-34 -123v-254q0 -18 -17 -18h-54
q-17 0 -17 18v254q0 78 -32.5 123.5t-89.5 45.5t-90 -47.5t-33 -127.5v-248q0 -18 -17 -18h-54q-17 0 -17 18z" />
    <glyph glyph-name="n" unicode="n" 
d="M95 18v474q0 17 17 17h29q11 0 19 -17l10 -81q64 109 168 109q90 0 143 -57t53 -170v-275q0 -18 -17 -18h-54q-17 0 -17 18v254q0 82 -34.5 125.5t-95.5 43.5q-60 0 -96.5 -49t-36.5 -126v-248q0 -18 -17 -18h-54q-17 0 -17 18z" />
    <glyph glyph-name="o" unicode="o" horiz-adv-x="620" 
d="M496 66q-77 -77 -186 -77t-186 77q-77 79 -77 188t77 188q76 78 186 78t186 -78q78 -78 78 -188t-78 -188zM486 254q0 79 -51 133t-125 54q-73 0 -125 -55q-51 -54 -51 -132t51 -133q53 -54 125 -54q73 0 124 54q52 55 52 133z" />
    <glyph glyph-name="p" unicode="p" horiz-adv-x="635" 
d="M90 -187v679q0 17 17 17h28q11 0 19 -17l10 -84q27 38 64 69q49 43 129 43q101 0 166 -77t65 -188q0 -112 -65 -189t-166 -77q-49 0 -92 23q-62 34 -87 86v-285q0 -10 -3.5 -13.5t-13.5 -3.5h-54q-17 0 -17 17zM339 69q71 0 116 54q46 55 46 132q0 81 -45 133
q-45 54 -117 54q-69 0 -116 -56q-45 -56 -45 -131t45 -131q46 -55 116 -55z" />
    <glyph glyph-name="q" unicode="q" horiz-adv-x="635" 
d="M528 -204h-54q-10 0 -13.5 3.5t-3.5 13.5v285q-12 -21 -28 -42q-17 -21 -59 -44q-43 -23 -92 -23q-102 0 -167 77q-64 76 -64 189q0 112 64 188q65 77 167 77q80 0 129 -43q37 -31 64 -69l10 84q8 17 19 17h28q17 0 17 -17v-679q0 -17 -17 -17zM296 69q70 0 115 55
q46 55 46 131t-46 131q-45 56 -115 56q-72 0 -117 -54q-45 -52 -45 -133q0 -77 45 -132q47 -54 117 -54z" />
    <glyph glyph-name="r" unicode="r" horiz-adv-x="416" 
d="M95 18v474q0 17 17 17h29q11 0 19 -17l15 -93q22 42 58 76q50 45 145 45q12 0 15 -3.5t1 -12.5l-8 -54q-2 -17 -19 -17q-89 0 -137 -51q-47 -52 -47 -123v-241q0 -18 -17 -18h-54q-17 0 -17 18z" />
    <glyph glyph-name="s" unicode="s" horiz-adv-x="509" 
d="M49 78l17 29q8 12 13 12q4 0 11 -5q79 -55 165 -55q62 0 95 23t33 62q0 29 -32.5 46.5t-102.5 26.5q-84 12 -134 38q-60 32 -60 107q0 72 53.5 115t142.5 43q99 0 191 -56q14 -8 6 -25l-16 -28q-10 -18 -24 -8q-77 47 -152 47q-57 0 -87 -22t-30 -61q0 -34 28 -48
t106 -24q95 -13 144.5 -47t49.5 -99q0 -72 -55.5 -116t-150.5 -44q-110 0 -207 64q-11 9 -4 25z" />
    <glyph glyph-name="t" unicode="t" horiz-adv-x="440" 
d="M108 211v227h-45q-18 0 -18 17v37q0 17 18 17h45v102q0 10 3.5 13.5t13.5 3.5h53q10 0 13.5 -3.5t3.5 -13.5v-102h172q10 0 13.5 -3.5t3.5 -14.5v-36q0 -10 -3.5 -13.5t-13.5 -3.5h-172v-221q0 -80 25 -114t82 -34q38 0 66 14q7 4 13 4t9 -14l8 -38q3 -15 -9 -22
q-41 -24 -96 -24q-185 0 -185 222z" />
    <glyph glyph-name="u" unicode="u" 
d="M70 216v276q0 10 3.5 13.5t13.5 3.5h54q10 0 13.5 -3.5t3.5 -13.5v-254q0 -83 34.5 -126t96.5 -43q59 0 95.5 49t36.5 125v249q0 10 3.5 13.5t13.5 3.5h54q10 0 13.5 -3.5t3.5 -13.5v-474q0 -18 -17 -18h-28q-12 0 -20 18l-10 81q-66 -110 -167 -110q-91 0 -144 57
t-53 170z" />
    <glyph glyph-name="v" unicode="v" horiz-adv-x="519" 
d="M261 -17h-3q-3 0 -14 16l-237 493q-3 7 0.5 12t10.5 5h60q14 0 23 -17l159 -339l158 339q8 17 23 17h60q17 0 11 -17l-237 -493q-10 -16 -14 -16z" />
    <glyph glyph-name="w" unicode="w" horiz-adv-x="736" 
d="M170 7l-156 485q-8 17 8 17h65q17 0 22 -15l99 -324l141 338q7 16 16 16h7q6 0 16 -16l140 -338l98 322q5 17 23 17h65q10 0 11.5 -3.5t-2.5 -13.5l-156 -485q-6 -18 -15 -18h-6q-10 0 -17 18l-161 381l-160 -381q-8 -18 -17 -18h-7q-8 0 -14 18z" />
    <glyph glyph-name="x" unicode="x" horiz-adv-x="490" 
d="M16 18l172 236l-172 238q-12 17 8 17h67q15 0 26 -17l130 -184l127 184q11 17 25 17h68q20 0 8 -17l-169 -238l169 -236q12 -18 -8 -18h-68q-13 0 -25 18l-127 182l-130 -182q-11 -18 -26 -18h-67q-20 0 -8 18z" />
    <glyph glyph-name="y" unicode="y" horiz-adv-x="522" 
d="M117 -187l98 220l-206 459q-8 17 8 17h62q15 0 23 -17l159 -360h1l158 360q8 17 23 17h61q18 0 9 -17l-303 -679q-8 -17 -23 -17h-61q-18 0 -9 17z" />
    <glyph glyph-name="z" unicode="z" horiz-adv-x="489" 
d="M30 9v6q0 7 7 17l285 399h-249q-11 0 -14.5 3.5t-3.5 14.5v43q0 17 18 17h374q9 0 9 -8v-7q0 -7 -7 -17l-282 -399h272q18 0 18 -17v-43q0 -10 -3.5 -14t-14.5 -4h-400q-9 0 -9 9z" />
    <glyph glyph-name="braceleft" unicode="{" horiz-adv-x="450" 
d="M138 36v79q0 31 -25.5 56t-60.5 35q-16 4 -16 20v47q0 15 16 19q35 10 60.5 35t25.5 56v79q0 61 17 110t45 75q26 26 62 41q57 25 124 25q10 0 13.5 -3.5t3.5 -13.5v-47q0 -18 -17 -18q-54 0 -101 -31q-57 -40 -57 -138v-79q0 -50 -26 -86t-63 -46v-4q37 -10 63 -46
t26 -86v-79q0 -98 57 -138q47 -31 101 -31q10 0 13.5 -3.5t3.5 -14.5v-47q0 -10 -3.5 -13.5t-13.5 -3.5q-67 0 -124 25q-121 46 -124 226z" />
    <glyph glyph-name="bar" unicode="|" horiz-adv-x="260" 
d="M150 -99h-40q-10 0 -13.5 3.5t-3.5 13.5v864q0 10 3.5 13.5t13.5 3.5h40q18 0 18 -17v-864q0 -17 -18 -17z" />
    <glyph glyph-name="braceright" unicode="}" horiz-adv-x="450" 
d="M47 -198v47q0 11 3.5 14.5t14.5 3.5q53 0 100 31q57 37 57 138v79q0 50 26.5 86t63.5 46v4q-37 10 -63.5 46t-26.5 86v79q0 101 -57 138q-47 31 -100 31q-11 0 -14.5 3.5t-3.5 14.5v47q0 17 18 17q67 0 124 -25q121 -46 124 -226v-79q0 -31 25.5 -56t59.5 -35
q17 -6 17 -19v-47q0 -14 -17 -20q-35 -9 -60 -34.5t-25 -56.5v-79q0 -61 -17 -110t-45 -75q-26 -26 -62 -41q-57 -25 -124 -25q-18 0 -18 17z" />
    <glyph glyph-name="asciitilde" unicode="~" horiz-adv-x="553" 
d="M90 346l-23 24q-14 12 0 26q22 27 33 38q38 40 92 40q43 0 96 -44q26 -22 39.5 -29.5t31.5 -7.5q40 0 78 59q12 16 26 3l24 -24q13 -12 0 -27q-16 -21 -34 -39q-35 -39 -91 -39q-48 0 -95 43q-44 38 -73 38q-40 0 -78 -59q-9 -9 -13 -9q-6 0 -13 7z" />
    <glyph glyph-name="exclamdown" unicode="&#xa1;" horiz-adv-x="340" 
d="M170 259q-26 0 -44.5 18.5t-18.5 45.5q0 26 18.5 44.5t44.5 18.5q27 0 45.5 -18.5t18.5 -44.5q0 -27 -18.5 -45.5t-45.5 -18.5zM206 -325h-71q-18 0 -18 17l11 427q0 17 18 17h49q18 0 18 -17l11 -427q0 -17 -18 -17z" />
    <glyph glyph-name="cent" unicode="&#xa2;" horiz-adv-x="533" 
d="M268 -154l-15 1q-11 1 -14 5t-1 15l17 127q-91 20 -150 93q-58 73 -58 167q0 108 77 187q76 79 185 79h16l14 94q1 10 5 13t15 3l15 -2q17 -3 15 -20l-14 -96q69 -17 119 -67q10 -11 -1 -22l-28 -31q-8 -8 -14 -8q-5 0 -10 5q-34 34 -76 44l-50 -364q73 0 126 51
q6 6 11 6q6 0 13 -9l28 -30q11 -13 1 -23q-77 -76 -189 -76l-17 -127q-3 -16 -14 -16l-3 1h-3zM265 76l50 364q-77 0 -130 -54q-51 -52 -51 -132q0 -68 39 -117q40 -49 92 -61z" />
    <glyph glyph-name="sterling" unicode="&#xa3;" horiz-adv-x="534" 
d="M199 117l-12 -36h279q10 0 14 -3.5t4 -14.5v-45q0 -18 -18 -18h-375q-17 0 -17 18q0 14 22 64q22 51 39 114q17 66 8 114h-73q-18 0 -18 17v11q0 17 18 17h57q-3 5 -20 33q-18 28 -23 39q-23 44 -23 97q0 75 51 132q53 57 151 57q95 0 209 -72q12 -7 4 -24l-23 -39
q-6 -11 -14 -11q-6 0 -10 4q-33 25 -81 42q-46 18 -80 18q-56 0 -87 -34.5t-31 -83.5q0 -27 23 -78l25 -43l22 -37h193q18 0 18 -17v-11q0 -17 -18 -17h-182q1 -21 1 -50q1 -15 -7 -51q-1 -3 -13 -48z" />
    <glyph glyph-name="currency" unicode="&#xa4;" horiz-adv-x="528" 
d="M73 133l-19 19q-12 12 0 25l68 68q-30 43 -30 97q0 55 30 98l-68 69q-14 11 0 24l19 20q7 7 12 7q6 0 12 -7l69 -69q45 31 98 31t98 -31l69 69q7 7 12 7q6 0 12 -7l19 -20q14 -13 0 -24l-69 -70q31 -41 31 -97q0 -54 -31 -97l69 -69q12 -13 0 -25l-19 -19q-7 -7 -13 -7
q-5 0 -12 7l-69 68q-44 -29 -97 -29q-55 0 -98 30l-68 -68q-12 -13 -25 0zM186 264q30 -31 78 -31q49 0 77 31q30 32 30 78t-30 78q-29 32 -77 32t-78 -32q-29 -32 -29 -78t29 -78z" />
    <glyph glyph-name="yen" unicode="&#xa5;" horiz-adv-x="648" 
d="M72 165v25q0 18 17 18h188v63l-28 45h-160q-10 0 -13.5 3.5t-3.5 13.5v25q0 18 17 18h123l-195 307q-9 17 8 17h68q15 0 24 -17l206 -327l206 327q11 17 24 17h66h12q5 0 1 -7l-1 -2q-1 -2 -2.5 -4.5t-1.5 -3.5l-194 -307h126q11 0 14.5 -4t3.5 -14v-25q0 -17 -18 -17
h-155l-24 -24l-12 -38v-46h191q11 0 14.5 -4t3.5 -14v-25q0 -17 -18 -17h-191v-130q0 -18 -18 -18h-55q-11 0 -14.5 4t-3.5 14v130h-188q-10 0 -13.5 3.5t-3.5 13.5z" />
    <glyph glyph-name="brokenbar" unicode="&#xa6;" horiz-adv-x="259" 
d="M144 -86h-29q-17 0 -17 18v363q0 18 17 18h29q17 0 17 -18v-363q0 -18 -17 -18zM144 420h-29q-10 0 -13.5 3.5t-3.5 13.5v318q0 10 3.5 13.5t13.5 3.5h29q10 0 13.5 -3.5t3.5 -13.5v-318q0 -10 -3.5 -13.5t-13.5 -3.5z" />
    <glyph glyph-name="section" unicode="&#xa7;" horiz-adv-x="634" 
d="M55 -178l23 38q6 11 13 11q5 0 12 -4q94 -64 212 -64q82 0 129 30t47 92q0 54 -45.5 80.5t-151.5 41.5q-96 12 -158 46q-77 42 -77 138q0 80 62 142q-62 44 -62 126q0 70 53 135q29 35 81.5 56t119.5 21q73 0 127 -18t118 -57q14 -8 6 -25l-23 -38q-7 -12 -14 -12
q-6 0 -10 4q-94 64 -195 64q-50 0 -86 -13t-54 -34t-25.5 -41t-7.5 -39q0 -56 57 -79q50 -20 137 -31q53 -8 91 -19t74 -32t54.5 -57t18.5 -86q0 -37 -15.5 -75.5t-41.5 -62.5q57 -47 57 -131q0 -91 -67 -149q-67 -59 -189 -59q-151 0 -263 75q-16 9 -7 26zM343 124
q30 -4 96 -23q22 9 37 35t15 58q0 54 -45 80t-152 41q-21 2 -89 19q-38 -22 -51.5 -71.5t9.5 -76.5q13 -18 43 -31q50 -20 137 -31z" />
    <glyph glyph-name="dieresis" unicode="&#xa8;" horiz-adv-x="406" 
d="M105 724q20 0 35 -14.5t15 -35.5t-14.5 -35t-35.5 -14t-35.5 14t-14.5 35t14.5 35.5t35.5 14.5zM336 639q-14 -14 -35 -14t-35 14t-14 35t14 35q14 15 35 15t35 -15q15 -14 15 -35t-15 -35z" />
    <glyph glyph-name="copyright" unicode="&#xa9;" horiz-adv-x="819" 
d="M410 -13q-151 0 -257 106t-106 257q0 150 106 256q107 107 257 107q83 0 152.5 -30.5t112.5 -82.5q89 -106 89 -250t-89 -250q-43 -52 -112.5 -82.5t-152.5 -30.5zM410 21q75 0 138.5 28t102.5 75q80 94 80 226q0 133 -80 227q-39 47 -102.5 75t-138.5 28
q-137 0 -234 -97q-96 -96 -96 -233t96 -233q98 -96 234 -96zM539 233q5 -8 -1 -14q-49 -52 -129 -52q-75 0 -128 54q-53 55 -53 129t53 129q53 54 128 54q80 0 129 -52q7 -7 1 -14l-20 -21q-7 -7 -13 -1q-38 41 -97 41q-56 0 -92 -40t-36 -96t36 -96t92 -40q58 0 97 41
q6 6 13 -1z" />
    <glyph glyph-name="ordfeminine" unicode="&#xaa;" horiz-adv-x="395" 
d="M281 402l-3 37q-44 -56 -118 -56q-48 0 -79 28t-31 75q0 49 33.5 75t91.5 26q52 0 94 -19q0 52 -17.5 73t-61.5 21q-26 0 -92 -11l-2 -1h-3q-5 0 -8 11l-8 27q-3 11 7 14q46 11 108 11q77 0 106.5 -33.5t29.5 -116.5v-161q0 -12 -11 -12h-25q-6 0 -11 12zM269 486v37
q-42 19 -82 19q-78 0 -78 -56q0 -25 18 -40.5t50 -15.5q51 0 92 56z" />
    <glyph glyph-name="guillemotleft" unicode="&#xab;" horiz-adv-x="549" 
d="M219 33l-167 185q-16 19 -16 33v6q0 15 16 34l167 185q8 8 13 8q3 0 10 -4l35 -20q14 -9 3 -23l-152 -183l152 -182q10 -13 -3 -23l-35 -20q-11 -8 -23 4zM439 33l-166 185q-16 16 -16 33v6q0 15 16 34l166 185q8 8 13 8q4 0 11 -4l35 -20q14 -9 3 -23l-153 -183
l153 -182q11 -14 -3 -23l-35 -20q-4 -4 -10 -4t-14 8z" />
    <glyph glyph-name="logicalnot" unicode="&#xac;" horiz-adv-x="520" 
d="M50 289v35q0 18 18 18h380q10 0 13.5 -3.5t3.5 -13.5v-246q0 -11 -3.5 -14.5t-14.5 -3.5h-35q-10 0 -14 3.5t-4 14.5v193h-326q-18 0 -18 17z" />
    <glyph glyph-name="uni00AD" unicode="&#xad;" horiz-adv-x="411" 
d="M50 266v35q0 11 4 14.5t14 3.5h276q10 0 13.5 -3.5t3.5 -13.5v-36q0 -10 -3.5 -13.5t-13.5 -3.5h-276q-18 0 -18 17z" />
    <glyph glyph-name="registered" unicode="&#xae;" horiz-adv-x="819" 
d="M410 -13q-151 0 -257 106t-106 257q0 150 106 256q107 107 257 107q149 0 256 -107t107 -256q0 -150 -107 -257q-106 -106 -256 -106zM410 20q136 0 232 96q97 97 97 234q0 136 -97 233q-96 97 -232 97q-137 0 -234 -97q-96 -96 -96 -233q0 -136 96 -234q98 -96 234 -96z
M280 176v349q0 8 10 8h127q58 0 92.5 -27t34.5 -83q0 -41 -22.5 -69t-59.5 -38l98 -138q6 -11 -10 -11h-35q-9 0 -16 9l-94 135h-70v-135q0 -9 -9 -9h-36q-10 0 -10 9zM414 487h-79v-129h81q75 0 75 65q0 64 -77 64z" />
    <glyph glyph-name="overscore" unicode="&#xaf;" horiz-adv-x="377" 
d="M50 666v29q0 11 4 14.5t14 3.5h242q10 0 13.5 -3.5t3.5 -13.5v-31q0 -10 -3.5 -13.5t-13.5 -3.5h-242q-18 0 -18 18z" />
    <glyph glyph-name="degree" unicode="&#xb0;" horiz-adv-x="397" 
d="M198 408q-64 0 -108 44q-43 43 -43 108t43 108q44 44 108 44q63 0 108 -45q45 -43 45 -107t-45 -108q-46 -44 -108 -44zM198 470q37 0 63 26t26 64q0 36 -26.5 62.5t-62.5 26.5q-37 0 -63.5 -26.5t-26.5 -62.5q0 -38 26 -64t64 -26z" />
    <glyph glyph-name="plusminus" unicode="&#xb1;" horiz-adv-x="565" 
d="M75 100v39q0 11 3.5 14.5t14.5 3.5h379q18 0 18 -17v-40q0 -17 -18 -17h-379q-18 0 -18 17zM246 304v130h-143q-11 0 -14.5 4t-3.5 14v37q0 11 3.5 14.5t14.5 3.5h143v143q0 18 18 18h38q17 0 17 -18v-143h144q18 0 18 -17v-39q0 -17 -18 -17h-144v-130q0 -10 -3.5 -13.5
t-13.5 -3.5h-38q-18 0 -18 17z" />
    <glyph glyph-name="acute" unicode="&#xb4;" horiz-adv-x="265" 
d="M51 596l125 133q4 6 9 6q8 0 14 -11l22 -35q8 -13 -4 -23l-87 -78q-14 -11 -29 -11h-47q-21 0 -3 19z" />
    <glyph glyph-name="mu" unicode="&#xb5;" horiz-adv-x="620" 
d="M95 -187v679q0 10 3.5 13.5t13.5 3.5h54q10 0 13.5 -3.5t3.5 -13.5v-253q0 -170 122 -170q59 0 95 53q37 53 37 133v237q0 10 3.5 13.5t13.5 3.5h54q10 0 13.5 -3.5t3.5 -13.5v-474q0 -18 -17 -18h-28q-12 0 -20 18l-10 83l-15 -21l-18 -22l-17 -20q-12 -13 -48 -35
q-24 -14 -66 -14q-71 0 -103 53v-229q0 -10 -3.5 -13.5t-13.5 -3.5h-54q-10 0 -13.5 3.5t-3.5 13.5z" />
    <glyph glyph-name="paragraph" unicode="&#xb6;" horiz-adv-x="779" 
d="M364 -237h-42q-18 0 -18 17v449q-114 0 -188 67q-74 68 -74 175q0 105 69 167q70 62 166 62h441q10 0 13.5 -3.5t3.5 -13.5v-48q0 -10 -3.5 -13.5t-13.5 -3.5h-110v-839q0 -17 -18 -17h-42q-18 0 -18 17v839h-148v-838q0 -17 -18 -17z" />
    <glyph glyph-name="middot" unicode="&#xb7;" horiz-adv-x="247" 
d="M123 272q-29 0 -49.5 20.5t-20.5 50.5q0 29 20.5 50t49.5 21q30 0 50.5 -21t20.5 -50q0 -30 -20.5 -50.5t-50.5 -20.5z" />
    <glyph glyph-name="cedilla" unicode="&#xb8;" horiz-adv-x="291" 
d="M49 -193l11 15q6 8 18 2q35 -23 72 -23q45 0 45 41q0 47 -60 47h-41q-12 0 -12 15l17 86l43 -3l-7 -52q112 0 112 -93q0 -42 -27 -66.5t-75 -24.5q-44 0 -94 38q-11 8 -2 18z" />
    <glyph glyph-name="ordmasculine" unicode="&#xba;" horiz-adv-x="334" 
d="M265 424q-32 -47 -97 -47q-64 0 -99 47q-33 46 -33 121t33 121q35 47 99 47q65 0 97 -47q33 -46 33 -121t-33 -121zM168 433q71 0 71 112t-71 112q-72 0 -72 -112t72 -112z" />
    <glyph glyph-name="guillemotright" unicode="&#xbb;" horiz-adv-x="549" 
d="M87 29l-35 20q-13 10 -3 23l152 182l-152 183q-11 14 3 23l35 20q7 4 10 4q5 0 13 -8l167 -185q16 -19 16 -34v-6q0 -14 -16 -33l-167 -185q-12 -12 -23 -4zM308 29l-35 20q-13 10 -3 23l152 182l-152 183q-11 14 3 23l35 20q7 4 10 4q5 0 13 -8l167 -185q16 -19 16 -34
v-6q0 -14 -16 -33l-167 -185q-12 -12 -23 -4z" />
    <glyph glyph-name="onequarter" unicode="&#xbc;" horiz-adv-x="654" 
d="M104 18l343 667q7 15 22 15h30q23 0 14 -17l-342 -668q-7 -15 -23 -15h-29q-24 0 -15 18zM361 90v19q0 8 8 19l124 176q3 6 11 6h41q9 0 9 -10v-175h46q9 0 9 -10v-25q0 -10 -9 -10h-46v-70q0 -10 -9 -10h-31q-9 0 -9 10v70h-134q-10 0 -10 10zM505 245l-86 -120h86v120z
M118 400v229l-63 -21h-4q-6 0 -6 7v30q0 7 6 11l67 36q14 8 21 8h26q10 0 10 -10v-290q0 -10 -10 -10h-37q-10 0 -10 10z" />
    <glyph glyph-name="onehalf" unicode="&#xbd;" horiz-adv-x="688" 
d="M125 18l343 667q8 15 22 15h30q22 0 14 -17l-342 -668q-8 -15 -23 -15h-29q-24 0 -15 18zM633 0h-201q-3 0 -3 4v4q0 5 4 9l127 167q25 39 16 63.5t-41 24.5q-41 0 -70 -29q-7 -7 -15 1l-21 23q-7 7 0 13q44 43 106 43q67 0 89 -49q23 -50 -13 -97l-89 -124h111
q10 0 10 -9v-34q0 -10 -10 -10zM118 400v229l-63 -21h-4q-6 0 -6 7v30q0 7 6 11l67 36q14 8 21 8h26q10 0 10 -10v-290q0 -10 -10 -10h-37q-10 0 -10 10z" />
    <glyph glyph-name="threequarters" unicode="&#xbe;" horiz-adv-x="703" 
d="M149 18l343 667q8 15 22 15h30q22 0 14 -17l-342 -668q-8 -15 -23 -15h-29q-24 0 -15 18zM405 90v19q0 9 7 19l124 176q4 6 12 6h40q10 0 10 -10v-175h45q10 0 10 -10v-25q0 -10 -10 -10h-45v-70q0 -10 -10 -10h-30q-10 0 -10 10v70h-133q-10 0 -10 10zM548 245l-85 -120
h85v120zM49 440l20 21q8 8 15 1q33 -33 72 -33q33 0 49.5 14.5t16.5 38.5q0 19 -18.5 32t-48.5 13h-29q-10 0 -10 10v22q0 10 10 10h29q30 0 48.5 13t18.5 32q0 53 -66 53q-39 0 -72 -33q-7 -7 -15 1l-20 21q-6 8 0 14q44 44 107 44q49 0 82.5 -24.5t33.5 -69.5
q0 -25 -14.5 -44t-36.5 -28v-1q51 -20 51 -71q0 -44 -34 -69t-82 -25q-62 0 -107 45q-7 7 0 13z" />
    <glyph glyph-name="questiondown" unicode="&#xbf;" horiz-adv-x="521" 
d="M239 277q-19 19 -19 46t19 45q19 19 46 19t45 -19q19 -18 19 -45t-19 -46q-18 -19 -45 -19t-46 19zM242 75v68q0 17 18 17h47q10 0 13.5 -3.5t3.5 -13.5v-106q0 -13 -12 -14q-105 -19 -158 -53.5t-53 -89.5q0 -56 48 -95t130 -39t180 67q4 4 10 4q7 0 14 -12l23 -38
q9 -16 -5 -25q-122 -78 -227 -78q-68 0 -120.5 19.5t-83 51t-45.5 67.5t-15 74q0 83 57.5 128.5t174.5 70.5z" />
    <glyph glyph-name="Agrave" unicode="&#xc0;" horiz-adv-x="719" 
d="M15 18l330 683q3 3 5 7.5t3.5 6.5t5.5 2h3q5 0 14 -16l331 -683q3 -7 -0.5 -12.5t-10.5 -5.5h-70q-14 0 -23 18l-73 159h-338l-74 -159q-9 -18 -23 -18h-70q-7 0 -10 5.5t0 12.5zM360 557l-136 -300h274l-136 300h-2zM240 880l22 35q6 11 14 11q6 0 10 -6l124 -133
q19 -19 -2 -19h-48q-14 0 -28 11l-87 78q-13 11 -5 23z" />
    <glyph glyph-name="Aacute" unicode="&#xc1;" horiz-adv-x="719" 
d="M15 18l330 683q3 3 5 7.5t3.5 6.5t5.5 2h3q5 0 14 -16l331 -683q3 -7 -0.5 -12.5t-10.5 -5.5h-70q-14 0 -23 18l-73 159h-338l-74 -159q-9 -18 -23 -18h-70q-7 0 -10 5.5t0 12.5zM360 557l-136 -300h274l-136 300h-2zM319 787l125 133q4 6 9 6q8 0 14 -11l22 -35
q8 -13 -4 -23l-87 -78q-14 -11 -29 -11h-47q-21 0 -3 19z" />
    <glyph glyph-name="Acircumflex" unicode="&#xc2;" horiz-adv-x="719" 
d="M15 18l330 683q3 3 5 7.5t3.5 6.5t5.5 2h3q5 0 14 -16l331 -683q3 -7 -0.5 -12.5t-10.5 -5.5h-70q-14 0 -23 18l-73 159h-338l-74 -159q-9 -18 -23 -18h-70q-7 0 -10 5.5t0 12.5zM360 557l-136 -300h274l-136 300h-2zM219 782l101 145q12 17 24 17h34q12 0 24 -17
l102 -145q10 -18 -7 -18h-36q-17 0 -27 18l-73 110l-72 -110q-11 -18 -28 -18h-35q-19 0 -7 18z" />
    <glyph glyph-name="Atilde" unicode="&#xc3;" horiz-adv-x="719" 
d="M15 18l330 683q3 3 5 7.5t3.5 6.5t5.5 2h3q5 0 14 -16l331 -683q3 -7 -0.5 -12.5t-10.5 -5.5h-70q-14 0 -23 18l-73 159h-338l-74 -159q-9 -18 -23 -18h-70q-7 0 -10 5.5t0 12.5zM360 557l-136 -300h274l-136 300h-2zM207 816l-23 10q-16 7 -9 25q35 83 107 83
q44 0 87 -34q26 -19 37.5 -25t26.5 -6q37 0 57 45q4 13 13 13q5 0 11 -2l22 -10q18 -6 9 -25q-35 -83 -106 -83q-45 0 -86 32q-26 20 -36 25t-29 8q-39 0 -57 -45q-6 -13 -14 -13h-1q-2 1 -4.5 1.5t-4.5 0.5z" />
    <glyph glyph-name="Adieresis" unicode="&#xc4;" horiz-adv-x="719" 
d="M15 18l330 683q3 3 5 7.5t3.5 6.5t5.5 2h3q5 0 14 -16l331 -683q3 -7 -0.5 -12.5t-10.5 -5.5h-70q-14 0 -23 18l-73 159h-338l-74 -159q-9 -18 -23 -18h-70q-7 0 -10 5.5t0 12.5zM360 557l-136 -300h274l-136 300h-2zM263 915q20 0 35 -14.5t15 -35.5t-14.5 -35
t-35.5 -14t-35.5 14t-14.5 35t14.5 35.5t35.5 14.5zM494 830q-14 -14 -35 -14t-35 14t-14 35t14 35q14 15 35 15t35 -15q15 -14 15 -35t-15 -35z" />
    <glyph glyph-name="Aring" unicode="&#xc5;" horiz-adv-x="719" 
d="M15 18l330 683q3 3 5 7.5t3.5 6.5t5.5 2h3q5 0 14 -16l331 -683q3 -7 -0.5 -12.5t-10.5 -5.5h-70q-14 0 -23 18l-73 159h-338l-74 -159q-9 -18 -23 -18h-70q-7 0 -10 5.5t0 12.5zM360 557l-136 -300h274l-136 300h-2zM283 800q-30 32 -30 79t30 78q32 32 77 32t77 -32
q31 -31 31 -78q0 -48 -31 -79t-77 -31t-77 31zM301 879q0 -26 17 -45t42 -19q41 0 55 40t-12 69q-15 19 -42 19q-26 0 -43 -18.5t-17 -45.5z" />
    <glyph glyph-name="AE" unicode="&#xc6;" horiz-adv-x="978" 
d="M15 18l377 655q15 27 24 27h483q18 0 18 -17v-46q0 -17 -18 -17h-371v-226h348q18 0 18 -18v-45q0 -11 -4 -14.5t-14 -3.5h-348v-232h371q11 0 14.5 -3.5t3.5 -14.5v-45q0 -10 -3.5 -14t-14.5 -4h-454q-17 0 -17 18v159h-218l-92 -159q-8 -18 -23 -18h-70q-7 0 -10 5.5
t0 12.5zM428 570l-176 -313h176v313z" />
    <glyph glyph-name="Ccedilla" unicode="&#xc7;" horiz-adv-x="716" 
d="M308 -193l11 15q6 8 18 2q35 -23 72 -23q45 0 45 41q0 47 -60 47h-41q-12 0 -12 15l17 86q-128 19 -219 124q-90 104 -90 236q0 150 105 256q105 107 253 107q73 0 143.5 -27.5t118.5 -75.5q11 -11 -1 -24l-35 -39q-13 -13 -25 -1q-79 85 -201 85q-112 0 -188 -85
t-76 -196t76 -196t188 -85q121 0 203 87q6 6 11 6q7 0 13 -8l35 -38q12 -14 0 -26q-47 -47 -118.5 -74.5t-149.5 -28.5l-7 -51q112 0 112 -94q0 -42 -27 -66.5t-75 -24.5q-44 0 -94 38q-11 8 -2 18z" />
    <glyph glyph-name="Egrave" unicode="&#xc8;" horiz-adv-x="635" 
d="M88 18v665q0 17 18 17h446q18 0 18 -17v-46q0 -17 -18 -17h-371v-226h355q17 0 17 -18v-45q0 -18 -17 -18h-355v-232h371q10 0 14 -3.5t4 -14.5v-45q0 -18 -18 -18h-446q-18 0 -18 18zM221 880l22 35q6 11 14 11q5 0 9 -6l125 -133q18 -19 -3 -19h-47q-15 0 -29 11
l-87 78q-12 10 -4 23z" />
    <glyph glyph-name="Eacute" unicode="&#xc9;" horiz-adv-x="635" 
d="M88 18v665q0 17 18 17h446q18 0 18 -17v-46q0 -17 -18 -17h-371v-226h355q17 0 17 -18v-45q0 -18 -17 -18h-355v-232h371q10 0 14 -3.5t4 -14.5v-45q0 -18 -18 -18h-446q-18 0 -18 18zM257 787l125 133q4 6 9 6q8 0 14 -11l22 -35q8 -13 -4 -23l-87 -78q-14 -11 -29 -11
h-47q-21 0 -3 19z" />
    <glyph glyph-name="Ecircumflex" unicode="&#xca;" horiz-adv-x="618" 
d="M86 18v665q0 10 3.5 13.5t13.5 3.5h447q10 0 13.5 -3.5t3.5 -13.5v-46q0 -10 -3.5 -13.5t-13.5 -3.5h-371v-226h354q11 0 14.5 -4t3.5 -14v-45q0 -11 -3.5 -14.5t-14.5 -3.5h-354v-232h371q17 0 17 -18v-45q0 -18 -17 -18h-447q-17 0 -17 18zM186 782l101 145
q12 17 24 17h34q12 0 24 -17l102 -145q10 -18 -7 -18h-36q-16 0 -27 18l-73 110l-72 -110q-10 -18 -28 -18h-35q-19 0 -7 18z" />
    <glyph glyph-name="Edieresis" unicode="&#xcb;" horiz-adv-x="635" 
d="M88 18v665q0 17 18 17h446q18 0 18 -17v-46q0 -17 -18 -17h-371v-226h355q17 0 17 -18v-45q0 -18 -17 -18h-355v-232h371q10 0 14 -3.5t4 -14.5v-45q0 -18 -18 -18h-446q-18 0 -18 18zM234 915q20 0 35 -14.5t15 -35.5t-14.5 -35t-35.5 -14t-35.5 14t-14.5 35t14.5 35.5
t35.5 14.5zM465 830q-14 -14 -35 -14t-35 14t-14 35t14 35q14 15 35 15t35 -15q15 -14 15 -35t-15 -35z" />
    <glyph glyph-name="Igrave" unicode="&#xcc;" horiz-adv-x="307" 
d="M179 0h-58q-11 0 -14.5 4t-3.5 14v665q0 17 18 17h58q10 0 13.5 -3.5t3.5 -13.5v-665q0 -18 -17 -18zM29 880l22 35q6 11 14 11q5 0 10 -6l124 -133q19 -19 -2 -19h-48q-14 0 -28 11l-87 78q-13 11 -5 23z" />
    <glyph glyph-name="Iacute" unicode="&#xcd;" horiz-adv-x="299" 
d="M179 0h-58q-11 0 -14.5 4t-3.5 14v665q0 17 18 17h58q10 0 13.5 -3.5t3.5 -13.5v-665q0 -18 -17 -18zM96 787l125 133q5 6 9 6q8 0 14 -11l22 -35q8 -13 -4 -23l-87 -78q-14 -11 -29 -11h-47q-21 0 -3 19z" />
    <glyph glyph-name="Icircumflex" unicode="&#xce;" horiz-adv-x="300" 
d="M179 0h-58q-11 0 -14.5 4t-3.5 14v665q0 17 18 17h58q10 0 13.5 -3.5t3.5 -13.5v-665q0 -18 -17 -18zM8 782l101 145q12 17 24 17h34q12 0 24 -17l102 -145q11 -18 -7 -18h-36q-16 0 -27 18l-73 110l-72 -110q-11 -18 -28 -18h-35q-19 0 -7 18z" />
    <glyph glyph-name="Idieresis" unicode="&#xcf;" horiz-adv-x="299" 
d="M179 0h-58q-11 0 -14.5 4t-3.5 14v665q0 17 18 17h58q10 0 13.5 -3.5t3.5 -13.5v-665q0 -18 -17 -18zM78 830q-14 -14 -35 -14t-36 14q-14 14 -14 35t14 35q15 15 36 15t35 -15q15 -14 15 -35t-15 -35zM240 915q20 0 35 -14.5t15 -35.5t-14.5 -35t-35.5 -14t-35.5 14
t-14.5 35t14.5 35.5t35.5 14.5z" />
    <glyph glyph-name="Eth" unicode="&#xd0;" horiz-adv-x="802" 
d="M139 18v299h-101q-18 0 -18 17v42q0 17 18 17h101v290q0 10 3.5 13.5t13.5 3.5h248q147 0 248 -101t101 -249q0 -149 -101 -250q-100 -100 -248 -100h-248q-17 0 -17 18zM232 317v-238h171q113 0 184 80q72 79 72 191q0 111 -71 191t-185 80h-171v-228h159
q10 0 13.5 -3.5t3.5 -13.5v-42q0 -10 -3.5 -13.5t-13.5 -3.5h-159z" />
    <glyph glyph-name="Ntilde" unicode="&#xd1;" horiz-adv-x="776" 
d="M98 18v687q0 8 9 8h6q7 0 14 -7l459 -527v504q0 10 3.5 13.5t13.5 3.5h58q11 0 14.5 -3.5t3.5 -13.5v-688q0 -8 -9 -8h-5q-8 0 -16 8l-458 529v-506q0 -18 -18 -18h-58q-17 0 -17 18zM225 816l-22 10q-16 7 -9 25q35 83 106 83q44 0 87 -34q28 -20 39 -25.5t25 -5.5
q41 0 57 45q4 13 13 13q5 0 11 -2l23 -10q16 -6 9 -25q-35 -83 -107 -83q-44 0 -85 32q-44 33 -66 33q-39 0 -57 -45q-6 -13 -14 -13z" />
    <glyph glyph-name="Ograve" unicode="&#xd2;" horiz-adv-x="814" 
d="M661 94q-105 -107 -253 -107q-147 0 -254 107q-105 106 -105 256t105 256q107 107 254 107q148 0 253 -107q105 -106 105 -256t-105 -256zM408 69q112 0 188 85t76 196q0 113 -76 196q-76 85 -188 85t-188 -85q-77 -86 -77 -196t77 -196q76 -85 188 -85zM293 880l22 35
q6 11 14 11q5 0 10 -6l124 -133q19 -19 -2 -19h-48q-14 0 -28 11l-87 78q-13 11 -5 23z" />
    <glyph glyph-name="Oacute" unicode="&#xd3;" horiz-adv-x="814" 
d="M661 94q-105 -107 -253 -107q-147 0 -254 107q-105 106 -105 256t105 256q107 107 254 107q148 0 253 -107q105 -106 105 -256t-105 -256zM408 69q112 0 188 85t76 196q0 113 -76 196q-76 85 -188 85t-188 -85q-77 -86 -77 -196t77 -196q76 -85 188 -85zM357 787l125 133
q4 6 9 6q8 0 14 -11l22 -35q8 -13 -4 -23l-87 -78q-14 -11 -29 -11h-47q-21 0 -3 19z" />
    <glyph glyph-name="Ocircumflex" unicode="&#xd4;" horiz-adv-x="814" 
d="M661 94q-105 -107 -253 -107q-147 0 -254 107q-105 106 -105 256t105 256q107 107 254 107q148 0 253 -107q105 -106 105 -256t-105 -256zM408 69q112 0 188 85t76 196q0 113 -76 196q-76 85 -188 85t-188 -85q-77 -86 -77 -196t77 -196q76 -85 188 -85zM265 782l101 145
q14 17 25 17h34q10 0 24 -17l101 -145q12 -18 -7 -18h-35q-18 0 -28 18l-72 110l-73 -110q-11 -18 -27 -18h-36q-18 0 -7 18z" />
    <glyph glyph-name="Otilde" unicode="&#xd5;" horiz-adv-x="814" 
d="M661 94q-105 -107 -253 -107q-147 0 -254 107q-105 106 -105 256t105 256q107 107 254 107q148 0 253 -107q105 -106 105 -256t-105 -256zM408 69q112 0 188 85t76 196q0 113 -76 196q-76 85 -188 85t-188 -85q-77 -86 -77 -196t77 -196q76 -85 188 -85zM249 816l-22 10
q-16 7 -9 25q35 83 106 83q44 0 87 -34q28 -20 39 -25.5t25 -5.5q41 0 57 45q4 13 13 13q5 0 11 -2l23 -10q16 -6 9 -25q-35 -83 -107 -83q-44 0 -85 32q-44 33 -66 33q-39 0 -57 -45q-6 -13 -14 -13z" />
    <glyph glyph-name="Odieresis" unicode="&#xd6;" horiz-adv-x="814" 
d="M661 94q-105 -107 -253 -107q-147 0 -254 107q-105 106 -105 256t105 256q107 107 254 107q148 0 253 -107q105 -106 105 -256t-105 -256zM408 69q112 0 188 85t76 196q0 113 -76 196q-76 85 -188 85t-188 -85q-77 -86 -77 -196t77 -196q76 -85 188 -85zM338 830
q-14 -14 -35 -14t-35 14t-14 35t14 35q14 15 35 15t35 -15q15 -14 15 -35t-15 -35zM500 915q20 0 35 -14.5t15 -35.5t-14.5 -35t-35.5 -14t-35.5 14t-14.5 35t14.5 35.5t35.5 14.5z" />
    <glyph glyph-name="multiply" unicode="&#xd7;" horiz-adv-x="422" 
d="M86 149l-27 27q-15 12 0 24l103 103l-103 103q-13 12 0 25l27 27q7 7 12 7q6 0 13 -7l102 -103l103 103q13 13 25 0l27 -27q14 -11 0 -25l-103 -103l103 -103q14 -14 0 -24l-27 -27q-12 -13 -25 0l-102 103l-103 -103q-7 -7 -13 -7q-5 0 -12 7z" />
    <glyph glyph-name="Oslash" unicode="&#xd8;" horiz-adv-x="814" 
d="M171 -25l39 73q-74 50 -117.5 130.5t-43.5 172.5q0 149 105 255q105 107 253 107q65 0 135 -26l22 42q8 14 22 14h31q25 0 15 -19l-36 -66q70 -49 119 -124q51 -76 51 -184q0 -150 -106 -256q-105 -107 -253 -107q-77 0 -143 32l-25 -48q-8 -14 -22 -14h-31q-26 0 -15 18
zM555 579l-252 -486q53 -24 104 -24q112 0 188 85q77 86 77 196q0 132 -117 229zM252 127l252 484q-55 20 -97 20q-110 0 -188 -85q-77 -87 -76 -196q1 -127 109 -223z" />
    <glyph glyph-name="Ugrave" unicode="&#xd9;" horiz-adv-x="718" 
d="M73 288v395q0 10 3.5 13.5t13.5 3.5h58q18 0 18 -17v-390q0 -111 50.5 -167.5t142.5 -56.5q93 0 143.5 56.5t50.5 167.5v390q0 10 3.5 13.5t13.5 3.5h58q18 0 18 -17v-395q0 -143 -80 -223q-80 -78 -207 -78t-207 78q-79 79 -79 223zM242 880l22 35q6 11 14 11q4 0 9 -6
l125 -133q18 -19 -3 -19h-47q-15 0 -29 11l-87 78q-12 10 -4 23z" />
    <glyph glyph-name="Uacute" unicode="&#xda;" horiz-adv-x="718" 
d="M73 288v395q0 10 3.5 13.5t13.5 3.5h58q18 0 18 -17v-390q0 -111 50.5 -167.5t142.5 -56.5q93 0 143.5 56.5t50.5 167.5v390q0 10 3.5 13.5t13.5 3.5h58q18 0 18 -17v-395q0 -143 -80 -223q-80 -78 -207 -78t-207 78q-79 79 -79 223zM284 787l125 133q5 6 9 6q8 0 14 -11
l22 -35q8 -13 -4 -23l-87 -78q-14 -11 -29 -11h-47q-21 0 -3 19z" />
    <glyph glyph-name="Ucircumflex" unicode="&#xdb;" horiz-adv-x="718" 
d="M73 288v395q0 10 3.5 13.5t13.5 3.5h58q18 0 18 -17v-390q0 -111 50.5 -167.5t142.5 -56.5q93 0 143.5 56.5t50.5 167.5v390q0 10 3.5 13.5t13.5 3.5h58q18 0 18 -17v-395q0 -143 -80 -223q-80 -78 -207 -78t-207 78q-79 79 -79 223zM217 782l101 145q12 17 24 17h34
q12 0 24 -17l102 -145q10 -18 -7 -18h-36q-17 0 -27 18l-73 110l-72 -110q-11 -18 -28 -18h-35q-19 0 -7 18z" />
    <glyph glyph-name="Udieresis" unicode="&#xdc;" horiz-adv-x="718" 
d="M73 288v395q0 10 3.5 13.5t13.5 3.5h58q18 0 18 -17v-390q0 -111 50.5 -167.5t142.5 -56.5q93 0 143.5 56.5t50.5 167.5v390q0 10 3.5 13.5t13.5 3.5h58q18 0 18 -17v-395q0 -143 -80 -223q-80 -78 -207 -78t-207 78q-79 79 -79 223zM297 830q-14 -14 -35 -14t-35 14
t-14 35t14 35q14 15 35 15t35 -15q15 -14 15 -35t-15 -35zM459 915q20 0 35 -14.5t15 -35.5t-14.5 -35t-35.5 -14t-35.5 14t-14.5 35t14.5 35.5t35.5 14.5z" />
    <glyph glyph-name="Yacute" unicode="&#xdd;" horiz-adv-x="634" 
d="M275 18v253l-260 412q-9 17 8 17h68q15 0 24 -17l206 -327l206 327q11 17 24 17h66q19 0 8 -17l-259 -412v-253q0 -18 -18 -18h-55q-11 0 -14.5 4t-3.5 14zM248 787l125 133q5 6 9 6q8 0 14 -11l22 -35q8 -13 -4 -23l-87 -78q-14 -11 -29 -11h-47q-21 0 -3 19z" />
    <glyph glyph-name="Thorn" unicode="&#xde;" horiz-adv-x="640" 
d="M87 18v665q0 10 3.5 13.5t13.5 3.5h53q18 0 18 -17v-109h110q109 0 170 -50.5t61 -149.5t-61 -149.5t-170 -50.5h-110v-156q0 -10 -3.5 -14t-14.5 -4h-53q-17 0 -17 18zM281 496h-106v-242h106q74 0 110.5 28t36.5 92q0 122 -147 122z" />
    <glyph glyph-name="germandbls" unicode="&#xdf;" horiz-adv-x="646" 
d="M85 18v488q0 53 22 92t59 60.5t78.5 31.5t87.5 10q48 0 91 -10t81.5 -31.5t61 -60.5t22.5 -92q0 -99 -109 -145v-1q42 -14 81 -48q53 -41 53 -118q0 -53 -21 -92t-57 -60.5t-78 -31.5t-91 -10h-73q-11 0 -14.5 4t-3.5 14v43q0 11 3.5 14.5t14.5 3.5h67q159 0 159 124
q0 48 -43 82t-109 34h-43q-10 0 -14 3.5t-4 14.5v41q0 18 18 18h31q62 0 100.5 28.5t38.5 73.5q0 123 -162 123q-155 0 -155 -122v-481q0 -18 -17 -18h-57q-11 0 -14.5 4t-3.5 14z" />
    <glyph glyph-name="agrave" unicode="&#xe0;" horiz-adv-x="562" 
d="M425 18l-5 61q-69 -90 -196 -90q-73 0 -126 44q-51 43 -51 122t53.5 120.5t147.5 41.5q78 0 157 -32q0 88 -29.5 123.5t-103.5 35.5q-68 0 -152 -16q-2 -1 -7 -1q-9 0 -14 17l-9 36q-5 17 12 22q72 18 173 18q127 0 172 -56q46 -55 46 -184v-262q0 -18 -17 -18h-33
q-12 0 -18 18zM405 144v76q-83 33 -138 33q-133 0 -133 -98q0 -43 31 -70t86 -27q44 0 86 24.5t68 61.5zM189 689l22 35q6 11 14 11q5 0 9 -6l125 -133q18 -19 -3 -19h-47q-15 0 -29 11l-87 78q-12 10 -4 23z" />
    <glyph glyph-name="aacute" unicode="&#xe1;" horiz-adv-x="562" 
d="M425 18l-5 61q-69 -90 -196 -90q-73 0 -126 44q-51 43 -51 122t53.5 120.5t147.5 41.5q78 0 157 -32q0 88 -29.5 123.5t-103.5 35.5q-68 0 -152 -16q-2 -1 -7 -1q-9 0 -14 17l-9 36q-5 17 12 22q72 18 173 18q127 0 172 -56q46 -55 46 -184v-262q0 -18 -17 -18h-33
q-12 0 -18 18zM405 144v76q-83 33 -138 33q-133 0 -133 -98q0 -43 31 -70t86 -27q44 0 86 24.5t68 61.5zM219 596l125 133q4 6 9 6q8 0 14 -11l22 -35q8 -13 -4 -23l-87 -78q-14 -11 -29 -11h-47q-21 0 -3 19z" />
    <glyph glyph-name="acircumflex" unicode="&#xe2;" horiz-adv-x="562" 
d="M425 18l-5 61q-69 -90 -196 -90q-73 0 -126 44q-51 43 -51 122t53.5 120.5t147.5 41.5q78 0 157 -32q0 88 -29.5 123.5t-103.5 35.5q-68 0 -152 -16q-2 -1 -7 -1q-9 0 -14 17l-9 36q-5 17 12 22q72 18 173 18q127 0 172 -56q46 -55 46 -184v-262q0 -18 -17 -18h-33
q-12 0 -18 18zM405 144v76q-83 33 -138 33q-133 0 -133 -98q0 -43 31 -70t86 -27q44 0 86 24.5t68 61.5zM137 591l101 145q14 17 25 17h34q10 0 24 -17l101 -145q12 -18 -7 -18h-35q-17 0 -28 18l-72 110l-73 -110q-11 -18 -27 -18h-36q-18 0 -7 18z" />
    <glyph glyph-name="atilde" unicode="&#xe3;" horiz-adv-x="562" 
d="M425 18l-5 61q-69 -90 -196 -90q-73 0 -126 44q-51 43 -51 122t53.5 120.5t147.5 41.5q78 0 157 -32q0 88 -29.5 123.5t-103.5 35.5q-68 0 -152 -16q-2 -1 -7 -1q-9 0 -14 17l-9 36q-5 17 12 22q72 18 173 18q127 0 172 -56q46 -55 46 -184v-262q0 -18 -17 -18h-33
q-12 0 -18 18zM405 144v76q-83 33 -138 33q-133 0 -133 -98q0 -43 31 -70t86 -27q44 0 86 24.5t68 61.5zM126 625l-22 10q-16 7 -9 25q35 83 106 83q44 0 87 -34q28 -20 39 -25.5t25 -5.5q40 0 57 45q4 13 13 13q5 0 11 -2l23 -10q16 -6 9 -25q-35 -83 -107 -83
q-44 0 -85 32q-43 33 -66 33q-39 0 -57 -45q-6 -13 -14 -13l-2 1q-1 0 -3.5 0.5t-4.5 0.5z" />
    <glyph glyph-name="adieresis" unicode="&#xe4;" horiz-adv-x="562" 
d="M425 18l-5 61q-69 -90 -196 -90q-73 0 -126 44q-51 43 -51 122t53.5 120.5t147.5 41.5q78 0 157 -32q0 88 -29.5 123.5t-103.5 35.5q-68 0 -152 -16q-2 -1 -7 -1q-9 0 -14 17l-9 36q-5 17 12 22q72 18 173 18q127 0 172 -56q46 -55 46 -184v-262q0 -18 -17 -18h-33
q-12 0 -18 18zM405 144v76q-83 33 -138 33q-133 0 -133 -98q0 -43 31 -70t86 -27q44 0 86 24.5t68 61.5zM210 639q-14 -14 -35 -14t-35 14t-14 35t14 35q14 15 35 15t35 -15q15 -14 15 -35t-15 -35zM372 724q20 0 35 -14.5t15 -35.5t-14.5 -35t-35.5 -14t-35.5 14t-14.5 35
t14.5 35.5t35.5 14.5z" />
    <glyph glyph-name="aring" unicode="&#xe5;" horiz-adv-x="562" 
d="M425 18l-5 61q-69 -90 -196 -90q-73 0 -126 44q-51 43 -51 122t53.5 120.5t147.5 41.5q78 0 157 -32q0 88 -29.5 123.5t-103.5 35.5q-68 0 -152 -16q-2 -1 -7 -1q-9 0 -14 17l-9 36q-5 17 12 22q72 18 173 18q127 0 172 -56q46 -55 46 -184v-262q0 -18 -17 -18h-33
q-12 0 -18 18zM405 144v76q-83 33 -138 33q-133 0 -133 -98q0 -43 31 -70t86 -27q44 0 86 24.5t68 61.5zM282 798q46 0 76.5 -31.5t30.5 -78.5t-30.5 -78.5t-76.5 -31.5q-47 0 -77.5 31.5t-30.5 78.5t30.5 78.5t77.5 31.5zM222 688q0 -27 17 -45.5t43 -18.5t42.5 18.5
t16.5 45.5t-16.5 45.5t-42.5 18.5t-43 -19t-17 -45z" />
    <glyph glyph-name="ae" unicode="&#xe6;" horiz-adv-x="933" 
d="M101 444l-9 36q-5 17 12 22q9 3 72 11q53 7 104 7q67 0 107.5 -17.5t67.5 -59.5q82 77 191 77q119 0 182 -83q64 -82 64 -192v-4q0 -17 -17 -17h-374v-54q18 -44 59.5 -74t90.5 -30q85 0 152 46q12 5 14 5q7 0 11 -6l22 -28q11 -14 2 -23q-33 -33 -89 -52t-117 -19
q-64 0 -116 33q-52 35 -75 77q-37 -43 -97 -76q-61 -34 -134 -34q-76 0 -126 43q-51 44 -51 121q0 80 52.5 122t144.5 42q88 0 167 -32v69q-9 49 -41 69.5t-96 20.5q-68 0 -152 -16q-17 0 -21 16zM127 153q0 -42 30.5 -68.5t84.5 -26.5q45 0 95 26t74 60v76q-85 33 -148 33
q-66 0 -101 -26t-35 -74zM503 356v-72h299q-5 70 -44 115q-39 48 -113 48q-93 0 -142 -91z" />
    <glyph glyph-name="ccedilla" unicode="&#xe7;" horiz-adv-x="538" 
d="M218 -191l12 15q5 5 8 5t9 -3q35 -23 73 -23q45 0 45 41q0 47 -60 47h-41q-13 0 -13 15l18 85q-95 18 -159 89q-63 72 -63 174q0 111 76 188q77 78 186 78q110 0 185 -75q10 -11 -1 -22l-28 -31q-8 -8 -14 -8q-5 0 -10 5q-52 52 -131 52q-74 0 -125 -54t-51 -133
q0 -78 51 -132q51 -53 125 -53q80 0 131 51q6 6 11 6q6 0 13 -9l28 -30q11 -13 1 -23q-75 -74 -183 -75l-7 -52q54 0 83 -24t29 -69q0 -42 -27 -66.5t-75 -24.5q-43 0 -93 38q-11 7 -3 18z" />
    <glyph glyph-name="egrave" unicode="&#xe8;" horiz-adv-x="598" 
d="M540 224h-403q8 -67 59 -112q52 -46 121 -46q81 0 151 46q12 6 14 6q5 0 11 -7l22 -28q11 -14 1 -24q-33 -32 -88.5 -51t-113.5 -19q-113 0 -190 77q-77 79 -77 188q0 111 76 188q77 78 186 78q115 0 181 -80q67 -79 67 -197q0 -11 -3.5 -15t-13.5 -4zM308 447
q-70 0 -118 -49q-46 -50 -51 -114h328q-5 66 -48 114q-43 49 -111 49zM193 689l22 35q6 11 14 11q5 0 10 -6l124 -133q19 -19 -2 -19h-48q-14 0 -28 11l-87 78q-13 11 -5 23z" />
    <glyph glyph-name="eacute" unicode="&#xe9;" horiz-adv-x="598" 
d="M540 224h-403q8 -67 59 -112q52 -46 121 -46q81 0 151 46q12 6 14 6q5 0 11 -7l22 -28q11 -14 1 -24q-33 -32 -88.5 -51t-113.5 -19q-113 0 -190 77q-77 79 -77 188q0 111 76 188q77 78 186 78q115 0 181 -80q67 -79 67 -197q0 -11 -3.5 -15t-13.5 -4zM308 447
q-70 0 -118 -49q-46 -50 -51 -114h328q-5 66 -48 114q-43 49 -111 49zM252 596l125 133q5 6 9 6q8 0 14 -11l22 -35q8 -13 -4 -23l-87 -78q-14 -11 -29 -11h-47q-21 0 -3 19z" />
    <glyph glyph-name="ecircumflex" unicode="&#xea;" horiz-adv-x="598" 
d="M540 224h-403q8 -67 59 -112q52 -46 121 -46q81 0 151 46q12 6 14 6q5 0 11 -7l22 -28q11 -14 1 -24q-33 -32 -88.5 -51t-113.5 -19q-113 0 -190 77q-77 79 -77 188q0 111 76 188q77 78 186 78q115 0 181 -80q67 -79 67 -197q0 -11 -3.5 -15t-13.5 -4zM308 447
q-70 0 -118 -49q-46 -50 -51 -114h328q-5 66 -48 114q-43 49 -111 49zM171 591l101 145q12 17 24 17h34q12 0 24 -17l102 -145q11 -18 -7 -18h-36q-17 0 -27 18l-73 110l-72 -110q-11 -18 -28 -18h-35q-19 0 -7 18z" />
    <glyph glyph-name="edieresis" unicode="&#xeb;" horiz-adv-x="598" 
d="M540 224h-403q8 -67 59 -112q52 -46 121 -46q81 0 151 46q12 6 14 6q5 0 11 -7l22 -28q11 -14 1 -24q-33 -32 -88.5 -51t-113.5 -19q-113 0 -190 77q-77 79 -77 188q0 111 76 188q77 78 186 78q115 0 181 -80q67 -79 67 -197q0 -11 -3.5 -15t-13.5 -4zM308 447
q-70 0 -118 -49q-46 -50 -51 -114h328q-5 66 -48 114q-43 49 -111 49zM244 639q-14 -14 -35 -14t-35 14t-14 35t14 35q14 15 35 15t35 -15q15 -14 15 -35t-15 -35zM406 724q20 0 35 -14.5t15 -35.5t-14.5 -35t-35.5 -14t-35.5 14t-14.5 35t14.5 35.5t35.5 14.5z" />
    <glyph glyph-name="igrave" unicode="&#xec;" horiz-adv-x="295" 
d="M175 0h-53q-18 0 -18 18v474q0 17 18 17h53q10 0 13.5 -3.5t3.5 -13.5v-474q0 -18 -17 -18zM19 689l22 35q6 11 14 11q5 0 10 -6l124 -133q19 -19 -2 -19h-48q-14 0 -28 11l-87 78q-13 11 -5 23z" />
    <glyph glyph-name="iacute" unicode="&#xed;" horiz-adv-x="292" 
d="M172 0h-53q-11 0 -14.5 4t-3.5 14v474q0 17 18 17h53q10 0 13.5 -3.5t3.5 -13.5v-474q0 -18 -17 -18zM103 596l125 133q4 6 9 6q8 0 14 -11l22 -35q8 -13 -4 -23l-87 -78q-14 -11 -29 -11h-47q-21 0 -3 19z" />
    <glyph glyph-name="icircumflex" unicode="&#xee;" horiz-adv-x="292" 
d="M173 0h-53q-18 0 -18 18v474q0 17 18 17h53q10 0 13.5 -3.5t3.5 -13.5v-474q0 -18 -17 -18zM4 591l101 145q12 17 24 17h34q12 0 24 -17l102 -145q10 -18 -7 -18h-36q-16 0 -27 18l-73 110l-72 -110q-11 -18 -28 -18h-35q-19 0 -7 18z" />
    <glyph glyph-name="idieresis" unicode="&#xef;" horiz-adv-x="292" 
d="M173 0h-53q-18 0 -18 18v474q0 17 18 17h53q10 0 13.5 -3.5t3.5 -13.5v-474q0 -18 -17 -18zM84 639q-14 -14 -35 -14t-36 14q-14 14 -14 35t14 35q15 15 36 15t35 -15q15 -14 15 -35t-15 -35zM246 724q20 0 35 -14.5t15 -35.5t-14.5 -35t-35.5 -14t-35.5 14t-14.5 35
t14.5 35.5t35.5 14.5z" />
    <glyph glyph-name="eth" unicode="&#xf0;" 
d="M290 554l-8 7q-14 11 0 24l39 42q-37 21 -87 30q-17 1 -17 18v46q0 20 17 20q85 -14 146 -48l55 60q9 9 13 9q5 0 11 -6l8 -8q12 -12 1 -24l-51 -56q139 -106 139 -385q0 -129 -76 -211q-77 -83 -192 -83q-108 0 -187 77q-77 79 -77 188t71 186q72 78 175 78
q64 0 113 -28.5t76 -77.5q-18 128 -101 191l-43 -47q-13 -13 -25 -2zM288 441q-74 0 -125 -54t-51 -133q0 -78 51 -133q53 -54 125 -54q73 0 124 54q52 55 52 133q0 79 -52 132q-51 55 -124 55z" />
    <glyph glyph-name="ntilde" unicode="&#xf1;" 
d="M95 18v474q0 17 17 17h29q11 0 19 -17l10 -81q64 109 168 109q90 0 143 -57t53 -170v-275q0 -18 -17 -18h-54q-17 0 -17 18v254q0 82 -34.5 125.5t-95.5 43.5q-60 0 -96.5 -49t-36.5 -126v-248q0 -18 -17 -18h-54q-17 0 -17 18zM158 625l-22 10q-16 7 -9 25q35 83 106 83
q44 0 87 -34q28 -20 39 -25.5t25 -5.5q40 0 57 45q4 13 13 13q5 0 11 -2l23 -10q16 -6 9 -25q-35 -83 -107 -83q-44 0 -85 32q-43 33 -66 33q-39 0 -57 -45q-6 -13 -14 -13l-2 1q-1 0 -3.5 0.5t-4.5 0.5z" />
    <glyph glyph-name="ograve" unicode="&#xf2;" horiz-adv-x="620" 
d="M496 66q-77 -77 -186 -77t-186 77q-77 79 -77 188t77 188q76 78 186 78t186 -78q78 -78 78 -188t-78 -188zM486 254q0 79 -51 133t-125 54q-73 0 -125 -55q-51 -54 -51 -132t51 -133q53 -54 125 -54q73 0 124 54q52 55 52 133zM198 689l22 35q6 11 14 11q6 0 10 -6
l124 -133q19 -19 -2 -19h-48q-14 0 -28 11l-87 78q-13 11 -5 23z" />
    <glyph glyph-name="oacute" unicode="&#xf3;" horiz-adv-x="620" 
d="M496 66q-77 -77 -186 -77t-186 77q-77 79 -77 188t77 188q76 78 186 78t186 -78q78 -78 78 -188t-78 -188zM486 254q0 79 -51 133t-125 54q-73 0 -125 -55q-51 -54 -51 -132t51 -133q53 -54 125 -54q73 0 124 54q52 55 52 133zM249 596l125 133q4 6 9 6q8 0 14 -11
l22 -35q8 -13 -4 -23l-87 -78q-14 -11 -29 -11h-47q-21 0 -3 19z" />
    <glyph glyph-name="ocircumflex" unicode="&#xf4;" horiz-adv-x="620" 
d="M496 66q-77 -77 -186 -77t-186 77q-77 79 -77 188t77 188q76 78 186 78t186 -78q78 -78 78 -188t-78 -188zM486 254q0 79 -51 133t-125 54q-73 0 -125 -55q-51 -54 -51 -132t51 -133q53 -54 125 -54q73 0 124 54q52 55 52 133zM168 591l101 145q12 17 24 17h34
q12 0 24 -17l102 -145q10 -18 -7 -18h-36q-16 0 -27 18l-73 110l-72 -110q-10 -18 -28 -18h-35q-19 0 -7 18z" />
    <glyph glyph-name="otilde" unicode="&#xf5;" horiz-adv-x="620" 
d="M496 66q-77 -77 -186 -77t-186 77q-77 79 -77 188t77 188q76 78 186 78t186 -78q78 -78 78 -188t-78 -188zM486 254q0 79 -51 133t-125 54q-73 0 -125 -55q-51 -54 -51 -132t51 -133q53 -54 125 -54q73 0 124 54q52 55 52 133zM157 625l-23 10q-16 7 -9 25q35 83 107 83
q44 0 87 -34q26 -19 37.5 -25t26.5 -6q37 0 57 45q4 13 13 13q5 0 11 -2l22 -10q18 -6 9 -25q-35 -83 -106 -83q-45 0 -86 32q-43 33 -65 33q-39 0 -57 -45q-6 -13 -14 -13l-1 1q-2 0 -4.5 0.5t-4.5 0.5z" />
    <glyph glyph-name="odieresis" unicode="&#xf6;" horiz-adv-x="620" 
d="M496 66q-77 -77 -186 -77t-186 77q-77 79 -77 188t77 188q76 78 186 78t186 -78q78 -78 78 -188t-78 -188zM486 254q0 79 -51 133t-125 54q-73 0 -125 -55q-51 -54 -51 -132t51 -133q53 -54 125 -54q73 0 124 54q52 55 52 133zM212 724q20 0 35 -14.5t15 -35.5t-14.5 -35
t-35.5 -14t-35.5 14t-14.5 35t14.5 35.5t35.5 14.5zM443 639q-14 -14 -35 -14t-35 14t-14 35t14 35q14 15 35 15t35 -15q15 -14 15 -35t-15 -35z" />
    <glyph glyph-name="divide" unicode="&#xf7;" horiz-adv-x="544" 
d="M272 61q-22 -2 -37 14.5t-15 37.5t15 38q24 24 57 11t33 -49q0 -22 -15 -37t-38 -15zM309 457q-15 -15 -37 -15t-37 15t-15 37t15 37q15 16 37 16t37 -16q16 -15 16 -37t-16 -37zM35 291v30q0 11 3.5 14.5t14.5 3.5h441q10 0 13.5 -3.5t3.5 -13.5v-31q0 -10 -3.5 -13.5
t-13.5 -3.5h-441q-18 0 -18 17z" />
    <glyph glyph-name="oslash" unicode="&#xf8;" horiz-adv-x="617" 
d="M124 -27l32 64q-51 36 -81.5 94t-30.5 123q0 109 77 188q77 78 186 78q49 0 91 -17l20 36q8 15 24 15h30q23 0 14 -18l-33 -61q55 -37 86.5 -95t31.5 -126q0 -110 -78 -188q-77 -77 -186 -77q-50 0 -97 19l-18 -37q-7 -16 -24 -16h-29q-24 0 -15 18zM413 398l-166 -317
q26 -14 60 -14q73 0 124 54q52 55 52 133q0 83 -70 144zM196 114l164 317q-29 10 -53 10q-73 0 -125 -55q-51 -54 -51 -132q0 -75 65 -140z" />
    <glyph glyph-name="ugrave" unicode="&#xf9;" 
d="M70 216v276q0 10 3.5 13.5t13.5 3.5h54q10 0 13.5 -3.5t3.5 -13.5v-254q0 -83 34.5 -126t96.5 -43q59 0 95.5 49t36.5 125v249q0 10 3.5 13.5t13.5 3.5h54q10 0 13.5 -3.5t3.5 -13.5v-474q0 -18 -17 -18h-28q-12 0 -20 18l-10 81q-66 -110 -167 -110q-91 0 -144 57
t-53 170zM170 689l22 35q6 11 14 11q4 0 9 -6l125 -133q18 -19 -3 -19h-47q-15 0 -29 11l-87 78q-12 10 -4 23z" />
    <glyph glyph-name="uacute" unicode="&#xfa;" 
d="M70 216v276q0 10 3.5 13.5t13.5 3.5h54q10 0 13.5 -3.5t3.5 -13.5v-254q0 -83 34.5 -126t96.5 -43q59 0 95.5 49t36.5 125v249q0 10 3.5 13.5t13.5 3.5h54q10 0 13.5 -3.5t3.5 -13.5v-474q0 -18 -17 -18h-28q-12 0 -20 18l-10 81q-66 -110 -167 -110q-91 0 -144 57
t-53 170zM228 596l125 133q5 6 9 6q8 0 14 -11l22 -35q8 -13 -4 -23l-87 -78q-14 -11 -29 -11h-47q-21 0 -3 19z" />
    <glyph glyph-name="ucircumflex" unicode="&#xfb;" 
d="M70 216v276q0 10 3.5 13.5t13.5 3.5h54q10 0 13.5 -3.5t3.5 -13.5v-254q0 -83 34.5 -126t96.5 -43q59 0 95.5 49t36.5 125v249q0 10 3.5 13.5t13.5 3.5h54q10 0 13.5 -3.5t3.5 -13.5v-474q0 -18 -17 -18h-28q-12 0 -20 18l-10 81q-66 -110 -167 -110q-91 0 -144 57
t-53 170zM150 591l101 145q14 17 25 17h34q10 0 24 -17l101 -145q12 -18 -7 -18h-35q-17 0 -28 18l-72 110l-73 -110q-10 -18 -27 -18h-36q-17 0 -7 18z" />
    <glyph glyph-name="udieresis" unicode="&#xfc;" 
d="M70 216v276q0 10 3.5 13.5t13.5 3.5h54q10 0 13.5 -3.5t3.5 -13.5v-254q0 -83 34.5 -126t96.5 -43q59 0 95.5 49t36.5 125v249q0 10 3.5 13.5t13.5 3.5h54q10 0 13.5 -3.5t3.5 -13.5v-474q0 -18 -17 -18h-28q-12 0 -20 18l-10 81q-66 -110 -167 -110q-91 0 -144 57
t-53 170zM228 639q-14 -14 -35 -14t-35 14t-14 35t14 35q14 15 35 15t35 -15q15 -14 15 -35t-15 -35zM390 724q20 0 35 -14.5t15 -35.5t-14.5 -35t-35.5 -14t-35.5 14t-14.5 35t14.5 35.5t35.5 14.5z" />
    <glyph glyph-name="yacute" unicode="&#xfd;" horiz-adv-x="522" 
d="M117 -187l98 220l-206 459q-8 17 8 17h62q15 0 23 -17l159 -360h1l158 360q8 17 23 17h61q18 0 9 -17l-303 -679q-8 -17 -23 -17h-61q-18 0 -9 17zM193 596l125 133q4 6 9 6q8 0 14 -11l22 -35q8 -13 -4 -23l-87 -78q-14 -11 -29 -11h-47q-21 0 -3 19z" />
    <glyph glyph-name="thorn" unicode="&#xfe;" horiz-adv-x="649" 
d="M90 -187v895q0 18 17 18h55q16 0 16 -18v-300q13 27 51 64q50 48 128 48q101 0 166 -77t65 -188q0 -112 -65 -189t-166 -77q-49 0 -92 23q-62 34 -87 86v-285q0 -10 -3.5 -13.5t-13.5 -3.5h-54q-17 0 -17 17zM339 69q71 0 116 54q46 55 46 132q0 81 -45 133
q-45 54 -117 54q-69 0 -116 -56q-45 -56 -45 -131t45 -131q46 -55 116 -55z" />
    <glyph glyph-name="ydieresis" unicode="&#xff;" horiz-adv-x="522" 
d="M117 -187l98 220l-206 459q-8 17 8 17h62q15 0 23 -17l159 -360h1l158 360q8 17 23 17h61q18 0 9 -17l-303 -679q-8 -17 -23 -17h-61q-18 0 -9 17zM196 639q-14 -14 -35 -14t-35 14t-14 35t14 35q14 15 35 15t35 -15q15 -14 15 -35t-15 -35zM358 724q20 0 35 -14.5
t15 -35.5t-14.5 -35t-35.5 -14t-35.5 14t-14.5 35t14.5 35.5t35.5 14.5z" />
    <glyph glyph-name="Amacron" unicode="&#x100;" horiz-adv-x="719" 
d="M15 18l330 683q3 3 5 7.5t3.5 6.5t5.5 2h3q5 0 14 -16l331 -683q3 -7 -0.5 -12.5t-10.5 -5.5h-70q-14 0 -23 18l-73 159h-338l-74 -159q-9 -18 -23 -18h-70q-7 0 -10 5.5t0 12.5zM360 557l-136 -300h274l-136 300h-2zM223 857v29q0 10 3.5 14t14.5 4h242q10 0 13.5 -3.5
t3.5 -13.5v-31q0 -10 -3.5 -13.5t-13.5 -3.5h-242q-11 0 -14.5 3.5t-3.5 14.5z" />
    <glyph glyph-name="amacron" unicode="&#x101;" horiz-adv-x="562" 
d="M425 18l-5 61q-69 -90 -196 -90q-73 0 -126 44q-51 43 -51 122t53.5 120.5t147.5 41.5q78 0 157 -32q0 88 -29.5 123.5t-103.5 35.5q-68 0 -152 -16q-2 -1 -7 -1q-9 0 -14 17l-9 36q-5 17 12 22q72 18 173 18q127 0 172 -56q46 -55 46 -184v-262q0 -18 -17 -18h-33
q-12 0 -18 18zM405 144v76q-83 33 -138 33q-133 0 -133 -98q0 -43 31 -70t86 -27q44 0 86 24.5t68 61.5zM144 666v29q0 11 4 14.5t14 3.5h242q10 0 13.5 -3.5t3.5 -13.5v-31q0 -10 -3.5 -13.5t-13.5 -3.5h-242q-18 0 -18 18z" />
    <glyph glyph-name="Abreve" unicode="&#x102;" horiz-adv-x="719" 
d="M15 18l330 683q3 3 5 7.5t3.5 6.5t5.5 2h3q5 0 14 -16l331 -683q3 -7 -0.5 -12.5t-10.5 -5.5h-70q-14 0 -23 18l-73 159h-338l-74 -159q-9 -18 -23 -18h-70q-7 0 -10 5.5t0 12.5zM360 557l-136 -300h274l-136 300h-2zM221 918l29 15q4 2 8 2q7 0 11 -10q15 -36 35 -50
t57 -14q38 0 57.5 14t35.5 50q4 10 11 10q4 0 8 -2l29 -15q14 -8 3 -27q-38 -89 -144 -89q-105 0 -143 89q-10 19 3 27z" />
    <glyph glyph-name="abreve" unicode="&#x103;" horiz-adv-x="562" 
d="M425 18l-5 61q-69 -90 -196 -90q-73 0 -126 44q-51 43 -51 122t53.5 120.5t147.5 41.5q78 0 157 -32q0 88 -29.5 123.5t-103.5 35.5q-68 0 -152 -16q-2 -1 -7 -1q-9 0 -14 17l-9 36q-5 17 12 22q72 18 173 18q127 0 172 -56q46 -55 46 -184v-262q0 -18 -17 -18h-33
q-12 0 -18 18zM405 144v76q-83 33 -138 33q-133 0 -133 -98q0 -43 31 -70t86 -27q44 0 86 24.5t68 61.5zM144 727l28 15q4 2 8 2q8 0 12 -10q15 -36 35 -50t57 -14t57 14t35 50q4 10 12 10q4 0 8 -2l28 -15q13 -6 4 -27q-38 -89 -144 -89t-144 89q-9 21 4 27z" />
    <glyph glyph-name="Aogonek" unicode="&#x104;" horiz-adv-x="719" 
d="M95 0h-70q-7 0 -10 5.5t0 12.5l330 683q3 3 5 7.5t3.5 6.5t5.5 2h3q5 0 14 -16l331 -683q3 -7 -0.5 -12.5t-10.5 -5.5h-12q-44 -8 -70.5 -30.5t-26.5 -53.5q0 -30 18.5 -46.5t51.5 -16.5q2 0 7 0.5t7 0.5q10 0 14 -3t4 -12v-28q0 -15 -18 -17q-5 -1 -23 -1
q-126 0 -126 109q0 73 84 110l-76 165h-338l-74 -159q-9 -18 -23 -18zM360 557l-136 -300h274l-136 300h-2z" />
    <glyph glyph-name="aogonek" unicode="&#x105;" horiz-adv-x="559" 
d="M489 -161v-28q0 -15 -18 -17q-5 -1 -23 -1q-126 0 -126 109q0 80 112 114l-7 63q-69 -90 -196 -90q-73 0 -126 44q-51 43 -51 122t54 120.5t147 41.5q79 0 158 -32q0 88 -29.5 123.5t-104.5 35.5q-68 0 -151 -16q-2 -1 -7 -1q-11 0 -14 17l-9 36q-5 17 12 22
q72 18 173 18q127 0 172 -56q46 -55 46 -184v-262q0 -18 -17 -18q-44 -8 -70.5 -30.5t-26.5 -53.5q0 -30 18.5 -46.5t51.5 -16.5q2 0 7 0.5t7 0.5q10 0 14 -3t4 -12zM413 144v76q-85 33 -138 33q-133 0 -133 -98q0 -43 31 -70t86 -27q43 0 85 24t69 62z" />
    <glyph glyph-name="Cacute" unicode="&#x106;" horiz-adv-x="725" 
d="M629 154l35 -38q12 -14 0 -26q-48 -47 -118.5 -75t-143.5 -28q-148 0 -253 107q-105 106 -105 256t105 256q105 107 253 107q73 0 143.5 -27.5t118.5 -75.5q11 -11 -1 -24l-35 -39q-13 -13 -25 -1q-79 85 -201 85q-112 0 -188 -85t-76 -196t76 -196t188 -85q120 0 203 87
q6 6 11 6q7 0 13 -8zM313 787l125 133q4 6 9 6q8 0 14 -11l22 -35q8 -13 -4 -23l-87 -78q-14 -11 -29 -11h-47q-21 0 -3 19z" />
    <glyph glyph-name="cacute" unicode="&#x107;" horiz-adv-x="527" 
d="M462 117l28 -30q10 -13 1 -23q-77 -75 -185 -75q-109 0 -186 77q-76 77 -76 188t76 188q76 78 186 78t185 -75q11 -11 -1 -22l-28 -31q-8 -8 -14 -8q-5 0 -10 5q-52 52 -131 52q-74 0 -125 -54t-51 -133q0 -78 51 -132q51 -53 125 -53q80 0 131 51q11 11 24 -3zM244 596
l125 133q5 6 9 6q8 0 14 -11l22 -35q8 -13 -4 -23l-87 -78q-14 -11 -29 -11h-47q-21 0 -3 19z" />
    <glyph glyph-name="Ccircumflex" unicode="&#x108;" horiz-adv-x="725" 
d="M629 154l35 -38q12 -14 0 -26q-48 -47 -118.5 -75t-143.5 -28q-148 0 -253 107q-105 106 -105 256t105 256q105 107 253 107q73 0 143.5 -27.5t118.5 -75.5q11 -11 -1 -24l-35 -39q-13 -13 -25 -1q-79 85 -201 85q-112 0 -188 -85t-76 -196t76 -196t188 -85q120 0 203 87
q6 6 11 6q7 0 13 -8zM258 782l101 145q12 17 24 17h34q12 0 24 -17l102 -145q10 -18 -7 -18h-36q-16 0 -27 18l-73 110l-72 -110q-10 -18 -28 -18h-35q-19 0 -7 18z" />
    <glyph glyph-name="ccircumflex" unicode="&#x109;" horiz-adv-x="527" 
d="M462 117l28 -30q10 -13 1 -23q-77 -75 -185 -75q-109 0 -186 77q-76 77 -76 188t76 188q76 78 186 78t185 -75q11 -11 -1 -22l-28 -31q-8 -8 -14 -8q-5 0 -10 5q-52 52 -131 52q-74 0 -125 -54t-51 -133q0 -78 51 -132q51 -53 125 -53q80 0 131 51q11 11 24 -3zM155 591
l101 145q12 17 24 17h34q12 0 24 -17l102 -145q10 -18 -7 -18h-36q-17 0 -27 18l-73 110l-72 -110q-11 -18 -28 -18h-35q-19 0 -7 18z" />
    <glyph glyph-name="Cdotaccent" unicode="&#x10a;" horiz-adv-x="725" 
d="M629 154l35 -38q12 -14 0 -26q-48 -47 -118.5 -75t-143.5 -28q-148 0 -253 107q-105 106 -105 256t105 256q105 107 253 107q73 0 143.5 -27.5t118.5 -75.5q11 -11 -1 -24l-35 -39q-13 -13 -25 -1q-79 85 -201 85q-112 0 -188 -85t-76 -196t76 -196t188 -85q120 0 203 87
q6 6 11 6q7 0 13 -8zM397 807q-25 0 -41.5 16.5t-16.5 41.5q0 24 16.5 41t41.5 17q24 0 41 -17t17 -41q0 -25 -17 -41.5t-41 -16.5z" />
    <glyph glyph-name="cdotaccent" unicode="&#x10b;" horiz-adv-x="527" 
d="M462 117l28 -30q10 -13 1 -23q-77 -75 -185 -75q-109 0 -186 77q-76 77 -76 188t76 188q76 78 186 78t185 -75q11 -11 -1 -22l-28 -31q-8 -8 -14 -8q-5 0 -10 5q-52 52 -131 52q-74 0 -125 -54t-51 -133q0 -78 51 -132q51 -53 125 -53q80 0 131 51q11 11 24 -3zM302 616
q-25 0 -41.5 16.5t-16.5 41.5q0 24 16.5 41t41.5 17q24 0 41 -17t17 -41q0 -25 -17 -41.5t-41 -16.5z" />
    <glyph glyph-name="Ccaron" unicode="&#x10c;" horiz-adv-x="725" 
d="M629 154l35 -38q12 -14 0 -26q-48 -47 -118.5 -75t-143.5 -28q-148 0 -253 107q-105 106 -105 256t105 256q105 107 253 107q73 0 143.5 -27.5t118.5 -75.5q11 -11 -1 -24l-35 -39q-13 -13 -25 -1q-79 85 -201 85q-112 0 -188 -85t-76 -196t76 -196t188 -85q120 0 203 87
q6 6 11 6q7 0 13 -8zM352 782l-101 145q-12 17 7 17h35q17 0 28 -17l72 -111l73 111q11 17 27 17h36q18 0 7 -17l-102 -145q-10 -16 -24 -18h-34q-14 2 -24 18z" />
    <glyph glyph-name="ccaron" unicode="&#x10d;" horiz-adv-x="527" 
d="M462 117l28 -30q10 -13 1 -23q-77 -75 -185 -75q-109 0 -186 77q-76 77 -76 188t76 188q76 78 186 78t185 -75q11 -11 -1 -22l-28 -31q-8 -8 -14 -8q-5 0 -10 5q-52 52 -131 52q-74 0 -125 -54t-51 -133q0 -78 51 -132q51 -53 125 -53q80 0 131 51q11 11 24 -3zM255 591
l-101 145q-12 17 7 17h35q17 0 28 -17l72 -111l73 111q11 17 27 17h36q18 0 7 -17l-102 -145q-11 -17 -24 -18h-34q-13 1 -24 18z" />
    <glyph glyph-name="Dcaron" unicode="&#x10e;" horiz-adv-x="753" 
d="M92 18v665q0 10 3.5 13.5t13.5 3.5h248q147 0 248 -101t101 -249q0 -149 -101 -250q-100 -100 -248 -100h-248q-17 0 -17 18zM185 621v-542h171q113 0 184 80q72 79 72 191q0 111 -71 191t-185 80h-171zM306 782l-101 145q-11 17 7 17h36q16 0 27 -17l73 -111l72 111
q11 17 28 17h35q19 0 7 -17l-101 -145q-12 -16 -24 -18h-34q-13 1 -25 18z" />
    <glyph glyph-name="dcaron" unicode="&#x10f;" horiz-adv-x="706" 
d="M481 18l-10 83q-27 -37 -64 -70q-50 -42 -129 -42q-102 0 -167 77q-64 77 -64 189t64 188q65 77 167 77q80 0 127 -45q40 -36 52 -64v310q0 10 3.5 13.5t13.5 3.5h54q17 0 17 -17v-703q0 -18 -17 -18h-28q-12 0 -19 18zM134 255q0 -80 45 -134t117 -54q70 0 115 56
q46 56 46 131q0 76 -46 131q-45 56 -115 56q-71 0 -117 -55q-45 -54 -45 -131zM617 480l-16 25q-4 7 4 12q78 49 78 110h-7q-24 0 -40 16.5t-16 40.5t16.5 41t40.5 17q27 0 44 -19.5t17 -52.5q0 -70 -26 -113.5t-83 -77.5l-6 -2q-3 0 -6 3z" />
    <glyph glyph-name="Dcroat" unicode="&#x110;" horiz-adv-x="794" 
d="M131 18v299h-101q-10 0 -13.5 3.5t-3.5 13.5v42q0 10 3.5 13.5t13.5 3.5h101v290q0 17 18 17h247q148 0 249 -101t101 -249q0 -149 -101 -250q-100 -100 -249 -100h-247q-18 0 -18 18zM224 317v-238h171q114 0 185 80q72 79 72 191t-72 191q-71 80 -185 80h-171v-228h159
q18 0 18 -17v-42q0 -17 -18 -17h-159z" />
    <glyph glyph-name="dslash" unicode="&#x111;" horiz-adv-x="636" 
d="M480 18l-10 83q-27 -37 -64 -70q-50 -42 -129 -42q-101 0 -166 77q-64 77 -64 189t64 188q65 77 166 77q80 0 127 -45q40 -36 52 -64v157h-101q-10 0 -13.5 3.5t-3.5 13.5v27q0 17 17 17h101v77q0 10 3.5 13.5t13.5 3.5h54q10 0 13.5 -3.5t3.5 -13.5v-77h46q17 0 17 -17
v-27q0 -10 -3.5 -13.5t-13.5 -3.5h-46v-550q0 -18 -17 -18h-27q-12 0 -20 18zM134 255q0 -79 44 -134q45 -54 117 -54q71 0 116 56q46 56 46 131q0 76 -46 131q-45 56 -116 56t-116 -55q-45 -54 -45 -131z" />
    <glyph glyph-name="Emacron" unicode="&#x112;" horiz-adv-x="635" 
d="M88 18v665q0 17 18 17h446q18 0 18 -17v-46q0 -17 -18 -17h-371v-226h355q17 0 17 -18v-45q0 -18 -17 -18h-355v-232h371q10 0 14 -3.5t4 -14.5v-45q0 -18 -18 -18h-446q-18 0 -18 18zM190 861v29q0 18 18 18h242q10 0 13.5 -3.5t3.5 -13.5v-31q0 -10 -3.5 -13.5
t-13.5 -3.5h-242q-10 0 -14 3.5t-4 14.5z" />
    <glyph glyph-name="emacron" unicode="&#x113;" horiz-adv-x="598" 
d="M540 224h-403q8 -67 59 -112q52 -46 121 -46q81 0 151 46q12 6 14 6q5 0 11 -7l22 -28q11 -14 1 -24q-33 -32 -88.5 -51t-113.5 -19q-113 0 -190 77q-77 79 -77 188q0 111 76 188q77 78 186 78q115 0 181 -80q67 -79 67 -197q0 -11 -3.5 -15t-13.5 -4zM308 447
q-70 0 -118 -49q-46 -50 -51 -114h328q-5 66 -48 114q-43 49 -111 49zM171 666v29q0 11 3.5 14.5t14.5 3.5h242q10 0 13.5 -3.5t3.5 -13.5v-31q0 -10 -3.5 -13.5t-13.5 -3.5h-242q-11 0 -14.5 4t-3.5 14z" />
    <glyph glyph-name="Ebreve" unicode="&#x114;" horiz-adv-x="635" 
d="M88 18v665q0 17 18 17h446q18 0 18 -17v-46q0 -17 -18 -17h-371v-226h355q17 0 17 -18v-45q0 -18 -17 -18h-355v-232h371q10 0 14 -3.5t4 -14.5v-45q0 -18 -18 -18h-446q-18 0 -18 18zM189 918l28 15q4 2 8 2q8 0 12 -10q15 -36 35 -50t57 -14t57 14t35 50q4 10 12 10
q4 0 8 -2l28 -15q13 -6 4 -27q-38 -89 -144 -89t-144 89q-9 21 4 27z" />
    <glyph glyph-name="ebreve" unicode="&#x115;" horiz-adv-x="598" 
d="M540 224h-403q8 -67 59 -112q52 -46 121 -46q81 0 151 46q12 6 14 6q5 0 11 -7l22 -28q11 -14 1 -24q-33 -32 -88.5 -51t-113.5 -19q-113 0 -190 77q-77 79 -77 188q0 111 76 188q77 78 186 78q115 0 181 -80q67 -79 67 -197q0 -11 -3.5 -15t-13.5 -4zM308 447
q-70 0 -118 -49q-46 -50 -51 -114h328q-5 66 -48 114q-43 49 -111 49zM167 727l29 15q4 2 8 2q7 0 11 -10q15 -36 35 -50t57 -14q38 0 57.5 14t35.5 50q4 10 11 10q4 0 8 -2l29 -15q14 -7 3 -27q-38 -89 -144 -89q-105 0 -143 89q-10 20 3 27z" />
    <glyph glyph-name="Edotaccent" unicode="&#x116;" horiz-adv-x="635" 
d="M88 18v665q0 17 18 17h446q18 0 18 -17v-46q0 -17 -18 -17h-371v-226h355q17 0 17 -18v-45q0 -18 -17 -18h-355v-232h371q10 0 14 -3.5t4 -14.5v-45q0 -18 -18 -18h-446q-18 0 -18 18zM336 807q-25 0 -41.5 16.5t-16.5 41.5q0 24 16.5 41t41.5 17q24 0 41 -17t17 -41
q0 -25 -17 -41.5t-41 -16.5z" />
    <glyph glyph-name="edotaccent" unicode="&#x117;" horiz-adv-x="598" 
d="M540 224h-403q8 -67 59 -112q52 -46 121 -46q81 0 151 46q12 6 14 6q5 0 11 -7l22 -28q11 -14 1 -24q-33 -32 -88.5 -51t-113.5 -19q-113 0 -190 77q-77 79 -77 188q0 111 76 188q77 78 186 78q115 0 181 -80q67 -79 67 -197q0 -11 -3.5 -15t-13.5 -4zM308 447
q-70 0 -118 -49q-46 -50 -51 -114h328q-5 66 -48 114q-43 49 -111 49zM306 616q-25 0 -41.5 16.5t-16.5 41.5q0 24 16.5 41t41.5 17q24 0 41 -17t17 -41q0 -25 -17 -41.5t-41 -16.5z" />
    <glyph glyph-name="Eogonek" unicode="&#x118;" horiz-adv-x="633" 
d="M93 18v665q0 10 3.5 13.5t13.5 3.5h447q10 0 13.5 -3.5t3.5 -13.5v-46q0 -10 -3.5 -13.5t-13.5 -3.5h-371v-226h354q18 0 18 -18v-45q0 -11 -4 -14.5t-14 -3.5h-354v-232h371q17 0 17 -18v-45q0 -18 -17 -18q-44 -8 -70.5 -30.5t-26.5 -53.5q0 -30 18.5 -46.5t51.5 -16.5
q2 0 7 0.5t7 0.5q10 0 14 -3t4 -12v-28q0 -15 -18 -17q-5 -1 -23 -1q-126 0 -126 109q0 60 62 98h-347q-17 0 -17 18z" />
    <glyph glyph-name="eogonek" unicode="&#x119;" horiz-adv-x="598" 
d="M446 -161v-28q0 -15 -18 -17q-5 -1 -23 -1q-126 0 -126 109q0 53 46 87q-116 0 -198 74q-80 75 -80 191q0 111 76 188q77 78 186 78q115 0 181 -80q67 -79 67 -197q0 -11 -3.5 -15t-13.5 -4h-403q8 -67 59 -112q52 -46 121 -46q81 0 151 46q12 6 14 6q5 0 11 -7l22 -28
q11 -14 1 -24q-34 -35 -96 -54q-76 -31 -76 -89q0 -30 18.5 -46.5t51.5 -16.5q2 0 7.5 0.5t6.5 0.5q10 0 14 -3t4 -12zM139 284h328q-5 66 -48 114q-43 49 -111 49q-70 0 -118 -49q-46 -50 -51 -114z" />
    <glyph glyph-name="Ecaron" unicode="&#x11a;" horiz-adv-x="640" 
d="M88 18v665q0 17 18 17h446q18 0 18 -17v-46q0 -17 -18 -17h-371v-226h355q17 0 17 -18v-45q0 -18 -17 -18h-355v-232h371q10 0 14 -3.5t4 -14.5v-45q0 -18 -18 -18h-446q-18 0 -18 18zM287 782l-101 145q-12 17 7 17h35q17 0 28 -17l72 -111l73 111q11 17 27 17h36
q18 0 7 -17l-102 -145q-11 -16 -24 -18h-34q-13 2 -24 18z" />
    <glyph glyph-name="ecaron" unicode="&#x11b;" horiz-adv-x="598" 
d="M540 224h-403q8 -67 59 -112q52 -46 121 -46q81 0 151 46q12 6 14 6q5 0 11 -7l22 -28q11 -14 1 -24q-33 -32 -88.5 -51t-113.5 -19q-113 0 -190 77q-77 79 -77 188q0 111 76 188q77 78 186 78q115 0 181 -80q67 -79 67 -197q0 -11 -3.5 -15t-13.5 -4zM308 447
q-70 0 -118 -49q-46 -50 -51 -114h328q-5 66 -48 114q-43 49 -111 49zM259 591l-101 145q-12 17 7 17h35q17 0 28 -17l72 -111l73 111q11 17 27 17h36q18 0 7 -17l-102 -145q-11 -17 -24 -18h-34q-13 1 -24 18z" />
    <glyph glyph-name="Gcircumflex" unicode="&#x11c;" horiz-adv-x="753" 
d="M405 306v45q0 11 3.5 14.5t14.5 3.5h251q17 0 17 -18v-223q0 -20 -16 -36q-51 -49 -122 -77q-72 -28 -147 -28q-148 0 -253 107q-104 107 -104 256t104 256q105 107 253 107q72 0 141.5 -27t120.5 -75q12 -11 -2 -25l-35 -38q-8 -8 -13 -8q-6 0 -13 7q-37 37 -90.5 60.5
t-108.5 23.5q-111 0 -187 -85q-76 -83 -76 -196q0 -111 76 -196t187 -85q112 0 192 70v149h-175q-18 0 -18 18zM249 782l101 145q14 17 25 17h34q10 0 24 -17l101 -145q12 -18 -7 -18h-35q-18 0 -28 18l-72 110l-73 -110q-11 -18 -27 -18h-36q-18 0 -7 18z" />
    <glyph glyph-name="gcircumflex" unicode="&#x11d;" horiz-adv-x="635" 
d="M99 -191l11 46q4 13 10 13q3 0 9 -3q87 -34 166 -34q162 0 162 197v70q-12 -21 -28 -42q-17 -21 -59 -44q-43 -23 -92 -23q-102 0 -167 77q-64 76 -64 189q0 112 64 188q65 77 167 77q80 0 129 -43q37 -31 64 -69l10 84q8 17 19 17h28q17 0 17 -17v-454q0 -285 -237 -285
q-102 0 -199 36q-15 6 -10 20zM296 69q70 0 115 55q46 55 46 131t-46 131q-45 56 -115 56q-72 0 -117 -54q-45 -52 -45 -133q0 -75 45 -131q46 -55 117 -55zM170 591l101 145q12 17 24 17h34q12 0 24 -17l102 -145q11 -18 -7 -18h-36q-16 0 -27 18l-73 110l-72 -110
q-10 -18 -28 -18h-35q-19 0 -7 18z" />
    <glyph glyph-name="Gbreve" unicode="&#x11e;" horiz-adv-x="753" 
d="M405 306v45q0 11 3.5 14.5t14.5 3.5h251q17 0 17 -18v-223q0 -20 -16 -36q-51 -49 -122 -77q-72 -28 -147 -28q-148 0 -253 107q-104 107 -104 256t104 256q105 107 253 107q72 0 141.5 -27t120.5 -75q12 -11 -2 -25l-35 -38q-8 -8 -13 -8q-6 0 -13 7q-37 37 -90.5 60.5
t-108.5 23.5q-111 0 -187 -85q-76 -83 -76 -196q0 -111 76 -196t187 -85q112 0 192 70v149h-175q-18 0 -18 18zM249 918l28 15q4 2 8 2q8 0 12 -10q15 -36 35 -50t57 -14t57 14t35 50q4 10 12 10q4 0 8 -2l28 -15q13 -6 4 -27q-38 -89 -144 -89t-144 89q-9 21 4 27z" />
    <glyph glyph-name="gbreve" unicode="&#x11f;" horiz-adv-x="635" 
d="M99 -191l11 46q4 13 10 13q3 0 9 -3q87 -34 166 -34q162 0 162 197v70q-12 -21 -28 -42q-17 -21 -59 -44q-43 -23 -92 -23q-102 0 -167 77q-64 76 -64 189q0 112 64 188q65 77 167 77q80 0 129 -43q37 -31 64 -69l10 84q8 17 19 17h28q17 0 17 -17v-454q0 -285 -237 -285
q-102 0 -199 36q-15 6 -10 20zM296 69q70 0 115 55q46 55 46 131t-46 131q-45 56 -115 56q-72 0 -117 -54q-45 -52 -45 -133q0 -75 45 -131q46 -55 117 -55zM171 727l29 15q4 2 8 2q7 0 11 -10q15 -36 35 -50t57 -14q38 0 57.5 14t35.5 50q4 10 11 10q4 0 8 -2l29 -15
q14 -7 3 -27q-38 -89 -144 -89q-105 0 -143 89q-10 20 3 27z" />
    <glyph glyph-name="Gdotaccent" unicode="&#x120;" horiz-adv-x="753" 
d="M405 306v45q0 11 3.5 14.5t14.5 3.5h251q17 0 17 -18v-223q0 -20 -16 -36q-51 -49 -122 -77q-72 -28 -147 -28q-148 0 -253 107q-104 107 -104 256t104 256q105 107 253 107q72 0 141.5 -27t120.5 -75q12 -11 -2 -25l-35 -38q-8 -8 -13 -8q-6 0 -13 7q-37 37 -90.5 60.5
t-108.5 23.5q-111 0 -187 -85q-76 -83 -76 -196q0 -111 76 -196t187 -85q112 0 192 70v149h-175q-18 0 -18 18zM391 807q-25 0 -41.5 16.5t-16.5 41.5q0 24 16.5 41t41.5 17q24 0 41 -17t17 -41q0 -25 -17 -41.5t-41 -16.5z" />
    <glyph glyph-name="gdotaccent" unicode="&#x121;" horiz-adv-x="635" 
d="M99 -191l11 46q4 13 10 13q3 0 9 -3q87 -34 166 -34q162 0 162 197v70q-12 -21 -28 -42q-17 -21 -59 -44q-43 -23 -92 -23q-102 0 -167 77q-64 76 -64 189q0 112 64 188q65 77 167 77q80 0 129 -43q37 -31 64 -69l10 84q8 17 19 17h28q17 0 17 -17v-454q0 -285 -237 -285
q-102 0 -199 36q-15 6 -10 20zM296 69q70 0 115 55q46 55 46 131t-46 131q-45 56 -115 56q-72 0 -117 -54q-45 -52 -45 -133q0 -75 45 -131q46 -55 117 -55zM304 616q-25 0 -41.5 16.5t-16.5 41.5q0 24 16.5 41t41.5 17q24 0 41 -17t17 -41q0 -25 -17 -41.5t-41 -16.5z" />
    <glyph glyph-name="uni0122" unicode="&#x122;" horiz-adv-x="753" 
d="M405 306v45q0 11 3.5 14.5t14.5 3.5h251q17 0 17 -18v-223q0 -20 -16 -36q-51 -49 -122 -77q-72 -28 -147 -28q-148 0 -253 107q-104 107 -104 256t104 256q105 107 253 107q72 0 141.5 -27t120.5 -75q12 -11 -2 -25l-35 -38q-8 -8 -13 -8q-6 0 -13 7q-37 37 -90.5 60.5
t-108.5 23.5q-111 0 -187 -85q-76 -83 -76 -196q0 -111 76 -196t187 -85q112 0 192 70v149h-175q-18 0 -18 18zM349 -347l-16 25q-5 8 3 12q78 50 78 105h-6q-24 0 -40.5 17t-16.5 41t17 41t41 17q27 0 43.5 -19.5t16.5 -52.5q0 -70 -25.5 -111.5t-82.5 -75.5l-6 -2
q-3 0 -6 3z" />
    <glyph glyph-name="uni0123" unicode="&#x123;" horiz-adv-x="635" 
d="M99 -191l11 46q4 13 10 13q3 0 9 -3q87 -34 166 -34q162 0 162 197v70q-12 -21 -28 -42q-17 -21 -59 -44q-43 -23 -92 -23q-102 0 -167 77q-64 76 -64 189q0 112 64 188q65 77 167 77q80 0 129 -43q37 -31 64 -69l10 84q8 17 19 17h28q17 0 17 -17v-454q0 -285 -237 -285
q-102 0 -199 36q-15 6 -10 20zM296 69q70 0 115 55q46 55 46 131t-46 131q-45 56 -115 56q-72 0 -117 -54q-45 -52 -45 -133q0 -75 45 -131q46 -55 117 -55zM373 852l16 -26q5 -8 -3 -12q-78 -46 -78 -104l6 -1q24 1 40 -16t17 -41q0 -24 -16.5 -41t-41.5 -17
q-27 0 -43.5 19.5t-16.5 52.5q0 70 25.5 111.5t83.5 75.5l6 2q4 0 5 -3z" />
    <glyph glyph-name="Hcircumflex" unicode="&#x124;" horiz-adv-x="759" 
d="M99 18v665q0 10 3.5 13.5t13.5 3.5h58q18 0 18 -17v-292h375v292q0 10 3.5 13.5t13.5 3.5h58q18 0 18 -17v-665q0 -18 -18 -18h-58q-17 0 -17 18v291h-375v-291q0 -18 -18 -18h-58q-17 0 -17 18zM237 782l101 145q12 17 24 17h34q12 0 24 -17l102 -145q10 -18 -7 -18h-36
q-17 0 -27 18l-73 110l-72 -110q-11 -18 -28 -18h-35q-19 0 -7 18z" />
    <glyph glyph-name="hcircumflex" unicode="&#x125;" horiz-adv-x="602" 
d="M93 18v703q0 10 3.5 13.5t13.5 3.5h54q17 0 17 -17v-297q59 96 154 96q91 0 144 -57t53 -170v-275q0 -18 -17 -18h-54q-17 0 -17 18v254q0 82 -35 125.5t-96 43.5q-60 0 -96 -50q-36 -49 -36 -125v-248q0 -18 -17 -18h-54q-17 0 -17 18zM-5 782l101 145q12 17 24 17h34
q12 0 24 -17l102 -145q10 -18 -7 -18h-36q-17 0 -27 18l-73 110l-72 -110q-10 -18 -28 -18h-35q-19 0 -7 18z" />
    <glyph glyph-name="Hbar" unicode="&#x126;" horiz-adv-x="742" 
d="M91 18v487h-77q-18 0 -18 18v25q0 18 18 18h77v117q0 10 3.5 13.5t13.5 3.5h58q18 0 18 -17v-117h375v117q0 10 3.5 13.5t13.5 3.5h58q18 0 18 -17v-117h76q18 0 18 -18v-25q0 -11 -4 -14.5t-14 -3.5h-76v-487q0 -18 -18 -18h-58q-17 0 -17 18v291h-375v-291
q0 -18 -18 -18h-58q-17 0 -17 18zM184 505v-114h375v114h-375z" />
    <glyph glyph-name="hbar" unicode="&#x127;" horiz-adv-x="607" 
d="M111 18v549h-52q-17 0 -17 17v27q0 17 17 17h52v78q0 17 17 17h54q10 0 13.5 -3.5t3.5 -13.5v-78h115q18 0 18 -17v-27q0 -17 -18 -17h-115v-146q60 99 152 99q190 0 190 -231v-271q0 -18 -17 -18h-54q-17 0 -17 18v250q0 173 -122 173q-57 0 -95 -54q-37 -53 -37 -133
v-236q0 -18 -17 -18h-54q-17 0 -17 18z" />
    <glyph glyph-name="Itilde" unicode="&#x128;" horiz-adv-x="292" 
d="M175 0h-58q-11 0 -14.5 4t-3.5 14v665q0 17 18 17h58q10 0 13.5 -3.5t3.5 -13.5v-665q0 -18 -17 -18zM-8 816l-22 10q-16 7 -9 25q35 83 106 83q44 0 87 -34q28 -20 39 -25.5t25 -5.5q40 0 57 45q4 13 13 13q5 0 11 -2l23 -10q16 -6 9 -25q-35 -83 -107 -83q-44 0 -85 32
q-26 19 -36 24.5t-30 8.5q-39 0 -57 -45q-6 -13 -14 -13z" />
    <glyph glyph-name="itilde" unicode="&#x129;" horiz-adv-x="292" 
d="M173 0h-53q-18 0 -18 18v474q0 17 18 17h53q10 0 13.5 -3.5t3.5 -13.5v-474q0 -18 -17 -18zM-8 625l-22 10q-16 7 -9 25q35 83 106 83q44 0 87 -34q28 -20 39 -25.5t25 -5.5q40 0 57 45q4 13 13 13q5 0 11 -2l23 -10q16 -6 9 -25q-35 -83 -107 -83q-44 0 -85 32
q-26 19 -36 24.5t-30 8.5q-39 0 -57 -45q-6 -13 -14 -13z" />
    <glyph glyph-name="Imacron" unicode="&#x12a;" horiz-adv-x="299" 
d="M179 0h-58q-11 0 -14.5 4t-3.5 14v665q0 17 18 17h58q10 0 13.5 -3.5t3.5 -13.5v-665q0 -18 -17 -18zM11 857v29q0 10 3.5 14t14.5 4h242q10 0 13.5 -3.5t3.5 -13.5v-31q0 -10 -3.5 -13.5t-13.5 -3.5h-242q-11 0 -14.5 3.5t-3.5 14.5z" />
    <glyph glyph-name="imacron" unicode="&#x12b;" horiz-adv-x="292" 
d="M173 0h-53q-18 0 -18 18v474q0 17 18 17h53q10 0 13.5 -3.5t3.5 -13.5v-474q0 -18 -17 -18zM8 666v29q0 11 4 14.5t14 3.5h242q10 0 13.5 -3.5t3.5 -13.5v-31q0 -10 -3.5 -13.5t-13.5 -3.5h-242q-18 0 -18 18z" />
    <glyph glyph-name="Ibreve" unicode="&#x12c;" horiz-adv-x="290" 
d="M174 0h-58q-17 0 -17 18v665q0 10 3.5 13.5t13.5 3.5h58q18 0 18 -17v-665q0 -18 -18 -18zM5 918l28 15q4 2 8 2q8 0 12 -10q15 -36 35 -50t57 -14t57 14t35 50q4 10 12 10q4 0 8 -2l28 -15q13 -6 4 -27q-38 -89 -144 -89t-144 89q-9 21 4 27z" />
    <glyph glyph-name="ibreve" unicode="&#x12d;" horiz-adv-x="283" 
d="M168 0h-53q-17 0 -17 18v474q0 10 3.5 13.5t13.5 3.5h53q18 0 18 -17v-474q0 -18 -18 -18zM2 727l28 15q4 2 8 2q8 0 12 -10q15 -36 35 -50t57 -14t57 14t35 50q4 10 12 10q4 0 8 -2l28 -15q13 -6 4 -27q-38 -89 -144 -89t-144 89q-10 19 4 27z" />
    <glyph glyph-name="Iogonek" unicode="&#x12e;" horiz-adv-x="299" 
d="M191 -161v-28q0 -10 -3.5 -13t-13.5 -4q-5 -1 -23 -1q-62 0 -96.5 27.5t-34.5 81.5q0 69 80 108q-1 1 -1 8v665q0 10 3.5 13.5t13.5 3.5h58q18 0 18 -17v-665q0 -18 -18 -18q-41 -9 -65 -31t-24 -53q0 -30 20.5 -46.5t54.5 -16.5q1 0 6.5 0.5t7.5 0.5q10 0 13.5 -3
t3.5 -12z" />
    <glyph glyph-name="iogonek" unicode="&#x12f;" horiz-adv-x="289" 
d="M201 -161v-28q0 -10 -3.5 -13t-13.5 -4q-5 -1 -23 -1q-62 0 -96.5 27.5t-34.5 81.5q0 73 84 110v6v474q0 10 3.5 13.5t13.5 3.5h53q18 0 18 -17v-474q0 -18 -18 -18q-41 -9 -65 -31t-24 -53q0 -30 20.5 -46.5t54.5 -16.5q1 0 6.5 0.5t7.5 0.5q10 0 13.5 -3t3.5 -12z
M99 674q0 24 16.5 41t41.5 17q24 0 41 -17t17 -41q0 -25 -17 -41.5t-41 -16.5q-25 0 -41.5 16.5t-16.5 41.5z" />
    <glyph glyph-name="Idot" unicode="&#x130;" horiz-adv-x="314" 
d="M186 0h-58q-18 0 -18 18v665q0 17 18 17h58q10 0 13.5 -3.5t3.5 -13.5v-665q0 -18 -17 -18zM157 808q-25 0 -41.5 16.5t-16.5 41.5q0 24 16.5 41t41.5 17q24 0 41 -17t17 -41q0 -25 -17 -41.5t-41 -16.5z" />
    <glyph glyph-name="dotlessi" unicode="&#x131;" horiz-adv-x="283" 
d="M168 0h-53q-17 0 -17 18v474q0 10 3.5 13.5t13.5 3.5h53q18 0 18 -17v-474q0 -18 -18 -18z" />
    <glyph glyph-name="IJ" unicode="&#x132;" horiz-adv-x="734" 
d="M174 0h-58q-17 0 -17 18v665q0 10 3.5 13.5t13.5 3.5h58q18 0 18 -17v-665q0 -18 -18 -18zM324 5l-5 47q-3 19 21 19q123 0 175.5 47t52.5 154v355h-152q-17 0 -17 18v38q0 10 3.5 13.5t13.5 3.5h228q18 0 18 -17v-411q0 -148 -77.5 -216t-237.5 -69q-13 0 -17 3.5
t-6 14.5z" />
    <glyph glyph-name="ij" unicode="&#x133;" horiz-adv-x="701" 
d="M171 0h-53q-17 0 -17 18v474q0 10 3.5 13.5t13.5 3.5h53q18 0 18 -17v-474q0 -10 -3.5 -14t-14.5 -4zM305 -188l8 38q3 14 9 14t13 -4q29 -17 69 -17q57 0 82 34.5t25 114.5v445h-130q-17 0 -17 17v38q0 17 17 17h200q18 0 18 -17v-505q0 -223 -186 -223q-59 0 -100 26
q-11 8 -8 22zM144 616q-25 0 -41.5 16.5t-16.5 41.5q0 24 16.5 41t41.5 17q24 0 41 -17t17 -41q0 -25 -17 -41.5t-41 -16.5zM494 674q0 24 17 41t41 17t41.5 -17t17.5 -41t-17.5 -41t-41.5 -17t-41 16.5t-17 41.5z" />
    <glyph glyph-name="Jcircumflex" unicode="&#x134;" horiz-adv-x="472" 
d="M44 5l-5 47q-3 19 21 19q123 0 175.5 47t52.5 154v355h-152q-17 0 -17 18v38q0 10 3.5 13.5t13.5 3.5h228q18 0 18 -17v-411q0 -148 -77.5 -216t-237.5 -69q-13 0 -17 3.5t-6 14.5zM110 782l101 145q12 17 24 17h34q12 0 24 -17l102 -145q11 -18 -7 -18h-36q-16 0 -27 18
l-73 110l-72 -110q-10 -18 -28 -18h-35q-19 0 -7 18z" />
    <glyph glyph-name="jcircumflex" unicode="&#x135;" horiz-adv-x="411" 
d="M-6 -188l8 38q3 14 9 14t13 -4q29 -17 69 -17q57 0 82 34.5t25 114.5v445h-130q-17 0 -17 17v38q0 17 17 17h200q18 0 18 -17v-505q0 -223 -186 -223q-59 0 -100 26q-11 8 -8 22zM29 591l101 145q14 17 25 17h34q10 0 24 -17l101 -145q12 -18 -7 -18h-35q-18 0 -28 18
l-72 110l-73 -110q-11 -18 -27 -18h-36q-18 0 -7 18z" />
    <glyph glyph-name="uni0136" unicode="&#x136;" horiz-adv-x="658" 
d="M99 18v665q0 10 3.5 13.5t13.5 3.5h59q10 0 13.5 -3.5t3.5 -13.5v-290l307 290q17 17 29 17h76q24 0 7 -17l-337 -317l355 -348q15 -18 -7 -18h-79q-11 0 -28 18l-323 318v-318q0 -18 -17 -18h-59q-17 0 -17 18zM286 -347l-16 25q-4 7 4 12q78 50 78 105h-7q-24 0 -40 17
t-16 41t16.5 41t40.5 17q27 0 44 -19.5t17 -52.5q0 -71 -25.5 -112.5t-83.5 -74.5l-6 -2q-3 0 -6 3z" />
    <glyph glyph-name="uni0137" unicode="&#x137;" horiz-adv-x="557" 
d="M93 18v688q0 10 3.5 13.5t13.5 3.5h53q18 0 18 -17v-418l210 204q14 17 28 17h80q8 0 10.5 -5.5t-4.5 -11.5l-231 -222l244 -252q16 -18 -6 -18h-79q-13 0 -28 18l-224 229v-229q0 -10 -3.5 -14t-14.5 -4h-53q-17 0 -17 18zM234 -347l-16 25q-4 7 4 12q78 50 78 105h-7
q-24 0 -40 17t-16 41t16.5 41t40.5 17q27 0 44 -19.5t17 -52.5q0 -71 -25.5 -112.5t-83.5 -74.5l-6 -2q-3 0 -6 3z" />
    <glyph glyph-name="kgreenlandic" unicode="&#x138;" horiz-adv-x="557" 
d="M93 18v474q0 10 3.5 13.5t13.5 3.5h53q18 0 18 -17v-204l210 204q14 17 28 17h80q8 0 10.5 -5.5t-4.5 -11.5l-231 -222l244 -252q16 -18 -6 -18h-79q-13 0 -28 18l-224 229v-229q0 -10 -3.5 -14t-14.5 -4h-53q-17 0 -17 18z" />
    <glyph glyph-name="Lacute" unicode="&#x139;" horiz-adv-x="571" 
d="M95 18v665q0 17 18 17h58q10 0 13.5 -3.5t3.5 -13.5v-602h333q17 0 17 -18v-45q0 -18 -17 -18h-408q-11 0 -14.5 4t-3.5 14zM129 787l125 133q4 6 9 6q8 0 14 -11l22 -35q8 -13 -4 -23l-87 -78q-14 -11 -29 -11h-47q-21 0 -3 19z" />
    <glyph glyph-name="lacute" unicode="&#x13a;" horiz-adv-x="280" 
d="M172 0h-53q-17 0 -17 18v703q0 10 3.5 13.5t13.5 3.5h53q18 0 18 -17v-703q0 -18 -18 -18zM103 787l125 133q4 6 9 6q8 0 14 -11l22 -35q8 -13 -4 -23l-87 -78q-14 -11 -29 -11h-47q-21 0 -3 19z" />
    <glyph glyph-name="uni013B" unicode="&#x13b;" horiz-adv-x="571" 
d="M95 18v665q0 17 18 17h58q10 0 13.5 -3.5t3.5 -13.5v-602h333q17 0 17 -18v-45q0 -18 -17 -18h-408q-11 0 -14.5 4t-3.5 14zM264 -347l-16 25q-4 7 4 12q78 50 78 105h-7q-24 0 -40 17t-16 41t16.5 41t40.5 17q27 0 44 -19.5t17 -52.5q0 -71 -25.5 -112.5t-83.5 -74.5
l-6 -2q-3 0 -6 3z" />
    <glyph glyph-name="uni013C" unicode="&#x13c;" horiz-adv-x="269" 
d="M161 0h-53q-17 0 -17 18v703q0 10 3.5 13.5t13.5 3.5h53q18 0 18 -17v-703q0 -10 -3.5 -14t-14.5 -4zM75 -347l-16 25q-4 7 4 12q78 50 78 105h-7q-24 0 -40 17t-16 41t16.5 41t40.5 17q27 0 44 -19.5t17 -52.5q0 -71 -25.5 -112.5t-83.5 -74.5l-6 -2q-3 0 -6 3z" />
    <glyph glyph-name="Lcaron" unicode="&#x13d;" horiz-adv-x="583" 
d="M95 18v665q0 17 18 17h58q10 0 13.5 -3.5t3.5 -13.5v-602h333q17 0 17 -18v-45q0 -18 -17 -18h-408q-11 0 -14.5 4t-3.5 14zM416 420l-16 25q-4 7 3 12q73 48 85 117h-7q-26 1 -44.5 19.5t-18.5 44.5q0 27 18.5 46t45.5 19q30 0 49 -22.5t19 -61.5q0 -135 -122 -200
l-6 -2q-3 0 -6 3z" />
    <glyph glyph-name="lcaron" unicode="&#x13e;" horiz-adv-x="368" 
d="M161 0h-53q-18 0 -18 18v703q0 17 18 17h53q10 0 13.5 -3.5t3.5 -13.5v-703q0 -18 -17 -18zM272 476l-16 25q-4 7 3 12q78 49 78 110h-6q-24 0 -40.5 16.5t-16.5 40.5t16.5 41t41.5 17q27 0 43.5 -19.5t16.5 -52.5q0 -71 -25.5 -114t-82.5 -77l-6 -2q-3 0 -6 3z" />
    <glyph glyph-name="Ldot" unicode="&#x13f;" horiz-adv-x="572" 
d="M95 18v665q0 17 18 17h58q10 0 13.5 -3.5t3.5 -13.5v-602h333q17 0 17 -18v-45q0 -18 -17 -18h-408q-11 0 -14.5 4t-3.5 14zM522 304q-17 -17 -41 -17t-41 17t-17 41t17 41q17 18 41 18t41 -18q18 -17 18 -41t-18 -41z" />
    <glyph glyph-name="ldot" unicode="&#x140;" horiz-adv-x="447" 
d="M169 0h-53q-17 0 -17 18v703q0 10 3.5 13.5t13.5 3.5h53q18 0 18 -17v-703q0 -10 -3.5 -14t-14.5 -4zM307 355q0 24 17 41t41 17t41.5 -17t17.5 -41t-17.5 -41t-41.5 -17t-41 16.5t-17 41.5z" />
    <glyph glyph-name="Lslash" unicode="&#x141;" horiz-adv-x="592" 
d="M113 18v238l-60 -22q-2 0 -5 -1l-5 -1q-7 0 -13 13l-8 23q-6 16 11 22l80 28v365q0 10 3.5 13.5t13.5 3.5h58q18 0 18 -17v-332l183 66q2 0 4 0.5t3 0.5l2 1q7 0 13 -13l8 -22q5 -17 -11 -23l-202 -73v-207h336q10 0 14 -3.5t4 -14.5v-45q0 -18 -18 -18h-412
q-17 0 -17 18z" />
    <glyph glyph-name="lslash" unicode="&#x142;" horiz-adv-x="357" 
d="M203 0h-53q-17 0 -17 18v272l-88 -31q-6 -2 -10 -2q-7 0 -12 12l-8 23q-5 18 11 22l107 39v353q0 10 3.5 13.5t13.5 3.5h53q18 0 18 -17v-322l91 32q2 0 4 0.5t4 1.5h1q7 0 13 -13l8 -22q5 -17 -11 -23l-110 -39v-303q0 -10 -3.5 -14t-14.5 -4z" />
    <glyph glyph-name="Nacute" unicode="&#x143;" horiz-adv-x="776" 
d="M98 18v687q0 8 9 8h6q7 0 14 -7l459 -527v504q0 10 3.5 13.5t13.5 3.5h58q11 0 14.5 -3.5t3.5 -13.5v-688q0 -8 -9 -8h-5q-8 0 -16 8l-458 531v-508q0 -18 -18 -18h-58q-17 0 -17 18zM320 787l125 133q5 6 9 6q8 0 14 -11l22 -35q8 -13 -4 -23l-87 -78q-14 -11 -29 -11
h-47q-21 0 -3 19z" />
    <glyph glyph-name="nacute" unicode="&#x144;" 
d="M95 18v474q0 17 17 17h29q11 0 19 -17l10 -81q64 109 168 109q90 0 143 -57t53 -170v-275q0 -18 -17 -18h-54q-17 0 -17 18v254q0 82 -34.5 125.5t-95.5 43.5q-60 0 -96.5 -49t-36.5 -126v-248q0 -18 -17 -18h-54q-17 0 -17 18zM231 596l125 133q4 6 9 6q8 0 14 -11
l22 -35q8 -13 -4 -23l-87 -78q-14 -11 -29 -11h-47q-21 0 -3 19z" />
    <glyph glyph-name="uni0145" unicode="&#x145;" horiz-adv-x="776" 
d="M98 18v687q0 8 9 8h6q7 0 14 -7l459 -527v504q0 10 3.5 13.5t13.5 3.5h58q11 0 14.5 -3.5t3.5 -13.5v-688q0 -8 -9 -8h-5q-8 0 -16 8l-458 531v-508q0 -18 -18 -18h-58q-17 0 -17 18zM335 -347l-16 25q-4 7 4 12q78 50 78 105h-7q-24 0 -40 17t-16 41t16.5 41t40.5 17
q27 0 44 -19.5t17 -52.5q0 -71 -25.5 -112.5t-83.5 -74.5l-6 -2q-3 0 -6 3z" />
    <glyph glyph-name="uni0146" unicode="&#x146;" 
d="M95 18v474q0 17 17 17h29q11 0 19 -17l10 -81q64 109 168 109q90 0 143 -57t53 -170v-275q0 -18 -17 -18h-54q-17 0 -17 18v254q0 82 -34.5 125.5t-95.5 43.5q-60 0 -96.5 -49t-36.5 -126v-248q0 -18 -17 -18h-54q-17 0 -17 18zM261 -347l-16 25q-4 7 4 12q78 50 78 105
h-7q-24 0 -40 17t-16 41t16.5 41t40.5 17q27 0 44 -19.5t17 -52.5q0 -71 -25.5 -112.5t-83.5 -74.5l-6 -2q-3 0 -6 3z" />
    <glyph glyph-name="Ncaron" unicode="&#x147;" horiz-adv-x="776" 
d="M98 18v687q0 8 9 8h6q7 0 14 -7l459 -527v504q0 10 3.5 13.5t13.5 3.5h58q11 0 14.5 -3.5t3.5 -13.5v-688q0 -8 -9 -8h-5q-8 0 -16 8l-458 531v-508q0 -18 -18 -18h-58q-17 0 -17 18zM342 782l-101 145q-12 17 7 17h35q17 0 28 -17l72 -111l73 111q11 17 27 17h36
q18 0 7 -17l-102 -145q-10 -16 -24 -18h-34q-14 2 -24 18z" />
    <glyph glyph-name="ncaron" unicode="&#x148;" 
d="M95 18v474q0 17 17 17h29q11 0 19 -17l10 -81q64 109 168 109q90 0 143 -57t53 -170v-275q0 -18 -17 -18h-54q-17 0 -17 18v254q0 82 -34.5 125.5t-95.5 43.5q-60 0 -96.5 -49t-36.5 -126v-248q0 -18 -17 -18h-54q-17 0 -17 18zM270 591l-101 145q-11 17 7 17h36
q16 0 27 -17l73 -111l72 111q11 17 28 17h35q19 0 7 -17l-101 -145q-12 -17 -24 -18h-34q-13 1 -25 18z" />
    <glyph glyph-name="napostrophe" unicode="&#x149;" 
d="M95 18v474q0 17 17 17h29q11 0 19 -17l10 -81q64 109 168 109q90 0 143 -57t53 -170v-275q0 -18 -17 -18h-54q-17 0 -17 18v254q0 82 -34.5 125.5t-95.5 43.5q-60 0 -96.5 -49t-36.5 -126v-248q0 -18 -17 -18h-54q-17 0 -17 18zM54 590l-16 25q-4 7 4 12q78 49 78 109h-7
q-24 0 -40 17t-16 41t16.5 41t40.5 17q27 0 44 -19.5t17 -52.5q0 -70 -26 -113.5t-83 -78.5l-6 -2q-3 0 -6 4z" />
    <glyph glyph-name="Eng" unicode="&#x14a;" horiz-adv-x="776" 
d="M342 -232l-5 47q-3 19 21 19q125 0 178 41q57 43 50 178l-395 473v-508q0 -18 -18 -18h-58q-17 0 -17 18v687q0 8 9 8h6q7 0 14 -7l459 -527v504q0 10 3.5 13.5t13.5 3.5h58q11 0 14.5 -3.5t3.5 -13.5v-680q0 -150 -85 -204q-78 -49 -229 -49q-13 0 -17 3.5t-6 14.5z" />
    <glyph glyph-name="eng" unicode="&#x14b;" 
d="M252 -187l8 38q3 13 12 13q6 0 8 -1q50 -21 83 -21q44 0 63.5 29t19.5 92v309q0 82 -34.5 125.5t-95.5 43.5q-60 0 -96.5 -49t-36.5 -126v-248q0 -18 -17 -18h-54q-17 0 -17 18v474q0 17 17 17h29q11 0 19 -17l10 -81q64 109 168 109q90 0 143 -57t53 -170v-333
q0 -198 -160 -198q-56 0 -114 29q-12 6 -8 22z" />
    <glyph glyph-name="Omacron" unicode="&#x14c;" horiz-adv-x="814" 
d="M661 94q-105 -107 -253 -107q-147 0 -254 107q-105 106 -105 256t105 256q107 107 254 107q148 0 253 -107q105 -106 105 -256t-105 -256zM408 69q112 0 188 85t76 196q0 113 -76 196q-76 85 -188 85t-188 -85q-77 -86 -77 -196t77 -196q76 -85 188 -85zM270 857v29
q0 18 18 18h242q10 0 13.5 -3.5t3.5 -13.5v-31q0 -10 -3.5 -13.5t-13.5 -3.5h-242q-10 0 -14 3.5t-4 14.5z" />
    <glyph glyph-name="omacron" unicode="&#x14d;" horiz-adv-x="620" 
d="M496 66q-77 -77 -186 -77t-186 77q-77 79 -77 188t77 188q76 78 186 78t186 -78q78 -78 78 -188t-78 -188zM486 254q0 79 -51 133t-125 54q-73 0 -125 -55q-51 -54 -51 -132t51 -133q53 -54 125 -54q73 0 124 54q52 55 52 133zM172 666v29q0 11 4 14.5t14 3.5h242
q10 0 13.5 -3.5t3.5 -13.5v-31q0 -10 -3.5 -13.5t-13.5 -3.5h-242q-18 0 -18 18z" />
    <glyph glyph-name="Obreve" unicode="&#x14e;" horiz-adv-x="814" 
d="M661 94q-105 -107 -253 -107q-147 0 -254 107q-105 106 -105 256t105 256q107 107 254 107q148 0 253 -107q105 -106 105 -256t-105 -256zM408 69q112 0 188 85t76 196q0 113 -76 196q-76 85 -188 85t-188 -85q-77 -86 -77 -196t77 -196q76 -85 188 -85zM268 918l28 15
q4 2 8 2q8 0 12 -10q15 -36 35 -50t57 -14t57 14t35 50q4 10 12 10q4 0 8 -2l28 -15q13 -6 4 -27q-38 -89 -144 -89t-144 89q-9 21 4 27z" />
    <glyph glyph-name="obreve" unicode="&#x14f;" horiz-adv-x="620" 
d="M496 66q-77 -77 -186 -77t-186 77q-77 79 -77 188t77 188q76 78 186 78t186 -78q78 -78 78 -188t-78 -188zM486 254q0 79 -51 133t-125 54q-73 0 -125 -55q-51 -54 -51 -132t51 -133q53 -54 125 -54q73 0 124 54q52 55 52 133zM170 727l29 15q4 2 8 2q7 0 11 -10
q15 -36 35 -50t57 -14q38 0 57.5 14t35.5 50q4 10 11 10q4 0 8 -2l29 -15q13 -7 3 -27q-38 -89 -144 -89q-105 0 -143 89q-11 20 3 27z" />
    <glyph glyph-name="Ohungarumlaut" unicode="&#x150;" horiz-adv-x="814" 
d="M661 94q-105 -107 -253 -107q-147 0 -254 107q-105 106 -105 256t105 256q107 107 254 107q148 0 253 -107q105 -106 105 -256t-105 -256zM408 69q112 0 188 85t76 196q0 113 -76 196q-76 85 -188 85t-188 -85q-77 -86 -77 -196t77 -196q76 -85 188 -85zM297 784l123 141
q9 15 24 -5l10 -15q9 -15 -5 -32l-79 -96q-10 -13 -31 -13h-40q-20 0 -2 20zM436 784l123 141q5 6 10 6q6 0 14 -11l10 -15q9 -15 -5 -32l-79 -96q-10 -13 -31 -13h-40q-20 0 -2 20z" />
    <glyph glyph-name="ohungarumlaut" unicode="&#x151;" horiz-adv-x="620" 
d="M496 66q-77 -77 -186 -77t-186 77q-77 79 -77 188t77 188q76 78 186 78t186 -78q78 -78 78 -188t-78 -188zM486 254q0 79 -51 133t-125 54q-73 0 -125 -55q-51 -54 -51 -132t51 -133q53 -54 125 -54q73 0 124 54q52 55 52 133zM197 593l123 141q9 15 24 -5l10 -15
q9 -15 -5 -32l-79 -96q-10 -13 -31 -13h-40q-20 0 -2 20zM337 593l123 141q9 15 24 -5l10 -15q9 -15 -5 -32l-79 -96q-10 -13 -31 -13h-40q-20 0 -2 20z" />
    <glyph glyph-name="OE" unicode="&#x152;" horiz-adv-x="1114" 
d="M627 80l409 1q17 0 17 -18v-45q0 -18 -17 -18h-456q-28 0 -89 -6q-56 -7 -87 -7q-148 0 -251 106q-104 107 -104 257q0 149 104 256t251 107q30 0 87 -7q61 -6 89 -6h456q10 0 13.5 -3.5t3.5 -13.5v-46q0 -10 -3.5 -13.5t-13.5 -3.5h-409q52 -34 87.5 -95.5t40.5 -130.5
h257q18 0 18 -18v-45q0 -11 -4 -14.5t-14 -3.5h-256q-12 -147 -129 -233zM404 69q112 0 185 85q74 86 74 196q0 111 -74 196q-73 85 -185 85q-110 0 -185 -85q-75 -86 -75 -196t75 -196q75 -85 185 -85z" />
    <glyph glyph-name="oe" unicode="&#x153;" horiz-adv-x="968" 
d="M863 111l22 -28q11 -14 2 -23q-35 -33 -89.5 -52t-113.5 -19q-112 0 -189 75q-77 -75 -185 -75q-109 0 -186 77q-77 79 -77 188t77 188q76 78 186 78q107 0 185 -75q78 75 184 75q81 0 139 -42.5t83.5 -103.5t25.5 -131q0 -11 -3.5 -15t-13.5 -4h-370v-77q16 -37 59 -59
t88 -22q84 0 151 46q12 6 14 6q5 0 11 -7zM310 67q51 0 89.5 28t54.5 76v166q-16 48 -54.5 76t-89.5 28q-73 0 -125 -55q-51 -54 -51 -132q0 -79 51 -133t125 -54zM542 362v-78h295q-5 70 -47 115q-44 48 -112 48q-90 0 -136 -85z" />
    <glyph glyph-name="Racute" unicode="&#x154;" horiz-adv-x="667" 
d="M95 18v665q0 17 18 17h240q46 0 87 -10.5t78 -33.5t58.5 -65.5t21.5 -100.5q0 -163 -156 -205l186 -263q12 -22 -15 -22h-56q-18 0 -30 18l-180 257h-159v-257q0 -18 -17 -18h-58q-10 0 -14 3.5t-4 14.5zM348 621h-160v-267h160q160 0 160 136q0 131 -160 131zM256 787
l125 133q5 6 9 6q8 0 14 -11l22 -35q8 -13 -4 -23l-87 -78q-14 -11 -29 -11h-47q-21 0 -3 19z" />
    <glyph glyph-name="racute" unicode="&#x155;" horiz-adv-x="416" 
d="M95 18v474q0 17 17 17h29q11 0 19 -17l15 -93q22 42 58 76q50 45 145 45q12 0 15 -3.5t1 -12.5l-8 -54q-2 -17 -19 -17q-89 0 -137 -51q-47 -52 -47 -123v-241q0 -18 -17 -18h-54q-17 0 -17 18zM192 596l125 133q5 6 9 6q8 0 14 -11l22 -35q8 -13 -4 -23l-87 -78
q-14 -11 -29 -11h-47q-21 0 -3 19z" />
    <glyph glyph-name="uni0156" unicode="&#x156;" horiz-adv-x="667" 
d="M95 18v665q0 17 18 17h240q46 0 87 -10.5t78 -33.5t58.5 -65.5t21.5 -100.5q0 -163 -156 -205l186 -263q12 -22 -15 -22h-56q-18 0 -30 18l-180 257h-159v-257q0 -18 -17 -18h-58q-10 0 -14 3.5t-4 14.5zM348 621h-160v-267h160q160 0 160 136q0 131 -160 131zM284 -347
l-16 25q-4 7 4 12q78 50 78 105h-7q-24 0 -40 17t-16 41t16.5 41t40.5 17q27 0 44 -19.5t17 -52.5q0 -71 -25.5 -112.5t-83.5 -74.5l-6 -2q-3 0 -6 3z" />
    <glyph glyph-name="uni0157" unicode="&#x157;" horiz-adv-x="399" 
d="M79 18v474q0 17 17 17h29q11 0 19 -17l15 -93q22 42 58 76q50 45 145 45q12 0 15 -3.5t1 -12.5l-8 -54q-2 -17 -19 -17q-89 0 -137 -51q-47 -52 -47 -123v-241q0 -18 -17 -18h-54q-17 0 -17 18zM72 -347l-16 25q-4 8 3 12q78 50 78 105h-6q-24 0 -40.5 17t-16.5 41t17 41
t41 17q27 0 43.5 -19.5t16.5 -52.5q0 -70 -25.5 -111.5t-82.5 -75.5l-6 -2q-3 0 -6 3z" />
    <glyph glyph-name="Rcaron" unicode="&#x158;" horiz-adv-x="667" 
d="M95 18v665q0 17 18 17h240q46 0 87 -10.5t78 -33.5t58.5 -65.5t21.5 -100.5q0 -163 -156 -205l186 -263q12 -22 -15 -22h-56q-18 0 -30 18l-180 257h-159v-257q0 -18 -17 -18h-58q-10 0 -14 3.5t-4 14.5zM348 621h-160v-267h160q160 0 160 136q0 131 -160 131zM282 782
l-101 145q-12 17 7 17h35q17 0 28 -17l72 -111l73 111q11 17 27 17h36q18 0 7 -17l-102 -145q-10 -16 -24 -18h-34q-14 2 -24 18z" />
    <glyph glyph-name="rcaron" unicode="&#x159;" horiz-adv-x="377" 
d="M59 18v474q0 17 17 17h29q11 0 19 -17l15 -93q22 42 58 76q50 45 145 45q12 0 15 -3.5t1 -12.5l-8 -54q-2 -17 -19 -17q-89 0 -137 -51q-47 -52 -47 -123v-241q0 -18 -17 -18h-54q-17 0 -17 18zM163 591l-101 145q-12 17 7 17h35q17 0 28 -17l72 -111l73 111q11 17 27 17
h36q18 0 7 -17l-102 -145q-11 -17 -24 -18h-34q-13 1 -24 18z" />
    <glyph glyph-name="Sacute" unicode="&#x15a;" horiz-adv-x="639" 
d="M56 91l23 38q6 11 13 11q4 0 11 -4q98 -65 217 -65q81 0 128.5 30t47.5 93q0 54 -45 80t-151 41q-97 12 -158 46q-78 43 -78 138q0 70 53 135q29 35 81.5 56t119.5 21q70 0 125.5 -17.5t121.5 -58.5q13 -7 4 -24l-22 -38q-9 -12 -15 -12t-10 4q-94 64 -194 64
q-95 0 -134 -38.5t-39 -88.5q0 -56 57 -79q50 -20 136 -31q102 -13 165 -51q74 -43 74 -143q0 -87 -67 -148t-190 -61q-157 0 -270 77q-14 9 -4 25zM261 787l125 133q4 6 9 6q8 0 14 -11l22 -35q8 -13 -4 -23l-87 -78q-14 -11 -29 -11h-47q-21 0 -3 19z" />
    <glyph glyph-name="sacute" unicode="&#x15b;" horiz-adv-x="509" 
d="M49 78l17 29q8 12 13 12q4 0 11 -5q79 -55 165 -55q62 0 95 23t33 62q0 29 -32.5 46.5t-102.5 26.5q-84 12 -134 38q-60 32 -60 107q0 72 53.5 115t142.5 43q99 0 191 -56q14 -8 6 -25l-16 -28q-10 -18 -24 -8q-77 47 -152 47q-57 0 -87 -22t-30 -61q0 -34 28 -48
t106 -24q95 -13 144.5 -47t49.5 -99q0 -72 -55.5 -116t-150.5 -44q-110 0 -207 64q-11 9 -4 25zM198 596l125 133q5 6 9 6q8 0 14 -11l22 -35q8 -13 -4 -23l-87 -78q-14 -11 -29 -11h-47q-21 0 -3 19z" />
    <glyph glyph-name="Scircumflex" unicode="&#x15c;" horiz-adv-x="639" 
d="M56 91l23 38q6 11 13 11q4 0 11 -4q98 -65 217 -65q81 0 128.5 30t47.5 93q0 54 -45 80t-151 41q-97 12 -158 46q-78 43 -78 138q0 70 53 135q29 35 81.5 56t119.5 21q70 0 125.5 -17.5t121.5 -58.5q13 -7 4 -24l-22 -38q-9 -12 -15 -12t-10 4q-94 64 -194 64
q-95 0 -134 -38.5t-39 -88.5q0 -56 57 -79q50 -20 136 -31q102 -13 165 -51q74 -43 74 -143q0 -87 -67 -148t-190 -61q-157 0 -270 77q-14 9 -4 25zM177 781l101 145q10 16 24 18h34q14 -2 24 -18l102 -145q11 -17 -7 -17h-36q-16 0 -27 17l-73 111l-72 -111
q-11 -17 -28 -17h-35q-19 0 -7 17z" />
    <glyph glyph-name="scircumflex" unicode="&#x15d;" horiz-adv-x="509" 
d="M49 78l17 29q8 12 13 12q4 0 11 -5q79 -55 165 -55q62 0 95 23t33 62q0 29 -32.5 46.5t-102.5 26.5q-84 12 -134 38q-60 32 -60 107q0 72 53.5 115t142.5 43q99 0 191 -56q14 -8 6 -25l-16 -28q-10 -18 -24 -8q-77 47 -152 47q-57 0 -87 -22t-30 -61q0 -34 28 -48
t106 -24q95 -13 144.5 -47t49.5 -99q0 -72 -55.5 -116t-150.5 -44q-110 0 -207 64q-11 9 -4 25zM112 591l101 145q14 17 25 17h34q10 0 24 -17l101 -145q12 -18 -7 -18h-35q-17 0 -28 18l-72 110l-73 -110q-10 -18 -27 -18h-36q-17 0 -7 18z" />
    <glyph glyph-name="Scedilla" unicode="&#x15e;" horiz-adv-x="634" 
d="M229 -191l11 15q6 8 18 2q35 -23 72 -23q45 0 45 41q0 47 -60 47h-41q-12 0 -12 15l17 85q-123 9 -217 73q-17 10 -7 27l23 38q6 11 13 11q5 0 12 -4q98 -65 212 -65q81 0 128.5 30t47.5 93q0 54 -45 80t-151 41q-96 12 -158 46q-78 43 -78 138q0 70 53 135
q29 35 81.5 56t119.5 21q70 0 125 -17.5t120 -57.5q14 -8 6 -25l-23 -38q-7 -12 -14 -12q-6 0 -10 4q-94 64 -194 64q-96 0 -135 -38.5t-39 -88.5q0 -56 57 -79q50 -20 137 -31q102 -13 165 -51q73 -43 73 -143q0 -87 -67 -148q-65 -61 -192 -61l-7 -52q54 0 83 -24t29 -69
q0 -42 -27 -66.5t-75 -24.5q-42 0 -94 38q-11 8 -2 18z" />
    <glyph glyph-name="scedilla" unicode="&#x15f;" horiz-adv-x="509" 
d="M171 -190l12 15q5 5 8 5t9 -3q41 -23 73 -23q45 0 45 41q0 47 -60 47h-41q-13 0 -13 15l18 84q-94 13 -169 62q-11 9 -4 25l17 29q8 12 13 12q4 0 11 -5q76 -55 165 -55q62 0 95 23t33 62q0 29 -32.5 46.5t-102.5 26.5q-84 12 -134 38q-60 32 -60 107q0 72 53.5 115
t142.5 43q107 0 197 -60q14 -8 6 -25l-16 -28q-10 -18 -24 -8q-84 51 -158 51q-57 0 -87 -22t-30 -61q0 -34 28 -48t106 -24q100 -15 147 -47.5t47 -98.5q0 -71 -54 -114.5t-148 -45.5l-7 -51q112 0 112 -93q0 -42 -27 -66.5t-75 -24.5q-43 0 -93 38q-10 8 -3 18z" />
    <glyph glyph-name="Scaron" unicode="&#x160;" horiz-adv-x="644" 
d="M61 91l23 38q6 11 13 11q4 0 11 -4q98 -65 217 -65q81 0 128.5 30t47.5 93q0 54 -45 80t-151 41q-97 12 -158 46q-78 43 -78 138q0 70 53 135q29 35 81.5 56t119.5 21q70 0 125.5 -17.5t121.5 -58.5q13 -7 4 -24l-22 -38q-9 -12 -15 -12t-10 4q-94 64 -194 64
q-95 0 -134 -38.5t-39 -88.5q0 -56 57 -79q50 -20 136 -31q102 -13 165 -51q74 -43 74 -143q0 -87 -67 -148t-190 -61q-157 0 -270 77q-14 9 -4 25zM282 782l-101 145q-12 17 7 17h35q17 0 28 -17l72 -111l73 111q11 17 27 17h36q18 0 7 -17l-102 -145q-10 -16 -24 -18h-34
q-14 2 -24 18z" />
    <glyph glyph-name="scaron" unicode="&#x161;" horiz-adv-x="509" 
d="M49 78l17 29q8 12 13 12q4 0 11 -5q79 -55 165 -55q62 0 95 23t33 62q0 29 -32.5 46.5t-102.5 26.5q-84 12 -134 38q-60 32 -60 107q0 72 53.5 115t142.5 43q99 0 191 -56q14 -8 6 -25l-16 -28q-10 -18 -24 -8q-77 47 -152 47q-57 0 -87 -22t-30 -61q0 -34 28 -48
t106 -24q95 -13 144.5 -47t49.5 -99q0 -72 -55.5 -116t-150.5 -44q-110 0 -207 64q-11 9 -4 25zM210 591l-101 145q-11 17 7 17h36q16 0 27 -17l73 -111l72 111q11 17 28 17h35q19 0 7 -17l-101 -145q-12 -17 -24 -18h-34q-13 1 -25 18z" />
    <glyph glyph-name="uni0162" unicode="&#x162;" horiz-adv-x="613" 
d="M260 18v598h-232q-18 0 -18 18v49q0 17 18 17h558q10 0 13.5 -3.5t3.5 -13.5v-49q0 -18 -17 -18h-233v-598q0 -18 -17 -18h-58q-18 0 -18 18zM243 -347l-16 25q-4 7 4 12q78 50 78 105h-7q-24 0 -40 17t-16 41t16.5 41t40.5 17q27 0 44 -19.5t17 -52.5
q0 -71 -25.5 -112.5t-83.5 -74.5l-6 -2q-3 0 -6 3z" />
    <glyph glyph-name="uni0163" unicode="&#x163;" horiz-adv-x="440" 
d="M108 211v227h-45q-18 0 -18 17v37q0 17 18 17h45v102q0 10 3.5 13.5t13.5 3.5h53q10 0 13.5 -3.5t3.5 -13.5v-102h172q10 0 13.5 -3.5t3.5 -14.5v-36q0 -10 -3.5 -13.5t-13.5 -3.5h-172v-221q0 -80 25 -114t82 -34q38 0 66 14q7 4 13 4t9 -14l8 -38q3 -15 -9 -22
q-41 -24 -96 -24q-185 0 -185 222zM131 -347l-16 25q-4 7 4 12q78 50 78 105h-7q-24 0 -40 17t-16 41t16.5 41t40.5 17q27 0 44 -19.5t17 -52.5q0 -71 -25.5 -112.5t-83.5 -74.5l-6 -2q-3 0 -6 3z" />
    <glyph glyph-name="Tcaron" unicode="&#x164;" horiz-adv-x="613" 
d="M260 18v598h-232q-18 0 -18 18v49q0 17 18 17h558q10 0 13.5 -3.5t3.5 -13.5v-49q0 -18 -17 -18h-233v-598q0 -18 -17 -18h-58q-18 0 -18 18zM265 782l-101 145q-12 17 7 17h35q17 0 28 -17l72 -111l73 111q11 17 27 17h36q18 0 7 -17l-102 -145q-11 -16 -24 -18h-34
q-13 2 -24 18z" />
    <glyph glyph-name="tcaron" unicode="&#x165;" horiz-adv-x="453" 
d="M109 211v227h-45q-18 0 -18 17v37q0 17 18 17h45v102q0 10 3.5 13.5t13.5 3.5h53q10 0 13.5 -3.5t3.5 -13.5v-102h172q10 0 13.5 -3.5t3.5 -14.5v-36q0 -10 -3.5 -13.5t-13.5 -3.5h-172v-221q0 -80 25 -114t82 -34q38 0 66 14q7 4 13 4t9 -14l8 -38q3 -15 -9 -22
q-40 -24 -96 -24q-185 0 -185 222zM310 590l-16 25q-4 7 4 12q78 49 78 109h-7q-24 0 -40 17t-16 41t16.5 41t40.5 17q27 0 44 -19.5t17 -52.5q0 -70 -26 -113.5t-83 -78.5q-1 0 -3 -1t-3 -1q-3 0 -6 4z" />
    <glyph glyph-name="Tbar" unicode="&#x166;" horiz-adv-x="621" 
d="M264 18v325h-219q-10 0 -13.5 3.5t-3.5 13.5v42q0 17 17 17h219v197h-236q-18 0 -18 18v49q0 17 18 17h566q10 0 13.5 -3.5t3.5 -13.5v-49q0 -18 -17 -18h-237v-197h219q18 0 18 -17v-42q0 -17 -18 -17h-219v-325q0 -18 -17 -18h-58q-18 0 -18 18z" />
    <glyph glyph-name="tbar" unicode="&#x167;" horiz-adv-x="472" 
d="M135 250h-70q-18 0 -18 17v37q0 17 18 17h70v117h-70q-18 0 -18 17v37q0 17 18 17h70v92q0 10 3.5 13.5t13.5 3.5h53q10 0 13.5 -3.5t3.5 -13.5v-92h172q10 0 13.5 -3.5t3.5 -14.5v-36q0 -10 -3.5 -13.5t-13.5 -3.5h-172v-117h172q10 0 13.5 -3.5t3.5 -14.5v-36
q0 -10 -3.5 -13.5t-13.5 -3.5h-172q0 -14 4 -59q4 -66 28 -94t75 -28q36 0 69 16q7 4 13 4t9 -14l8 -38q3 -15 -9 -22q-41 -26 -99 -26q-88 0 -135 54q-19 23 -31 60q-19 57 -19 147z" />
    <glyph glyph-name="Utilde" unicode="&#x168;" horiz-adv-x="718" 
d="M73 288v395q0 10 3.5 13.5t13.5 3.5h58q18 0 18 -17v-390q0 -111 50.5 -167.5t142.5 -56.5q93 0 143.5 56.5t50.5 167.5v390q0 10 3.5 13.5t13.5 3.5h58q18 0 18 -17v-395q0 -143 -80 -223q-80 -78 -207 -78t-207 78q-79 79 -79 223zM206 816l-23 10q-16 7 -9 25
q35 83 107 83q44 0 87 -34q26 -19 37.5 -25t26.5 -6q38 0 57 45q4 13 13 13q5 0 11 -2l22 -10q18 -6 9 -25q-35 -83 -106 -83q-45 0 -86 32q-26 20 -36 25t-29 8q-39 0 -57 -45q-6 -13 -14 -13h-2q-1 1 -3.5 1.5t-4.5 0.5z" />
    <glyph glyph-name="utilde" unicode="&#x169;" 
d="M70 216v276q0 10 3.5 13.5t13.5 3.5h54q10 0 13.5 -3.5t3.5 -13.5v-254q0 -83 34.5 -126t96.5 -43q59 0 95.5 49t36.5 125v249q0 10 3.5 13.5t13.5 3.5h54q10 0 13.5 -3.5t3.5 -13.5v-474q0 -18 -17 -18h-28q-12 0 -20 18l-10 81q-66 -110 -167 -110q-91 0 -144 57
t-53 170zM139 625l-22 10q-16 7 -9 25q35 83 106 83q44 0 87 -34q28 -20 39 -25.5t25 -5.5q41 0 57 45q4 13 13 13q5 0 11 -2l23 -10q16 -6 9 -25q-35 -83 -107 -83q-44 0 -85 32q-26 19 -36 24.5t-30 8.5q-39 0 -57 -45q-6 -13 -14 -13z" />
    <glyph glyph-name="Umacron" unicode="&#x16a;" horiz-adv-x="718" 
d="M73 288v395q0 10 3.5 13.5t13.5 3.5h58q18 0 18 -17v-390q0 -111 50.5 -167.5t142.5 -56.5q93 0 143.5 56.5t50.5 167.5v390q0 10 3.5 13.5t13.5 3.5h58q18 0 18 -17v-395q0 -143 -80 -223q-80 -78 -207 -78t-207 78q-79 79 -79 223zM221 857v29q0 10 3.5 14t14.5 4h242
q10 0 13.5 -3.5t3.5 -13.5v-31q0 -10 -3.5 -13.5t-13.5 -3.5h-242q-11 0 -14.5 3.5t-3.5 14.5z" />
    <glyph glyph-name="umacron" unicode="&#x16b;" 
d="M70 216v276q0 10 3.5 13.5t13.5 3.5h54q10 0 13.5 -3.5t3.5 -13.5v-254q0 -83 34.5 -126t96.5 -43q59 0 95.5 49t36.5 125v249q0 10 3.5 13.5t13.5 3.5h54q10 0 13.5 -3.5t3.5 -13.5v-474q0 -18 -17 -18h-28q-12 0 -20 18l-10 81q-66 -110 -167 -110q-91 0 -144 57
t-53 170zM151 666v29q0 11 3.5 14.5t14.5 3.5h242q10 0 13.5 -3.5t3.5 -13.5v-31q0 -10 -3.5 -13.5t-13.5 -3.5h-242q-11 0 -14.5 4t-3.5 14z" />
    <glyph glyph-name="Ubreve" unicode="&#x16c;" horiz-adv-x="718" 
d="M73 288v395q0 10 3.5 13.5t13.5 3.5h58q18 0 18 -17v-390q0 -111 50.5 -167.5t142.5 -56.5q93 0 143.5 56.5t50.5 167.5v390q0 10 3.5 13.5t13.5 3.5h58q18 0 18 -17v-395q0 -143 -80 -223q-80 -78 -207 -78t-207 78q-79 79 -79 223zM219 918l29 15q4 2 8 2q7 0 11 -10
q15 -36 35 -50t57 -14q38 0 57.5 14t35.5 50q4 10 11 10q4 0 8 -2l29 -15q14 -8 3 -27q-38 -89 -144 -89q-105 0 -143 89q-10 19 3 27z" />
    <glyph glyph-name="ubreve" unicode="&#x16d;" 
d="M70 216v276q0 10 3.5 13.5t13.5 3.5h54q10 0 13.5 -3.5t3.5 -13.5v-254q0 -83 34.5 -126t96.5 -43q59 0 95.5 49t36.5 125v249q0 10 3.5 13.5t13.5 3.5h54q10 0 13.5 -3.5t3.5 -13.5v-474q0 -18 -17 -18h-28q-12 0 -20 18l-10 81q-66 -110 -167 -110q-91 0 -144 57
t-53 170zM153 727l28 15q4 2 8 2q8 0 12 -10q15 -36 35 -50t57 -14t57 14t35 50q4 10 12 10q4 0 8 -2l28 -15q13 -6 4 -27q-38 -89 -144 -89t-144 89q-9 21 4 27z" />
    <glyph glyph-name="Uring" unicode="&#x16e;" horiz-adv-x="718" 
d="M73 288v395q0 10 3.5 13.5t13.5 3.5h58q18 0 18 -17v-390q0 -111 50.5 -167.5t142.5 -56.5q93 0 143.5 56.5t50.5 167.5v390q0 10 3.5 13.5t13.5 3.5h58q18 0 18 -17v-395q0 -143 -80 -223q-80 -78 -207 -78t-207 78q-79 79 -79 223zM282 800q-30 32 -30 79t30 78
q32 32 77 32t77 -32q31 -31 31 -78q0 -48 -31 -79t-77 -31t-77 31zM300 879q0 -26 16.5 -45t42.5 -19t42.5 18.5t16.5 45.5t-16 45.5t-42 18.5t-43 -18.5t-17 -45.5z" />
    <glyph glyph-name="uring" unicode="&#x16f;" 
d="M70 216v276q0 10 3.5 13.5t13.5 3.5h54q10 0 13.5 -3.5t3.5 -13.5v-254q0 -83 34.5 -126t96.5 -43q59 0 95.5 49t36.5 125v249q0 10 3.5 13.5t13.5 3.5h54q10 0 13.5 -3.5t3.5 -13.5v-474q0 -18 -17 -18h-28q-12 0 -20 18l-10 81q-66 -110 -167 -110q-91 0 -144 57
t-53 170zM293 798q46 0 76.5 -31.5t30.5 -78.5t-30.5 -78.5t-76.5 -31.5q-47 0 -77.5 31.5t-30.5 78.5t30.5 78.5t77.5 31.5zM233 688q0 -27 17 -45.5t43 -18.5t42.5 18.5t16.5 45.5t-16.5 45.5t-42.5 18.5t-43 -19t-17 -45z" />
    <glyph glyph-name="Uhungarumlaut" unicode="&#x170;" horiz-adv-x="718" 
d="M73 288v395q0 10 3.5 13.5t13.5 3.5h58q18 0 18 -17v-390q0 -111 50.5 -167.5t142.5 -56.5q93 0 143.5 56.5t50.5 167.5v390q0 10 3.5 13.5t13.5 3.5h58q18 0 18 -17v-395q0 -143 -80 -223q-80 -78 -207 -78t-207 78q-79 79 -79 223zM235 784l123 141q9 15 24 -5l10 -15
q9 -15 -5 -32l-79 -96q-10 -13 -31 -13h-40q-20 0 -2 20zM374 784l123 141q5 6 10 6q6 0 14 -11l10 -15q9 -15 -5 -32l-79 -96q-10 -13 -31 -13h-40q-20 0 -2 20z" />
    <glyph glyph-name="uhungarumlaut" unicode="&#x171;" 
d="M70 216v276q0 10 3.5 13.5t13.5 3.5h54q10 0 13.5 -3.5t3.5 -13.5v-254q0 -83 34.5 -126t96.5 -43q59 0 95.5 49t36.5 125v249q0 10 3.5 13.5t13.5 3.5h54q10 0 13.5 -3.5t3.5 -13.5v-474q0 -18 -17 -18h-28q-12 0 -20 18l-10 81q-66 -110 -167 -110q-91 0 -144 57
t-53 170zM172 593l123 141q5 6 10 6q6 0 14 -11l10 -15q9 -15 -5 -32l-79 -96q-10 -13 -31 -13h-40q-20 0 -2 20zM312 593l123 141q5 6 10 6q6 0 14 -11l10 -15q9 -15 -5 -32l-79 -96q-10 -13 -31 -13h-40q-20 0 -2 20z" />
    <glyph glyph-name="Uogonek" unicode="&#x172;" horiz-adv-x="718" 
d="M463 -161v-28q0 -15 -18 -17q-5 -1 -24 -1q-125 0 -125 106q0 52 57 88q-125 1 -203 80q-77 80 -77 221v395q0 10 3.5 13.5t13.5 3.5h58q18 0 18 -17v-390q0 -111 50.5 -167.5t142.5 -56.5q93 0 143.5 56.5t50.5 167.5v390q0 10 3.5 13.5t13.5 3.5h58q18 0 18 -17v-395
q0 -115 -52.5 -190t-144.5 -100q-45 -19 -66.5 -38t-21.5 -47q0 -60 69 -60q12 0 15 1q10 0 14 -3t4 -12z" />
    <glyph glyph-name="uogonek" unicode="&#x173;" horiz-adv-x="627" 
d="M70 216v276q0 10 3.5 13.5t13.5 3.5h54q10 0 13.5 -3.5t3.5 -13.5v-254q0 -83 34.5 -126t96.5 -43q59 0 95.5 49t36.5 125v249q0 10 3.5 13.5t13.5 3.5h54q10 0 13.5 -3.5t3.5 -13.5v-474q0 -18 -17 -18q-44 -8 -70 -30t-26 -54q0 -30 18.5 -46.5t51.5 -16.5q2 0 7 0.5
t7 0.5q10 0 13.5 -3t3.5 -12v-28q0 -10 -3.5 -13t-13.5 -4q-6 -1 -25 -1q-124 0 -124 106q0 42 31.5 73t84.5 46l-13 81q-66 -110 -167 -110q-91 0 -144 57t-53 170z" />
    <glyph glyph-name="Wcircumflex" unicode="&#x174;" horiz-adv-x="962" 
d="M276 -1l-260 684q-8 17 8 17h73q15 0 23 -17l177 -503l165 516q6 17 15 17h11q7 0 15 -17l164 -516l178 503q5 17 23 17h72q17 0 9 -17l-261 -684q-6 -16 -12 -16h-8q-6 0 -12 16l-174 538l-173 -538q-7 -16 -13 -16h-7q-6 0 -13 16zM340 782l101 145q12 17 24 17h34
q12 0 24 -17l102 -145q11 -18 -7 -18h-36q-16 0 -27 18l-73 110l-72 -110q-10 -18 -28 -18h-35q-19 0 -7 18z" />
    <glyph glyph-name="wcircumflex" unicode="&#x175;" horiz-adv-x="736" 
d="M170 7l-156 485q-8 17 8 17h65q17 0 22 -15l99 -324l141 338q7 16 16 16h7q6 0 16 -16l140 -338l98 322q5 17 23 17h65q10 0 11.5 -3.5t-2.5 -13.5l-156 -485q-6 -18 -15 -18h-6q-10 0 -17 18l-161 381l-160 -381q-8 -18 -17 -18h-7q-8 0 -14 18zM227 591l101 145
q14 17 25 17h34q10 0 24 -17l101 -145q12 -18 -7 -18h-35q-18 0 -28 18l-72 110l-73 -110q-11 -18 -27 -18h-36q-18 0 -7 18z" />
    <glyph glyph-name="Ycircumflex" unicode="&#x176;" horiz-adv-x="632" 
d="M272 18v253l-260 412q-9 17 8 17h68q15 0 24 -17l206 -327l206 327q11 17 24 17h66q19 0 8 -17l-259 -412v-253q0 -10 -3.5 -14t-14.5 -4h-55q-18 0 -18 18zM177 782l101 145q14 17 25 17h34q10 0 24 -17l101 -145q12 -18 -7 -18h-35q-18 0 -28 18l-72 110l-73 -110
q-11 -18 -27 -18h-36q-18 0 -7 18z" />
    <glyph glyph-name="ycircumflex" unicode="&#x177;" horiz-adv-x="522" 
d="M117 -187l98 220l-206 459q-8 17 8 17h62q15 0 23 -17l159 -360h1l158 360q8 17 23 17h61q18 0 9 -17l-303 -679q-8 -17 -23 -17h-61q-18 0 -9 17zM122 591l101 145q14 17 25 17h34q10 0 24 -17l101 -145q12 -18 -7 -18h-35q-17 0 -28 18l-72 110l-73 -110
q-10 -18 -27 -18h-36q-18 0 -7 18z" />
    <glyph glyph-name="Ydieresis" unicode="&#x178;" horiz-adv-x="632" 
d="M272 18v253l-260 412q-9 17 8 17h68q15 0 24 -17l206 -327l206 327q11 17 24 17h66q19 0 8 -17l-259 -412v-253q0 -10 -3.5 -14t-14.5 -4h-55q-18 0 -18 18zM246 830q-14 -14 -35 -14t-35 14t-14 35t14 35q14 15 35 15t35 -15q15 -14 15 -35t-15 -35zM408 915
q20 0 35 -14.5t15 -35.5t-14.5 -35t-35.5 -14t-35.5 14t-14.5 35t14.5 35.5t35.5 14.5z" />
    <glyph glyph-name="Zacute" unicode="&#x179;" horiz-adv-x="619" 
d="M28 9v7q0 6 6 16l418 588h-377q-18 0 -18 17v46q0 17 18 17h510q9 0 9 -8v-8q0 -6 -7 -16l-417 -587h393q17 0 17 -18v-45q0 -18 -17 -18h-527q-8 0 -8 9zM259 787l125 133q4 6 9 6q8 0 14 -11l22 -35q8 -13 -4 -23l-87 -78q-14 -11 -29 -11h-47q-21 0 -3 19z" />
    <glyph glyph-name="zacute" unicode="&#x17a;" horiz-adv-x="489" 
d="M30 9v6q0 7 7 17l285 399h-249q-11 0 -14.5 3.5t-3.5 14.5v43q0 17 18 17h374q9 0 9 -8v-7q0 -7 -7 -17l-282 -399h272q18 0 18 -17v-43q0 -10 -3.5 -14t-14.5 -4h-400q-9 0 -9 9zM197 596l125 133q4 6 9 6q8 0 14 -11l22 -35q8 -13 -4 -23l-87 -78q-14 -11 -29 -11h-47
q-21 0 -3 19z" />
    <glyph glyph-name="Zdotaccent" unicode="&#x17b;" horiz-adv-x="619" 
d="M28 9v7q0 6 6 16l418 588h-377q-18 0 -18 17v46q0 17 18 17h510q9 0 9 -8v-8q0 -6 -7 -16l-417 -587h393q17 0 17 -18v-45q0 -18 -17 -18h-527q-8 0 -8 9zM321 807q-25 0 -41.5 16.5t-16.5 41.5q0 24 16.5 41t41.5 17q24 0 41 -17t17 -41q0 -25 -17 -41.5t-41 -16.5z" />
    <glyph glyph-name="zdotaccent" unicode="&#x17c;" horiz-adv-x="489" 
d="M30 9v6q0 7 7 17l285 399h-249q-11 0 -14.5 3.5t-3.5 14.5v43q0 17 18 17h374q9 0 9 -8v-7q0 -7 -7 -17l-282 -399h272q18 0 18 -17v-43q0 -10 -3.5 -14t-14.5 -4h-400q-9 0 -9 9zM200 674q0 24 17 41t41 17t41.5 -17t17.5 -41t-17.5 -41t-41.5 -17t-41 16.5t-17 41.5z
" />
    <glyph glyph-name="Zcaron" unicode="&#x17d;" horiz-adv-x="619" 
d="M28 9v7q0 6 6 16l418 588h-377q-18 0 -18 17v46q0 17 18 17h510q9 0 9 -8v-8q0 -6 -7 -16l-417 -587h393q17 0 17 -18v-45q0 -18 -17 -18h-527q-8 0 -8 9zM275 782l-101 145q-12 17 7 17h35q17 0 28 -17l72 -111l73 111q11 17 27 17h36q18 0 7 -17l-102 -145
q-11 -16 -24 -18h-34q-13 2 -24 18z" />
    <glyph glyph-name="zcaron" unicode="&#x17e;" horiz-adv-x="489" 
d="M30 9v6q0 7 7 17l285 399h-249q-11 0 -14.5 3.5t-3.5 14.5v43q0 17 18 17h374q9 0 9 -8v-7q0 -7 -7 -17l-282 -399h272q18 0 18 -17v-43q0 -10 -3.5 -14t-14.5 -4h-400q-9 0 -9 9zM214 591l-101 145q-11 17 7 17h36q16 0 27 -17l73 -111l72 111q11 17 28 17h35
q19 0 7 -17l-101 -145q-12 -17 -24 -18h-34q-13 1 -25 18z" />
    <glyph glyph-name="longs" unicode="&#x17f;" horiz-adv-x="415" 
d="M115 18v418h-70q-10 0 -13.5 3.5t-3.5 13.5v37q0 10 3.5 13.5t13.5 3.5h70v31q0 223 186 223q51 0 88 -20q12 -7 9 -22l-8 -38q-3 -14 -9 -14t-13 4q-27 11 -58 11q-57 0 -82 -34.5t-25 -114.5v-515q0 -10 -3.5 -14t-14.5 -4h-52q-18 0 -18 18z" />
    <glyph glyph-name="florin" unicode="&#x192;" horiz-adv-x="482" 
d="M-7 -188l7 38q3 14 9 14t13 -4q29 -17 70 -17q81 0 81 149v444h-89q-18 0 -18 17v37q0 17 18 17h89v31q0 223 185 223q58 0 99 -26q12 -7 9 -22l-8 -38q-3 -14 -9 -14q-1 0 -13 5q-28 16 -69 16q-57 0 -82 -34.5t-25 -114.5v-26h172q10 0 13.5 -3.5t3.5 -13.5v-37
q0 -10 -3.5 -13.5t-13.5 -3.5h-172v-449q0 -114 -39 -168.5t-121 -54.5q-58 0 -99 26q-12 6 -8 22z" />
    <glyph glyph-name="Aringacute" unicode="&#x1fa;" horiz-adv-x="719" 
d="M15 18l330 683q3 3 5 7.5t3.5 6.5t5.5 2h3q5 0 14 -16l331 -683q3 -7 -0.5 -12.5t-10.5 -5.5h-70q-14 0 -23 18l-73 159h-338l-74 -159q-9 -18 -23 -18h-70q-7 0 -10 5.5t0 12.5zM360 557l-136 -300h274l-136 300h-2zM282 800q-30 32 -30 79t30 78q32 32 77 32t77 -32
q31 -31 31 -78q0 -48 -31 -79t-77 -31t-77 31zM300 879q0 -26 16.5 -45t42.5 -19t42.5 18.5t16.5 45.5t-16 45.5t-42 18.5t-43 -18.5t-17 -45.5zM305 1057l125 132q10 15 23 -4l22 -35q7 -13 -4 -23l-87 -79q-14 -11 -29 -11h-47q-20 0 -3 20z" />
    <glyph glyph-name="aringacute" unicode="&#x1fb;" horiz-adv-x="562" 
d="M425 18l-5 61q-69 -90 -196 -90q-73 0 -126 44q-51 43 -51 122t53.5 120.5t147.5 41.5q78 0 157 -32q0 88 -29.5 123.5t-103.5 35.5q-68 0 -152 -16q-2 -1 -7 -1q-9 0 -14 17l-9 36q-5 17 12 22q72 18 173 18q127 0 172 -56q46 -55 46 -184v-262q0 -18 -17 -18h-33
q-12 0 -18 18zM405 144v76q-83 33 -138 33q-133 0 -133 -98q0 -43 31 -70t86 -27q44 0 86 24.5t68 61.5zM204 609q-30 31 -30 79q0 46 30 78q32 32 77 32t77 -32q31 -31 31 -78q0 -48 -31 -79t-77 -31t-77 31zM222 688q0 -26 16.5 -45t42.5 -19t42.5 18.5t16.5 45.5
t-16 45.5t-42 18.5t-43 -18.5t-17 -45.5zM224 873l125 132q10 15 23 -4l22 -35q7 -13 -4 -23l-87 -79q-14 -11 -29 -11h-47q-20 0 -3 20z" />
    <glyph glyph-name="AEacute" unicode="&#x1fc;" horiz-adv-x="978" 
d="M15 18l377 655q15 27 24 27h483q18 0 18 -17v-46q0 -17 -18 -17h-371v-226h348q18 0 18 -18v-45q0 -11 -4 -14.5t-14 -3.5h-348v-232h371q11 0 14.5 -3.5t3.5 -14.5v-45q0 -10 -3.5 -14t-14.5 -4h-454q-17 0 -17 18v159h-218l-92 -159q-8 -18 -23 -18h-70q-7 0 -10 5.5
t0 12.5zM428 570l-176 -313h176v313zM501 787l125 133q4 6 9 6q8 0 14 -11l22 -35q8 -13 -4 -23l-87 -78q-14 -11 -29 -11h-47q-21 0 -3 19z" />
    <glyph glyph-name="aeacute" unicode="&#x1fd;" horiz-adv-x="933" 
d="M101 444l-9 36q-5 17 12 22q9 3 72 11q53 7 104 7q67 0 107.5 -17.5t67.5 -59.5q82 77 191 77q119 0 182 -83q64 -82 64 -192v-4q0 -17 -17 -17h-374v-54q18 -44 59.5 -74t90.5 -30q85 0 152 46q12 5 14 5q7 0 11 -6l22 -28q11 -14 2 -23q-33 -33 -89 -52t-117 -19
q-64 0 -116 33q-52 35 -75 77q-37 -43 -97 -76q-61 -34 -134 -34q-76 0 -126 43q-51 44 -51 121q0 80 52.5 122t144.5 42q88 0 167 -32v69q-9 49 -41 69.5t-96 20.5q-68 0 -152 -16q-17 0 -21 16zM127 153q0 -42 30.5 -68.5t84.5 -26.5q45 0 95 26t74 60v76q-85 33 -148 33
q-66 0 -101 -26t-35 -74zM503 356v-72h299q-5 70 -44 115q-39 48 -113 48q-93 0 -142 -91zM392 596l125 133q5 6 9 6q8 0 14 -11l22 -35q8 -13 -4 -23l-87 -78q-14 -11 -29 -11h-47q-21 0 -3 19z" />
    <glyph glyph-name="Oslashacute" unicode="&#x1fe;" horiz-adv-x="814" 
d="M171 -25l39 73q-74 50 -117.5 130.5t-43.5 172.5q0 149 105 255q105 107 253 107q65 0 135 -26l22 42q8 14 22 14h31q25 0 15 -19l-36 -66q70 -49 119 -124q51 -76 51 -184q0 -150 -106 -256q-105 -107 -253 -107q-77 0 -143 32l-25 -48q-8 -14 -22 -14h-31q-26 0 -15 18
zM555 579l-252 -486q53 -24 104 -24q112 0 188 85q77 86 77 196q0 132 -117 229zM252 127l252 484q-55 20 -97 20q-110 0 -188 -85q-77 -87 -76 -196q1 -127 109 -223zM357 787l125 133q4 6 9 6q8 0 14 -11l22 -35q8 -13 -4 -23l-87 -78q-14 -11 -29 -11h-47q-21 0 -3 19z
" />
    <glyph glyph-name="oslashacute" unicode="&#x1ff;" horiz-adv-x="620" 
d="M124 -27l32 64q-51 36 -81.5 94t-30.5 123q0 109 77 188q77 78 186 78q49 0 91 -17l20 36q8 15 24 15h30q23 0 14 -18l-33 -61q55 -37 86.5 -95t31.5 -126q0 -110 -78 -188q-77 -77 -186 -77q-50 0 -97 19l-18 -37q-7 -16 -24 -16h-29q-24 0 -15 18zM413 398l-166 -317
q26 -14 60 -14q73 0 124 54q52 55 52 133q0 83 -70 144zM196 114l164 317q-29 10 -53 10q-73 0 -125 -55q-51 -54 -51 -132q0 -75 65 -140zM247 596l125 133q4 6 9 6q8 0 14 -11l22 -35q8 -13 -4 -23l-87 -78q-14 -11 -29 -11h-47q-21 0 -3 19z" />
    <glyph glyph-name="uni0218" unicode="&#x218;" horiz-adv-x="639" 
d="M56 91l23 38q6 11 13 11q4 0 11 -4q98 -65 217 -65q81 0 128.5 30t47.5 93q0 54 -45 80t-151 41q-97 12 -158 46q-78 43 -78 138q0 70 53 135q29 35 81.5 56t119.5 21q70 0 125.5 -17.5t121.5 -58.5q13 -7 4 -24l-22 -38q-9 -12 -15 -12t-10 4q-94 64 -194 64
q-95 0 -134 -38.5t-39 -88.5q0 -56 57 -79q50 -20 136 -31q102 -13 165 -51q74 -43 74 -143q0 -87 -67 -148t-190 -61q-157 0 -270 77q-14 9 -4 25zM272 -347l-16 25q-4 7 4 12q78 50 78 105h-7q-24 0 -40 17t-16 41t16.5 41t40.5 17q27 0 44 -19.5t17 -52.5
q0 -71 -25.5 -112.5t-83.5 -74.5l-6 -2q-3 0 -6 3z" />
    <glyph glyph-name="uni0219" unicode="&#x219;" horiz-adv-x="509" 
d="M49 78l17 29q8 12 13 12q4 0 11 -5q79 -55 165 -55q62 0 95 23t33 62q0 29 -32.5 46.5t-102.5 26.5q-84 12 -134 38q-60 32 -60 107q0 72 53.5 115t142.5 43q99 0 191 -56q14 -8 6 -25l-16 -28q-10 -18 -24 -8q-77 47 -152 47q-57 0 -87 -22t-30 -61q0 -34 28 -48
t106 -24q95 -13 144.5 -47t49.5 -99q0 -72 -55.5 -116t-150.5 -44q-110 0 -207 64q-11 9 -4 25zM205 -347l-16 25q-4 7 4 12q78 50 78 105h-7q-24 0 -40 17t-16 41t16.5 41t40.5 17q27 0 44 -19.5t17 -52.5q0 -71 -25.5 -112.5t-83.5 -74.5l-6 -2q-3 0 -6 3z" />
    <glyph glyph-name="uni021A" unicode="&#x21a;" horiz-adv-x="613" 
d="M260 18v598h-232q-18 0 -18 18v49q0 17 18 17h558q10 0 13.5 -3.5t3.5 -13.5v-49q0 -18 -17 -18h-233v-598q0 -18 -17 -18h-58q-18 0 -18 18zM243 -347l-16 25q-4 7 4 12q78 50 78 105h-7q-24 0 -40 17t-16 41t16.5 41t40.5 17q27 0 44 -19.5t17 -52.5
q0 -71 -25.5 -112.5t-83.5 -74.5l-6 -2q-3 0 -6 3z" />
    <glyph glyph-name="uni021B" unicode="&#x21b;" horiz-adv-x="440" 
d="M108 211v227h-45q-18 0 -18 17v37q0 17 18 17h45v102q0 10 3.5 13.5t13.5 3.5h53q10 0 13.5 -3.5t3.5 -13.5v-102h172q10 0 13.5 -3.5t3.5 -14.5v-36q0 -10 -3.5 -13.5t-13.5 -3.5h-172v-221q0 -80 25 -114t82 -34q38 0 66 14q7 4 13 4t9 -14l8 -38q3 -15 -9 -22
q-41 -24 -96 -24q-185 0 -185 222zM129 -347l-16 25q-5 8 3 12q78 50 78 105h-6q-24 0 -40.5 17t-16.5 41t17 41t41 17q27 0 43.5 -19.5t16.5 -52.5q0 -70 -25.5 -111.5t-82.5 -75.5l-6 -2q-3 0 -6 3z" />
    <glyph glyph-name="circumflex" unicode="&#x2c6;" horiz-adv-x="382" 
d="M49 591l101 145q12 17 24 17h34q12 0 24 -17l102 -145q10 -18 -7 -18h-36q-17 0 -27 18l-73 110l-72 -110q-11 -18 -28 -18h-35q-19 0 -7 18z" />
    <glyph glyph-name="caron" unicode="&#x2c7;" horiz-adv-x="382" 
d="M150 591l-101 145q-12 17 7 17h35q17 0 28 -17l72 -111l73 111q11 17 27 17h36q18 0 7 -17l-102 -145q-10 -17 -24 -18h-34q-14 1 -24 18z" />
    <glyph glyph-name="uni02C9" unicode="&#x2c9;" horiz-adv-x="395" 
d="M59 666v29q0 11 3.5 14.5t14.5 3.5h242q10 0 13.5 -3.5t3.5 -13.5v-31q0 -10 -3.5 -13.5t-13.5 -3.5h-242q-11 0 -14.5 4t-3.5 14z" />
    <glyph glyph-name="breve" unicode="&#x2d8;" horiz-adv-x="361" 
d="M40 727l29 15q4 2 8 2q7 0 11 -10q15 -36 35 -50t57 -14q38 0 57.5 14t35.5 50q4 10 11 10q4 0 8 -2l29 -15q13 -7 3 -27q-38 -89 -144 -89q-105 0 -143 89q-11 20 3 27z" />
    <glyph glyph-name="dotaccent" unicode="&#x2d9;" horiz-adv-x="184" 
d="M92 616q-25 0 -41.5 16.5t-16.5 41.5q0 24 16.5 41t41.5 17q24 0 41 -17t17 -41q0 -25 -17 -41.5t-41 -16.5z" />
    <glyph glyph-name="ring" unicode="&#x2da;" horiz-adv-x="293" 
d="M147 798q46 0 76.5 -31.5t30.5 -78.5t-30.5 -78.5t-76.5 -31.5q-47 0 -77.5 31.5t-30.5 78.5t30.5 78.5t77.5 31.5zM87 688q0 -27 17 -45.5t43 -18.5t42.5 18.5t16.5 45.5t-16.5 45.5t-42.5 18.5t-43 -19t-17 -45z" />
    <glyph glyph-name="ogonek" unicode="&#x2db;" horiz-adv-x="236" 
d="M199 -161v-28q0 -15 -18 -17q-5 -1 -23 -1q-126 0 -126 109q0 76 91 112l71 -14q-44 -8 -70.5 -30.5t-26.5 -53.5q0 -30 18.5 -46.5t51.5 -16.5q2 0 7 0.5t7 0.5q10 0 14 -3t4 -12z" />
    <glyph glyph-name="tilde" unicode="&#x2dc;" horiz-adv-x="443" 
d="M69 625l-22 10q-16 7 -9 25q35 83 106 83q44 0 87 -34q28 -20 39 -25.5t25 -5.5q41 0 57 45q4 13 13 13q5 0 11 -2l23 -10q16 -6 9 -25q-35 -83 -107 -83q-44 0 -85 32q-26 19 -36 24.5t-30 8.5q-39 0 -57 -45q-6 -13 -14 -13z" />
    <glyph glyph-name="hungarumlaut" unicode="&#x2dd;" horiz-adv-x="370" 
d="M41 593l123 141q9 15 24 -5l10 -15q9 -15 -5 -32l-79 -96q-10 -13 -31 -13h-40q-20 0 -2 20zM180 593l123 141q5 6 10 6q6 0 14 -11l10 -15q9 -15 -5 -32l-79 -96q-10 -13 -31 -13h-40q-20 0 -2 20z" />
    <glyph glyph-name="uni0394" unicode="&#x394;" horiz-adv-x="772" 
d="M19 27l345 659q14 27 22 27h3q8 0 22 -27l345 -659q7 -16 4 -21.5t-17 -5.5h-711q-14 0 -17 5.5t4 21.5zM388 548l-239 -467l477 -1z" />
    <glyph glyph-name="uni03A9" unicode="&#x3a9;" horiz-adv-x="852" 
d="M52 18v45q0 18 17 18h146q-68 48 -107 119q-41 74 -41 150q0 150 105 256q105 107 253 107t253 -107q106 -106 106 -256q0 -74 -47 -148q-46 -73 -115 -121h163q11 0 14.5 -3.5t3.5 -14.5v-45q0 -10 -3.5 -14t-14.5 -4h-254q-11 0 -14.5 4t-3.5 14v26q0 17 28 54
q36 32 49 48q23 25 45 53q55 70 55 151q0 110 -77 196q-76 85 -188 85q-110 0 -188 -86q-78 -85 -76 -195q1 -128 135 -252q28 -37 28 -54v-26q0 -18 -18 -18h-237q-17 0 -17 18z" />
    <glyph glyph-name="uni03BC" unicode="&#x3bc;" horiz-adv-x="620" 
d="M95 -187v679q0 10 3.5 13.5t13.5 3.5h54q10 0 13.5 -3.5t3.5 -13.5v-253q0 -170 122 -170q59 0 95 53q37 53 37 133v237q0 10 3.5 13.5t13.5 3.5h54q10 0 13.5 -3.5t3.5 -13.5v-474q0 -18 -17 -18h-28q-12 0 -20 18l-10 83l-15 -21l-18 -22l-17 -20q-12 -13 -48 -35
q-24 -14 -66 -14q-71 0 -103 53v-229q0 -10 -3.5 -13.5t-13.5 -3.5h-54q-10 0 -13.5 3.5t-3.5 13.5z" />
    <glyph glyph-name="pi" unicode="&#x3c0;" horiz-adv-x="747" 
d="M162 18v411h-129q-18 0 -18 17v46q0 17 18 17h642q10 0 13.5 -3.5t3.5 -13.5v-46q0 -10 -3.5 -13.5t-13.5 -3.5h-172v-212q0 -80 25 -114t82 -34q40 0 66 14q7 4 13 4t9 -14l7 -38q4 -14 -8 -22q-37 -24 -91 -24q-100 0 -145.5 56t-45.5 166v218h-166v-411q0 -18 -17 -18
h-53q-17 0 -17 18z" />
    <glyph glyph-name="Wgrave" unicode="&#x1e80;" horiz-adv-x="962" 
d="M276 -1l-260 684q-8 17 8 17h73q15 0 23 -17l177 -503l165 516q6 17 15 17h11q7 0 15 -17l164 -516l178 503q5 17 23 17h72q17 0 9 -17l-261 -684q-6 -16 -12 -16h-8q-6 0 -12 16l-174 538l-173 -538q-7 -16 -13 -16h-7q-6 0 -13 16zM340 880l22 35q6 11 14 11q6 0 10 -6
l124 -133q19 -19 -2 -19h-48q-14 0 -28 11l-87 78q-13 11 -5 23z" />
    <glyph glyph-name="wgrave" unicode="&#x1e81;" horiz-adv-x="736" 
d="M170 7l-156 485q-8 17 8 17h65q17 0 22 -15l99 -324l141 338q7 16 16 16h7q6 0 16 -16l140 -338l98 322q5 17 23 17h65q10 0 11.5 -3.5t-2.5 -13.5l-156 -485q-6 -18 -15 -18h-6q-10 0 -17 18l-161 381l-160 -381q-8 -18 -17 -18h-7q-8 0 -14 18zM228 689l22 35
q6 11 14 11q4 0 9 -6l125 -133q18 -19 -3 -19h-47q-15 0 -29 11l-87 78q-12 10 -4 23z" />
    <glyph glyph-name="Wacute" unicode="&#x1e82;" horiz-adv-x="962" 
d="M276 -1l-260 684q-8 17 8 17h73q15 0 23 -17l177 -503l165 516q6 17 15 17h11q7 0 15 -17l164 -516l178 503q5 17 23 17h72q17 0 9 -17l-261 -684q-6 -16 -12 -16h-8q-6 0 -12 16l-174 538l-173 -538q-7 -16 -13 -16h-7q-6 0 -13 16zM434 787l125 133q5 6 9 6q8 0 14 -11
l22 -35q8 -13 -4 -23l-87 -78q-14 -11 -29 -11h-47q-21 0 -3 19z" />
    <glyph glyph-name="wacute" unicode="&#x1e83;" horiz-adv-x="736" 
d="M170 7l-156 485q-8 17 8 17h65q17 0 22 -15l99 -324l141 338q7 16 16 16h7q6 0 16 -16l140 -338l98 322q5 17 23 17h65q10 0 11.5 -3.5t-2.5 -13.5l-156 -485q-6 -18 -15 -18h-6q-10 0 -17 18l-161 381l-160 -381q-8 -18 -17 -18h-7q-8 0 -14 18zM317 596l125 133
q4 6 9 6q8 0 14 -11l22 -35q8 -13 -4 -23l-87 -78q-14 -11 -29 -11h-47q-21 0 -3 19z" />
    <glyph glyph-name="Wdieresis" unicode="&#x1e84;" horiz-adv-x="962" 
d="M276 -1l-260 684q-8 17 8 17h73q15 0 23 -17l177 -503l165 516q6 17 15 17h11q7 0 15 -17l164 -516l178 503q5 17 23 17h72q17 0 9 -17l-261 -684q-6 -16 -12 -16h-8q-6 0 -12 16l-174 538l-173 -538q-7 -16 -13 -16h-7q-6 0 -13 16zM385 915q20 0 35 -14.5t15 -35.5
t-14.5 -35t-35.5 -14t-35.5 14t-14.5 35t14.5 35.5t35.5 14.5zM616 830q-14 -14 -35 -14t-35 14t-14 35t14 35q14 15 35 15t35 -15q15 -14 15 -35t-15 -35z" />
    <glyph glyph-name="wdieresis" unicode="&#x1e85;" horiz-adv-x="736" 
d="M170 7l-156 485q-8 17 8 17h65q17 0 22 -15l99 -324l141 338q7 16 16 16h7q6 0 16 -16l140 -338l98 322q5 17 23 17h65q10 0 11.5 -3.5t-2.5 -13.5l-156 -485q-6 -18 -15 -18h-6q-10 0 -17 18l-161 381l-160 -381q-8 -18 -17 -18h-7q-8 0 -14 18zM271 724q20 0 35 -14.5
t15 -35.5t-14.5 -35t-35.5 -14t-35.5 14t-14.5 35t14.5 35.5t35.5 14.5zM502 639q-14 -14 -35 -14t-35 14t-14 35t14 35q14 15 35 15t35 -15q15 -14 15 -35t-15 -35z" />
    <glyph glyph-name="Ygrave" unicode="&#x1ef2;" horiz-adv-x="632" 
d="M272 18v253l-260 412q-9 17 8 17h68q15 0 24 -17l206 -327l206 327q11 17 24 17h66q19 0 8 -17l-259 -412v-253q0 -10 -3.5 -14t-14.5 -4h-55q-18 0 -18 18zM214 880l22 35q6 11 14 11q4 0 9 -6l125 -133q18 -19 -3 -19h-47q-15 0 -29 11l-87 78q-12 10 -4 23z" />
    <glyph glyph-name="ygrave" unicode="&#x1ef3;" horiz-adv-x="522" 
d="M117 -187l98 220l-206 459q-8 17 8 17h62q15 0 23 -17l159 -360h1l158 360q8 17 23 17h61q18 0 9 -17l-303 -679q-8 -17 -23 -17h-61q-18 0 -9 17zM162 689l22 35q6 11 14 11q4 0 9 -6l125 -133q18 -19 -3 -19h-47q-15 0 -29 11l-87 78q-12 10 -4 23z" />
    <glyph glyph-name="endash" unicode="&#x2013;" horiz-adv-x="408" 
d="M45 266v35q0 11 3.5 14.5t14.5 3.5h283q10 0 13.5 -3.5t3.5 -13.5v-36q0 -10 -3.5 -13.5t-13.5 -3.5h-283q-18 0 -18 17z" />
    <glyph glyph-name="emdash" unicode="&#x2014;" horiz-adv-x="577" 
d="M45 266v35q0 11 3.5 14.5t14.5 3.5h452q10 0 13.5 -3.5t3.5 -13.5v-36q0 -10 -3.5 -13.5t-13.5 -3.5h-452q-18 0 -18 17z" />
    <glyph glyph-name="quoteleft" unicode="&#x2018;" horiz-adv-x="273" 
d="M205 709l16 -25q5 -8 -3 -12q-73 -48 -85 -117h7q26 -1 44.5 -19.5t18.5 -44.5q0 -27 -18.5 -46t-45.5 -19q-30 0 -49 22.5t-19 61.5q0 135 122 200q1 0 3 1t3 1q3 0 6 -3z" />
    <glyph glyph-name="quoteright" unicode="&#x2019;" horiz-adv-x="273" 
d="M68 430l-16 25q-4 7 4 12q74 48 84 117h-6q-27 1 -45 19.5t-18 44.5q0 27 18.5 46t45.5 19q30 0 49 -22.5t19 -61.5q0 -136 -123 -200l-6 -2q-3 0 -6 3z" />
    <glyph glyph-name="quotesinglbase" unicode="&#x201a;" horiz-adv-x="273" 
d="M68 -165l-16 25q-4 7 4 12q74 46 84 117h-6q-27 0 -45 18.5t-18 45.5t18.5 46t45.5 19q30 0 49 -22.5t19 -61.5q0 -135 -123 -201l-6 -2q-3 0 -6 4z" />
    <glyph glyph-name="quotedblleft" unicode="&#x201c;" horiz-adv-x="474" 
d="M205 709l16 -25q5 -8 -3 -12q-73 -46 -85 -117h7q26 0 44.5 -18.5t18.5 -45.5t-18.5 -46t-45.5 -19q-30 0 -49 22.5t-19 61.5q0 136 122 201q1 0 3 1t3 1q3 0 6 -4zM406 709l16 -25q4 -8 -3 -12q-73 -46 -85 -117h7q26 0 44.5 -18.5t18.5 -45.5t-18.5 -46t-45.5 -19
q-30 0 -49 22.5t-19 61.5q0 136 122 201l6 2q3 0 6 -4z" />
    <glyph glyph-name="quotedblright" unicode="&#x201d;" horiz-adv-x="474" 
d="M68 430l-16 25q-4 7 4 12q74 48 84 117h-6q-27 1 -45 19.5t-18 44.5q0 27 18.5 46t45.5 19q30 0 49 -22.5t19 -61.5q0 -136 -123 -200l-6 -2q-3 0 -6 3zM269 430l-16 25q-4 7 4 12q73 48 84 117h-6q-27 1 -45 19.5t-18 44.5q0 27 18.5 46t45.5 19q30 0 49 -22.5t19 -61.5
q0 -136 -123 -200l-6 -2q-3 0 -6 3z" />
    <glyph glyph-name="quotedblbase" unicode="&#x201e;" horiz-adv-x="474" 
d="M68 -165l-16 25q-4 7 4 12q74 46 84 117h-6q-27 0 -45 18.5t-18 45.5t18.5 46t45.5 19q30 0 49 -22.5t19 -61.5q0 -135 -123 -201l-6 -2q-3 0 -6 4zM269 -165l-16 25q-4 7 4 12q73 46 84 117h-6q-27 0 -45 18.5t-18 45.5t18.5 46t45.5 19q30 0 49 -22.5t19 -61.5
q0 -135 -123 -201l-6 -2q-3 0 -6 4z" />
    <glyph glyph-name="dagger" unicode="&#x2020;" horiz-adv-x="414" 
d="M177 -82l-7 495h-106q-18 0 -18 17v36q0 17 18 17h106v200q0 10 3.5 13.5t13.5 3.5h40q18 0 18 -17v-200h106q10 0 13.5 -3.5t3.5 -13.5v-36q0 -10 -3.5 -13.5t-13.5 -3.5h-107l-7 -495q0 -17 -18 -17h-24q-18 0 -18 17z" />
    <glyph glyph-name="daggerdbl" unicode="&#x2021;" horiz-adv-x="424" 
d="M175 -82v208h-106q-11 0 -14.5 4t-3.5 14v35q0 11 3.5 14.5t14.5 3.5h106v244h-106q-11 0 -14.5 3.5t-3.5 14.5v35q0 10 3.5 14t14.5 4h106v171q0 10 3.5 13.5t13.5 3.5h40q18 0 18 -17v-171h106q17 0 17 -18v-35q0 -18 -17 -18h-106v-244h106q17 0 17 -18v-35
q0 -18 -17 -18h-106v-208q0 -17 -18 -17h-40q-10 0 -13.5 3.5t-3.5 13.5z" />
    <glyph glyph-name="bullet" unicode="&#x2022;" horiz-adv-x="243" 
d="M41 343q0 33 23 56.5t57 23.5t57.5 -23.5t23.5 -56.5q0 -34 -23.5 -57t-57.5 -23t-57 23t-23 57z" />
    <glyph glyph-name="ellipsis" unicode="&#x2026;" horiz-adv-x="751" 
d="M181 7q-19 -18 -46 -18t-46 18q-18 19 -18 46t18 46q19 19 46 19t46 -19t19 -46t-19 -46zM421 7q-19 -18 -46 -18t-46 18q-18 19 -18 46t18 46q19 19 46 19t46 -19t19 -46t-19 -46zM662 7q-19 -18 -46 -18t-46 18q-18 19 -18 46t18 46q19 19 46 19t46 -19t19 -46t-19 -46
z" />
    <glyph glyph-name="perthousand" unicode="&#x2030;" horiz-adv-x="1260" 
d="M536 44q-46 46 -46 133q0 86 46 132q47 47 122 47t122 -47q46 -46 46 -132q0 -87 -46 -133t-122 -46t-122 46zM583 267q-27 -33 -27 -90t27 -90t75 -33t75 33t27 90t-27 90q-27 34 -75 34t-75 -34zM83 401q-46 46 -46 133q0 86 46 132q47 47 122 47t122 -47t47 -132
q0 -86 -47 -133q-46 -46 -122 -46t-122 46zM130 624q-27 -33 -27 -90t27 -90t75 -33t75 33q28 32 28 90t-28 90q-27 34 -75 34t-75 -34zM159 18l471 669q9 13 22 13h42q25 0 11 -17l-471 -669q-11 -14 -23 -14h-41q-23 0 -11 18zM933 44q-46 46 -46 133q0 86 46 132
q47 47 122 47t122 -47q46 -46 46 -132q0 -87 -46 -133t-122 -46t-122 46zM980 267q-27 -33 -27 -90t27 -90t75 -33t75 33t27 90t-27 90q-27 34 -75 34t-75 -34z" />
    <glyph glyph-name="guilsinglleft" unicode="&#x2039;" horiz-adv-x="331" 
d="M218 33l-167 185q-16 19 -16 33v6q0 15 16 34l167 185q8 8 13 8q3 0 10 -4l35 -20q14 -9 3 -23l-152 -183l152 -182q10 -13 -3 -23l-35 -20q-11 -8 -23 4z" />
    <glyph glyph-name="guilsinglright" unicode="&#x203a;" horiz-adv-x="331" 
d="M91 29l-35 20q-13 10 -3 23l152 182l-152 183q-11 14 3 23l35 20q7 4 10 4q5 0 13 -8l167 -185q16 -19 16 -34v-6q0 -14 -16 -33l-167 -185q-12 -12 -23 -4z" />
    <glyph glyph-name="fraction" unicode="&#x2044;" horiz-adv-x="470" 
d="M41 18l333 667q8 15 22 15h30q22 0 14 -17l-332 -668q-8 -15 -23 -15h-29q-24 0 -15 18z" />
    <glyph glyph-name="uni2070" unicode="&#x2070;" horiz-adv-x="0" 
 />
    <glyph glyph-name="uni2080" unicode="&#x2080;" horiz-adv-x="312" 
 />
    <glyph glyph-name="uni2081" unicode="&#x2081;" horiz-adv-x="185" 
d="M90 10v231l-65 -22q-10 0 -10 8v28q0 7 6 11l67 36q14 8 21 8h26q10 0 10 -10v-290q0 -10 -10 -10h-35q-10 0 -10 10z" />
    <glyph glyph-name="uni2083" unicode="&#x2083;" horiz-adv-x="0" 
 />
    <glyph glyph-name="uni2086" unicode="&#x2086;" horiz-adv-x="0" 
 />
    <glyph glyph-name="uni2088" unicode="&#x2088;" horiz-adv-x="0" 
 />
    <glyph glyph-name="peseta" unicode="&#x20a7;" horiz-adv-x="1544" 
 />
    <glyph glyph-name="Euro" unicode="&#x20ac;" horiz-adv-x="627" 
d="M110 245h-80q-17 0 -17 18v10q0 18 17 18h69q-5 35 -5 65l2 37h-66q-17 0 -17 18v10q0 18 17 18h73q24 121 114 197q91 77 213 77q74 0 140 -27q15 -5 7 -23l-16 -44q-5 -12 -12 -12q-4 0 -10 3q-47 21 -109 21q-93 0 -152 -56q-57 -54 -80 -136h284q10 0 14 -3.5
t4 -14.5v-11q0 -17 -18 -17h-292l-2 -37q0 -29 6 -65h288q10 0 14 -3.5t4 -14.5v-11q0 -17 -18 -17h-275q23 -71 79 -123q59 -53 144 -53q62 0 108 21q6 3 10 3q8 0 12 -12l16 -44q8 -18 -6 -23q-62 -27 -140 -27q-116 0 -204 73t-116 185z" />
    <glyph glyph-name="uni2113" unicode="&#x2113;" horiz-adv-x="476" 
d="M34 221l-2 13q-3 17 10 21q26 9 70 21v215q0 99 30 155q36 65 140 65q68 0 107 -43q75 -81 8 -246q-56 -110 -233 -177v-24q0 -184 157 -184q14 0 38 6t35 14q16 14 21 -8l4 -12q4 -14 -8 -22q-40 -26 -99 -26q-95 0 -147.5 59.5t-52.5 160.5v18l-56 -16q-6 -2 -11 -2
q-9 0 -11 12zM164 491v-196q68 27 118.5 66t71.5 83q23 52 25 101.5t-22.5 84t-74.5 34.5q-63 0 -90.5 -40t-27.5 -133z" />
    <glyph glyph-name="trademark" unicode="&#x2122;" horiz-adv-x="889" 
d="M145 323v323h-126q-9 0 -9 9v37q0 8 9 8h310q9 0 9 -8v-37q0 -9 -9 -9h-125v-323q0 -8 -10 -8h-40q-9 0 -9 8zM378 325l46 378q2 5 4 5h4q2 0 7 -5l176 -312l177 312q5 5 8 5h3q3 0 5 -5l45 -378q3 -10 -9 -10h-37q-8 0 -9 10l-27 248l-142 -255q-7 -10 -12 -10h-4
q-4 0 -11 10l-140 255l-29 -248q-1 -10 -10 -10h-37q-11 0 -8 10z" />
    <glyph glyph-name="Omega" unicode="&#x2126;" horiz-adv-x="852" 
d="M52 18v45q0 18 17 18h146q-68 48 -107 119q-41 74 -41 150q0 150 105 256q105 107 253 107t253 -107q106 -106 106 -256q0 -74 -47 -148q-46 -73 -115 -121h163q11 0 14.5 -3.5t3.5 -14.5v-45q0 -10 -3.5 -14t-14.5 -4h-254q-11 0 -14.5 4t-3.5 14v26q0 17 28 54
q36 32 49 48q23 25 45 53q55 70 55 151q0 110 -77 196q-76 85 -188 85q-110 0 -188 -86q-78 -85 -76 -195q1 -128 135 -252q28 -37 28 -54v-26q0 -18 -18 -18h-237q-17 0 -17 18z" />
    <glyph glyph-name="estimated" unicode="&#x212e;" horiz-adv-x="802" 
d="M743 319h-575v-141q39 -59 99.5 -96t134.5 -37q59 0 114 25.5t93 66.5q8 8 13 8q4 0 12 -8l19 -21q13 -13 -1 -27q-109 -103 -250 -103q-148 0 -253 107t-105 257t105 256q105 107 253 107t253 -107q106 -106 106 -256v-14q0 -10 -3.5 -13.5t-14.5 -3.5zM168 521v-143
h466v147q-87 129 -232 129q-78 0 -139 -40q-60 -39 -95 -93z" />
    <glyph glyph-name="oneeighth" unicode="&#x215b;" horiz-adv-x="654" 
d="M92 18l343 667q7 15 22 15h30q23 0 14 -17l-342 -668q-7 -15 -23 -15h-29q-24 0 -15 18zM437 159v1q-15 4 -34 23t-21 50q0 40 29 65t80 25t80.5 -25t29.5 -65q-1 -31 -20 -50t-34 -23v-1q19 -5 40.5 -25.5t21.5 -54.5q0 -41 -31 -66.5t-87 -25.5q-55 0 -86 25.5
t-31 66.5q0 31 20 52.5t43 27.5zM422 82q0 -52 69 -52q71 0 71 52q0 24 -20 39.5t-51 18.5q-31 -3 -50 -18.5t-19 -39.5zM491 179q29 2 46 16t17 36t-17 36t-46 14q-39 2 -55 -24t0 -52.5t55 -25.5zM118 400v229l-63 -21h-4q-6 0 -6 7v30q0 7 6 11l67 36q14 8 21 8h26
q10 0 10 -10v-290q0 -10 -10 -10h-37q-10 0 -10 10z" />
    <glyph glyph-name="threeeighths" unicode="&#x215c;" horiz-adv-x="706" 
d="M144 18l343 667q7 15 22 15h30q23 0 14 -17l-342 -668q-7 -15 -23 -15h-29q-24 0 -15 18zM489 159v1q-15 4 -34 23t-21 50q0 40 29 65t80 25t80.5 -25t29.5 -65q-1 -31 -20 -50t-34 -23v-1q19 -5 40.5 -25.5t21.5 -54.5q0 -41 -31 -66.5t-87 -25.5q-55 0 -86 25.5
t-31 66.5q0 31 20 52.5t43 27.5zM474 82q0 -52 69 -52q71 0 71 52q0 24 -20 39.5t-51 18.5q-31 -3 -50 -18.5t-19 -39.5zM543 179q29 2 46 16t17 36t-17 36t-46 14q-39 2 -55 -24t0 -52.5t55 -25.5zM49 439l23 25q4 4 7 4q4 0 8 -4q31 -31 69 -31q31 0 48.5 13t17.5 35
q0 19 -19 31t-48 12h-29q-10 0 -10 10v26q0 11 10 11h29q29 0 48 11.5t19 30.5q0 22 -17 35t-49 13q-38 0 -69 -31q-7 -7 -15 1l-23 24q-6 8 0 14q44 44 107 44q49 0 82.5 -24.5t33.5 -69.5q0 -25 -14.5 -44t-36.5 -28v-1q51 -20 51 -71q0 -44 -34 -69t-82 -25
q-62 0 -107 45q-7 6 0 13z" />
    <glyph glyph-name="fiveeighths" unicode="&#x215d;" horiz-adv-x="699" 
d="M137 18l343 667q8 15 22 15h30q22 0 14 -17l-342 -668q-8 -15 -23 -15h-29q-24 0 -15 18zM482 159v1q-15 4 -34 23t-21 50q0 40 29 65t80 25t80.5 -25t29.5 -65q-1 -31 -20 -50t-34 -23v-1q19 -5 40.5 -25.5t21.5 -54.5q0 -41 -31 -66.5t-87 -25.5q-55 0 -86 25.5
t-31 66.5q0 31 20 52.5t43 27.5zM467 82q0 -52 69 -52q71 0 71 52q0 24 -20 39.5t-51 18.5q-31 -3 -50 -18.5t-19 -39.5zM536 179q29 2 46 16t17 36t-17 36t-46 14q-39 2 -55 -24t0 -52.5t55 -25.5zM49 434l19 21q5 5 10 0q35 -34 76 -34q71 0 71 59q0 54 -69 54h-85
q-9 0 -8 9l20 150q1 7 8 7h153q8 0 8 -7v-27q0 -9 -8 -9h-123l-10 -79h47q115 0 115 -97q0 -51 -32 -77.5t-87 -26.5q-61 0 -106 47q-4 4 1 10z" />
    <glyph glyph-name="seveneighths" unicode="&#x215e;" horiz-adv-x="629" 
d="M67 18l343 667q8 15 22 15h30q22 0 14 -17l-342 -668q-8 -15 -23 -15h-29q-24 0 -15 18zM412 159v1q-15 4 -34 23t-21 50q0 40 29 65t80 25t80.5 -25t29.5 -65q-1 -31 -20 -50t-34 -23v-1q19 -5 40.5 -25.5t21.5 -54.5q0 -41 -31 -66.5t-87 -25.5q-55 0 -86 25.5
t-31 66.5q0 31 20 52.5t43 27.5zM397 82q0 -52 69 -52q71 0 71 52q0 24 -20 39.5t-51 18.5q-31 -3 -50 -18.5t-19 -39.5zM466 179q29 2 46 16t17 36t-17 36t-46 14q-39 2 -55 -24t0 -52.5t55 -25.5zM50 398l146 255h-143q-8 0 -8 7v33q0 7 8 7h208q6 0 6 -5v-9q0 -6 -3 -11
l-160 -277q-5 -8 -12 -8h-36q-9 0 -6 8z" />
    <glyph glyph-name="partialdiff" unicode="&#x2202;" horiz-adv-x="613" 
d="M94 565l-32 34q-12 14 -1 25q98 89 223 89q278 0 278 -400q0 -109 -31 -185q-58 -141 -240 -141q-111 0 -178 72q-67 73 -67 179q0 104 64 161q64 58 160 58q146 0 200 -114q0 130 -44 209q-43 79 -135 79q-94 0 -170 -68q-7 -7 -13 -7q-5 0 -14 9zM138 233
q0 -69 41 -118q42 -48 116 -48q47 0 82.5 17t52.5 43.5t25 51t8 46.5q0 63 -51 110q-52 47 -117 47t-112 -42q-45 -40 -45 -107z" />
    <glyph glyph-name="increment" unicode="&#x2206;" horiz-adv-x="769" 
d="M16 27l345 659q14 27 22 27h3q8 0 22 -27l345 -659q7 -16 4 -21.5t-17 -5.5h-711q-14 0 -17 5.5t4 21.5zM385 548l-239 -467l477 -1z" />
    <glyph glyph-name="product" unicode="&#x220f;" horiz-adv-x="659" 
d="M98 18v665q0 10 3.5 13.5t13.5 3.5h429q18 0 18 -17v-665q0 -18 -18 -18h-58q-17 0 -17 18v602h-278v-602q0 -10 -3.5 -14t-14.5 -4h-58q-17 0 -17 18z" />
    <glyph glyph-name="summation" unicode="&#x2211;" horiz-adv-x="608" 
d="M69 18l217 330l-217 335q0 17 18 17h446q18 0 18 -17v-46q0 -17 -18 -17h-317l163 -256q9 -16 0 -29l-163 -254h317q11 0 14.5 -3.5t3.5 -14.5v-45q0 -10 -3.5 -14t-14.5 -4h-446q-11 0 -14.5 4t-3.5 14z" />
    <glyph glyph-name="minus" unicode="&#x2212;" horiz-adv-x="577" 
d="M50 272v30q0 18 18 18h442q10 0 13.5 -3.5t3.5 -13.5v-31q0 -10 -3.5 -13.5t-13.5 -3.5h-442q-18 0 -18 17z" />
    <glyph glyph-name="uni2215" unicode="&#x2215;" horiz-adv-x="490" 
d="M48 18l333 667q7 15 22 15h30q23 0 14 -17l-332 -668q-7 -15 -23 -15h-29q-24 0 -15 18z" />
    <glyph glyph-name="uni2219" unicode="&#x2219;" horiz-adv-x="237" 
d="M118 412q29 0 49.5 -20t20.5 -49t-20.5 -49t-49.5 -20t-49 20t-20 49t20.5 49t48.5 20z" />
    <glyph glyph-name="radical" unicode="&#x221a;" horiz-adv-x="699" 
d="M246 1l-229 491q-8 17 8 17h62q15 0 23 -17l152 -339l245 530q8 17 23 17h151q18 0 18 -17v-50q0 -18 -18 -18h-115l-289 -614q-9 -16 -14 -16h-3q-5 0 -14 16z" />
    <glyph glyph-name="infinity" unicode="&#x221e;" horiz-adv-x="690" 
d="M339 270h-3q-13 -29 -37 -58q-34 -43 -97 -43q-74 0 -120.5 54t-46.5 148t46.5 148t120.5 54q90 0 135 -100h2q7 29 39 66q40 49 107 49q77 0 123.5 -56t46.5 -161q0 -103 -46.5 -160t-123.5 -57q-43 0 -78 24.5t-49.5 49t-18.5 42.5zM480 231q47 0 77 36.5t30 103.5
t-29.5 103.5t-77.5 36.5q-46 0 -75.5 -39t-36.5 -101q7 -62 36.5 -101t75.5 -39zM206 246q42 0 69.5 34.5t32.5 90.5q-5 56 -32.5 90.5t-69.5 34.5q-45 0 -74 -34.5t-29 -90.5t29 -90.5t74 -34.5z" />
    <glyph glyph-name="integral" unicode="&#x222b;" horiz-adv-x="488" 
d="M-17 -188l7 38q3 14 9 14t13 -4q37 -17 70 -17q57 0 82 34.5t25 114.5v498q0 223 186 223q55 0 99 -26q11 -8 8 -22l-8 -38q-3 -14 -9 -14q-5 0 -12 4q-37 17 -70 17q-57 0 -82 -34.5t-25 -114.5v-498q0 -223 -186 -223q-55 0 -99 26q-12 6 -8 22z" />
    <glyph glyph-name="approxequal" unicode="&#x2248;" horiz-adv-x="522" 
d="M72 346l-23 24q-14 12 0 26q22 27 33 38q38 40 92 40q43 0 96 -44q26 -22 39.5 -29.5t31.5 -7.5q40 0 78 59q12 16 26 3l24 -24q13 -12 0 -27q-16 -21 -34 -39q-35 -39 -91 -39q-48 0 -95 43q-44 38 -73 38q-40 0 -78 -59q-9 -9 -13 -9q-6 0 -13 7zM77 157l-24 24
q-13 13 0 27q19 26 33 39q39 39 92 39q45 0 96 -45q25 -22 39.5 -29t32.5 -7q40 0 78 59q8 9 13 9t13 -7l23 -24q14 -12 0 -26l-33 -39q-39 -39 -92 -39q-47 0 -94 43q-44 38 -73 38q-40 0 -78 -59q-7 -9 -14 -9q-5 0 -12 6z" />
    <glyph glyph-name="notequal" unicode="&#x2260;" horiz-adv-x="564" 
d="M159 0h-27q-22 0 -14 18l86 219h-136q-10 0 -14 3.5t-4 14.5v35q0 18 18 18h164l49 126h-213q-18 0 -18 18v35q0 11 4 14.5t14 3.5h241l71 180q8 15 22 15h27q9 0 13 -2.5t3 -8.5t-71 -184h123q17 0 17 -18v-36q0 -10 -3.5 -13.5t-13.5 -3.5h-151l-49 -126h200
q17 0 17 -18v-36q0 -10 -3.5 -13.5t-13.5 -3.5h-228l-87 -222q-8 -15 -23 -15z" />
    <glyph glyph-name="lessequal" unicode="&#x2264;" horiz-adv-x="551" 
d="M59 101v39q0 10 3.5 14t14.5 4h398q17 0 17 -18v-39q0 -10 -3.5 -13.5t-13.5 -3.5h-398q-18 0 -18 17zM73 442v49q0 13 15 20l360 171q6 3 10 3q7 0 7 -11v-54q0 -16 -17 -24l-275 -130l275 -129q17 -9 17 -24v-55q0 -10 -6 -10q-3 0 -11 3l-360 170q-15 7 -15 21z" />
    <glyph glyph-name="greaterequal" unicode="&#x2265;" horiz-adv-x="551" 
d="M59 101v39q0 10 3.5 14t14.5 4h398q17 0 17 -18v-39q0 -10 -3.5 -13.5t-13.5 -3.5h-398q-18 0 -18 17zM86 258v55q0 15 18 24l275 129l-275 130q-18 8 -18 24v54q0 11 7 11q5 0 11 -3l359 -171q15 -7 16 -20v-49q-2 -14 -16 -21l-359 -170q-8 -3 -11 -3q-7 0 -7 10z" />
    <glyph glyph-name="lozenge" unicode="&#x25ca;" horiz-adv-x="681" 
d="M307 14l-254 295q-41 41 0 82l254 295q18 21 33 21q20 0 37 -21l254 -295q41 -41 0 -82l-254 -295q-18 -21 -33 -21q-20 0 -37 21zM128 350l214 -249l214 249l-214 250z" />
    <glyph glyph-name="f_f" unicode="&#xfb00;" horiz-adv-x="746" 
d="M115 18v417h-70q-17 0 -17 18v37q0 10 3.5 13.5t13.5 3.5h70v31q0 223 183 223q47 0 89 -20q12 -8 8 -22l-7 -38q-3 -14 -9 -14t-13 4q-30 11 -59 11q-55 0 -79.5 -34.5t-24.5 -114.5v-26h244v31q0 223 185 223q52 0 89 -20q12 -8 8 -22l-7 -38q-3 -14 -9 -14t-13 4
q-27 11 -59 11q-57 0 -82 -34.5t-25 -114.5v-26h172q10 0 13.5 -3.5t3.5 -13.5v-37q0 -18 -17 -18h-172v-417q0 -18 -17 -18h-53q-17 0 -17 18v417h-244v-417q0 -10 -3.5 -14t-14.5 -4h-52q-18 0 -18 18z" />
    <glyph glyph-name="fi" unicode="&#xfb01;" horiz-adv-x="672" 
d="M115 18v419h-70q-10 0 -13.5 3.5t-3.5 13.5v37q0 10 3.5 13.5t13.5 3.5h70v30q0 223 183 223q47 0 89 -20q12 -8 8 -22l-7 -38q-3 -14 -9 -14t-13 4q-30 11 -59 11q-55 0 -79.5 -34.5t-24.5 -114.5v-25h340q10 0 13.5 -3.5t3.5 -13.5v-473q0 -18 -17 -18h-53
q-18 0 -18 18v419h-269v-419q0 -10 -3.5 -14t-14.5 -4h-52q-18 0 -18 18zM457 674q0 24 17 41t41 17t41.5 -17t17.5 -41t-17.5 -41t-41.5 -17t-41 16.5t-17 41.5z" />
    <glyph glyph-name="f_f_i" unicode="&#xfb03;" horiz-adv-x="1004" 
d="M115 18v419h-70q-10 0 -13.5 3.5t-3.5 13.5v37q0 10 3.5 13.5t13.5 3.5h70v30q0 223 183 223q52 0 89 -20q12 -8 8 -22l-7 -38q-3 -14 -9 -14t-13 4q-30 11 -59 11q-55 0 -79.5 -34.5t-24.5 -114.5v-25h244v30q0 223 183 223q51 0 88 -20q14 -8 9 -22l-9 -38
q-4 -13 -11 -13q-4 0 -10 3q-27 11 -58 11q-55 0 -80 -34.5t-25 -114.5v-25h340q18 0 18 -17v-473q0 -18 -18 -18h-53q-17 0 -17 18v419h-270v-419q0 -18 -17 -18h-53q-17 0 -17 18v419h-244v-419q0 -10 -3.5 -14t-14.5 -4h-52q-18 0 -18 18zM847 616q-25 0 -41.5 16.5
t-16.5 41.5q0 24 16.5 41t41.5 17q24 0 41 -17t17 -41q0 -25 -17 -41.5t-41 -16.5z" />
    <glyph glyph-name="two.num" horiz-adv-x="301" 
d="M44 394v4q0 2 4 9l127 167q25 39 16 63.5t-41 24.5q-40 0 -69 -29q-7 -7 -15 1l-22 23q-6 7 0 13q46 43 106 43q68 0 90 -49q23 -50 -13 -97l-90 -124h112q10 0 10 -9v-34q0 -10 -10 -10h-201q-4 0 -4 4z" />
    <glyph glyph-name="one.num" horiz-adv-x="239" 
d="M110 400v231l-65 -22q-10 0 -10 8v28q0 7 6 11l67 36q14 8 21 8h26q10 0 10 -10v-290q0 -10 -10 -10h-35q-10 0 -10 10z" />
    <glyph glyph-name="three.num" horiz-adv-x="298" 
d="M38 439l20 21q8 8 15 1q33 -33 72 -33q33 0 49.5 14.5t16.5 38.5q0 19 -18.5 32t-48.5 13h-29q-10 0 -10 10v22q0 10 10 10h29q30 0 48.5 13t18.5 32q0 53 -66 53q-39 0 -72 -33q-7 -7 -15 1l-20 21q-6 8 0 14q44 44 107 44q49 0 82.5 -24.5t33.5 -69.5q0 -25 -14.5 -44
t-36.5 -28v-1q51 -20 51 -71q0 -44 -34 -69t-82 -25q-62 0 -107 45q-6 6 0 13z" />
    <glyph glyph-name="_0127" horiz-adv-x="808" 
d="M95 -40v763q0 16 5.5 21.5t21.5 5.5h564q16 0 21.5 -5.5t5.5 -21.5v-763q0 -16 -5.5 -21.5t-21.5 -5.5h-564q-16 0 -21.5 5.5t-5.5 21.5zM225 194l31 -32q7 -7 14 -7t14 7l121 121l121 -121q14 -14 28 0l31 32q13 14 0 27l-121 121l121 121q14 14 0 28l-31 31
q-14 17 -28 0l-121 -121l-121 121q-8 8 -14 8t-14 -8l-31 -31q-14 -14 0 -28l121 -121l-121 -121q-13 -13 0 -27z" />
    <glyph glyph-name="f_j" horiz-adv-x="691" 
d="M115 18v419h-70q-10 0 -13.5 3.5t-3.5 13.5v37q0 10 3.5 13.5t13.5 3.5h70v30q0 223 186 223q51 0 88 -20q12 -7 9 -22l-8 -38q-3 -14 -9 -14t-13 4q-27 11 -58 11q-57 0 -82 -34.5t-25 -114.5v-25h365q18 0 18 -17v-504q0 -223 -186 -223q-58 0 -99 26q-12 6 -8 22l7 38
q3 14 9 14t13 -4q29 -17 69 -17q57 0 82 34.5t25 114.5v445h-295v-419q0 -10 -3.5 -14t-14.5 -4h-52q-18 0 -18 18zM482 674q0 24 17 41t41 17t41.5 -17t17.5 -41t-17.5 -41t-41.5 -17t-41 16.5t-17 41.5z" />
    <glyph glyph-name="f_f_j" horiz-adv-x="1022" 
d="M115 18v419h-70q-10 0 -13.5 3.5t-3.5 13.5v37q0 10 3.5 13.5t13.5 3.5h70v30q0 223 183 223q52 0 89 -20q12 -8 8 -22l-7 -38q-3 -14 -9 -14t-13 4q-30 11 -59 11q-55 0 -79.5 -34.5t-24.5 -114.5v-25h244v30q0 223 185 223q52 0 89 -20q12 -8 8 -22l-7 -38
q-3 -14 -9 -14t-13 4q-30 11 -59 11q-57 0 -82 -34.5t-25 -114.5v-25h366q10 0 13.5 -3.5t3.5 -13.5v-504q0 -223 -186 -223q-58 0 -99 26q-11 8 -8 22l8 38q3 14 9 14q5 0 12 -4q29 -17 70 -17q57 0 82 34.5t25 114.5v445h-296v-419q0 -18 -17 -18h-53q-17 0 -17 18v419
h-244v-419q0 -10 -3.5 -14t-14.5 -4h-52q-18 0 -18 18zM813 674q0 24 17 41t41 17t41.5 -17t17.5 -41t-17.5 -41t-41.5 -17t-41 16.5t-17 41.5z" />
    <glyph glyph-name="four.num" horiz-adv-x="288" 
d="M18 480v19q0 9 7 19l124 176q5 6 12 6h40q10 0 10 -10v-175h45q10 0 10 -10v-25q0 -10 -10 -10h-45v-70q0 -10 -10 -10h-30q-10 0 -10 10v70h-133q-10 0 -10 10zM161 635l-85 -120h85v120z" />
    <glyph glyph-name="five.num" horiz-adv-x="268" 
d="M26 434l19 21q3 3 6 3q2 0 5 -3q29 -31 75 -34q71 0 71 59q0 54 -69 54h-85q-8 0 -7 9l19 150q1 7 8 7h154q7 0 7 -7v-27q0 -9 -7 -9h-123l-10 -79h46q115 0 115 -97q0 -51 -32 -77.5t-87 -26.5q-61 0 -106 47q-3 5 1 10z" />
    <glyph glyph-name="six.num" horiz-adv-x="279" 
d="M254 661l-19 -21q-6 -6 -12 0q-32 29 -74 29q-37 0 -57 -33t-20 -84q27 43 86 43q44 0 74 -27.5t30 -74.5q0 -51 -31 -83.5t-82 -32.5q-126 0 -126 151q0 185 129 185q57 0 103 -41q4 -6 -1 -11zM74 487q0 -27 18.5 -47t54.5 -20q30 0 48 19.5t18 50.5q0 28 -18.5 46
t-47.5 18q-32 0 -52.5 -19t-20.5 -48z" />
    <glyph glyph-name="seven.num" horiz-adv-x="262" 
d="M30 398l146 255h-143q-8 0 -8 7v33q0 7 8 7h208q6 0 6 -5v-9q0 -6 -3 -11l-160 -277q-5 -8 -12 -8h-36q-9 0 -6 8z" />
    <glyph glyph-name="eight.num" horiz-adv-x="291" 
d="M91 549v1q-15 4 -34 23t-21 50q0 40 29 65t80 25t80.5 -25t29.5 -65q-1 -31 -20 -50t-34 -23v-1q19 -5 40.5 -25.5t21.5 -54.5q0 -41 -31 -66.5t-87 -25.5q-55 0 -86 25.5t-31 66.5q0 31 20 52.5t43 27.5zM76 472q0 -52 69 -52q71 0 71 52q0 24 -20 39.5t-51 18.5
q-31 -3 -50 -18.5t-19 -39.5zM145 569q29 2 46 16t17 36t-17 36t-46 14q-39 2 -55 -24t0 -52.5t55 -25.5z" />
    <glyph glyph-name="nine.num" horiz-adv-x="287" 
d="M33 429l19 21q6 6 12 0q32 -29 74 -29q37 0 57 33t20 84q-27 -43 -86 -43q-44 0 -74 27.5t-30 74.5q0 51 31 83.5t82 32.5q126 0 126 -151q0 -185 -129 -185q-57 0 -103 41q-4 6 1 11zM74 600q0 -28 18.5 -46t47.5 -18q32 0 52.5 19t20.5 48q0 27 -18.5 47t-54.5 20
q-30 0 -48 -19.5t-18 -50.5z" />
    <glyph glyph-name="zero.num" horiz-adv-x="312" 
d="M254 424q-32 -47 -97 -47q-64 0 -99 47q-33 46 -33 121t33 121q35 47 99 47q65 0 97 -47q33 -46 33 -121t-33 -121zM157 428q35 0 55.5 32t20.5 85t-20.5 85t-55.5 32q-36 0 -56.5 -32t-20.5 -85t20.5 -85t56.5 -32z" />
    <glyph glyph-name="two.denom" horiz-adv-x="266" 
d="M27 4v4q0 5 4 9l127 167q25 39 16 63.5t-41 24.5q-41 0 -70 -29q-7 -7 -15 1l-21 23q-7 7 0 13q44 43 106 43q67 0 89 -49q23 -50 -13 -97l-89 -124h111q10 0 10 -9v-34q0 -10 -10 -10h-201q-3 0 -3 4z" />
    <glyph glyph-name="three.denom" horiz-adv-x="272" 
d="M27 47l20 21q8 8 15 1q33 -33 72 -33q33 0 49.5 14.5t16.5 38.5q0 19 -18.5 32t-48.5 13h-29q-10 0 -10 10v22q0 10 10 10h29q30 0 48.5 13t18.5 32q0 53 -66 53q-39 0 -72 -33q-7 -7 -15 1l-20 21q-6 8 0 14q44 44 107 44q49 0 82.5 -24.5t33.5 -69.5q0 -25 -14.5 -44
t-36.5 -28v-1q51 -20 51 -71q0 -44 -34 -69t-82 -25q-62 0 -107 45q-7 6 0 13z" />
    <glyph glyph-name="nine.denom" horiz-adv-x="289" 
d="M33 40l19 21q6 6 12 0q31 -29 74 -29q37 0 57 32.5t20 83.5q-27 -43 -86 -43q-44 0 -74 28t-30 75q0 51 31 83.5t82 32.5q126 0 126 -151q0 -186 -129 -186q-58 0 -103 42q-5 5 1 11zM74 210q0 -28 18.5 -45.5t47.5 -17.5q32 0 52.5 18.5t20.5 48.5q0 27 -18.5 47
t-54.5 20q-30 0 -48 -20t-18 -51z" />
    <glyph glyph-name="four.denom" horiz-adv-x="288" 
d="M18 90v19q0 9 7 19l124 176q5 6 12 6h40q10 0 10 -10v-175h45q10 0 10 -10v-25q0 -10 -10 -10h-45v-70q0 -10 -10 -10h-30q-10 0 -10 10v70h-133q-10 0 -10 10zM161 245l-85 -120h85v120z" />
    <glyph glyph-name="eight.denom" horiz-adv-x="286" 
d="M88 159v1q-15 4 -34 23t-21 50q0 40 29.5 65t80.5 25t80.5 -25t29.5 -65q-2 -31 -21 -50t-34 -23v-1q23 -6 43 -27.5t20 -52.5q0 -41 -31 -66.5t-87 -25.5t-87 25.5t-31 66.5q0 31 20 52.5t43 27.5zM73 82q0 -52 70 -52t70 52q0 24 -19.5 39.5t-50.5 18.5
q-31 -3 -50.5 -18.5t-19.5 -39.5zM143 179q62 5 62 52q0 22 -17 36t-45 14q-29 0 -46 -14q-26 -22 -11.5 -55.5t57.5 -32.5z" />
    <glyph glyph-name="seven.denom" horiz-adv-x="260" 
d="M30 8l146 255h-143q-8 0 -8 7v33q0 7 8 7h208q6 0 6 -5v-9q0 -6 -3 -11l-160 -277q-5 -8 -12 -8h-36q-9 0 -6 8z" />
    <glyph glyph-name="six.denom" horiz-adv-x="287" 
d="M257 271l-19 -21q-4 -3 -7 -3q-2 0 -5 3q-32 29 -75 29q-37 0 -57 -32.5t-20 -83.5q27 43 87 43q44 0 73.5 -28t29.5 -75q0 -51 -31 -83.5t-82 -32.5q-126 0 -126 151q0 186 129 186q58 0 104 -42q5 -5 -1 -11zM76 97q0 -26 19 -46.5t54 -20.5q30 0 48 20t18 51
q0 28 -18 45.5t-48 17.5q-31 0 -52 -18.5t-21 -48.5z" />
    <glyph glyph-name="five.denom" horiz-adv-x="268" 
d="M26 44l19 21q3 3 6 3q2 0 5 -3q29 -31 75 -34q71 0 71 59q0 54 -69 54h-85q-8 0 -7 9l19 150q1 7 8 7h154q7 0 7 -7v-27q0 -9 -7 -9h-123l-10 -79h46q115 0 115 -97q0 -51 -32 -77.5t-87 -26.5q-61 0 -106 47q-3 5 1 10z" />
    <glyph glyph-name="zero.tf" horiz-adv-x="655" 
d="M536 89q-70 -102 -208 -102t-208 102q-71 103 -71 261t71 261q70 102 208 102t208 -102q71 -103 71 -261t-71 -261zM328 69q50 0 87.5 24t58 65.5t30 89t9.5 102.5t-9.5 103t-30 89t-58 65t-87.5 24t-87.5 -24t-58 -65t-30 -89t-9.5 -103t9.5 -102.5t30 -89t58 -65.5
t87.5 -24z" />
    <glyph glyph-name="one.tf" horiz-adv-x="373" 
d="M175 18v567l-126 -45q-10 0 -13.5 3t-3.5 12v31q0 12 10 19l136 80q24 15 36 15h36q18 0 18 -17v-665q0 -18 -18 -18h-58q-17 0 -17 18z" />
    <glyph glyph-name="two.tf" horiz-adv-x="560" 
d="M41 9v10q0 8 8 19l338 402q25 30 30.5 64t-7 62t-46.5 46.5t-82 18.5q-105 0 -179 -80q-14 -14 -25 1l-33 35q-12 13 -1 24q102 102 238 102q61 0 109.5 -19.5t76 -52t38.5 -73t-1.5 -85t-46.5 -84.5l-268 -318h312q10 0 14 -3.5t4 -14.5v-45q0 -18 -18 -18h-453
q-8 0 -8 9z" />
    <glyph glyph-name="three.tf" horiz-adv-x="585" 
d="M44 113l31 34q13 13 25 1q76 -79 175 -79q173 0 173 135q0 49 -42.5 81.5t-109.5 32.5h-104q-10 0 -13.5 3.5t-3.5 13.5v42q0 10 3.5 13.5t13.5 3.5h103q69 0 101 33q32 34 32 71q0 62 -41.5 97.5t-111.5 35.5q-89 0 -161 -79q-7 -7 -12 -7q-7 0 -13 8l-31 34
q-12 13 -1 24q53 53 102.5 77.5t115.5 24.5q97 0 171 -53t74 -155q0 -52 -32 -93q-30 -38 -73 -56v-1q49 -15 87 -54q38 -40 38 -104q0 -103 -71 -156.5t-194 -53.5q-129 0 -232 102q-10 10 1 24z" />
    <glyph glyph-name="four.tf" horiz-adv-x="647" 
d="M44 179v42q0 15 12 31l326 440q5 8 16 8h71q18 0 18 -17v-448h104q11 0 14.5 -3.5t3.5 -14.5v-38q0 -11 -3.5 -14.5t-14.5 -3.5h-104v-143q0 -10 -3.5 -14t-14.5 -4h-53q-17 0 -17 18v143h-337q-10 0 -14 3.5t-4 14.5zM399 586l-260 -351h260v351z" />
    <glyph glyph-name="five.tf" horiz-adv-x="579" 
d="M40 113l31 34q7 7 13 7q5 0 11 -6q42 -40 82 -59.5t94 -19.5q87 0 129 34t42 110q0 129 -166 129h-187q-21 0 -18 17l44 324q2 12 4.5 14.5t12.5 2.5h339q18 0 18 -17v-46q0 -17 -18 -17h-282l-28 -196h120q253 0 253 -208q0 -112 -70.5 -170.5t-192.5 -58.5
q-129 0 -233 103q-10 10 2 23z" />
    <glyph glyph-name="six.tf" horiz-adv-x="613" 
d="M545 603l-32 -34q-14 -14 -26 -2q-39 36 -74.5 50t-89.5 14q-91 0 -136 -79q-44 -79 -44 -209q54 114 200 114q95 0 159 -58q65 -57 65 -161q0 -106 -67 -179q-66 -72 -177 -72q-162 0 -221 103q-51 90 -51 223q0 400 278 400q66 0 117 -20t101 -65q11 -11 -2 -25z
M151 225q0 -22 7.5 -46.5t24.5 -51t52 -43.5t83 -17q73 0 115 46.5t42 119.5q0 67 -46 107q-45 42 -111 42q-65 0 -117 -47q-50 -47 -50 -110z" />
    <glyph glyph-name="seven.001" horiz-adv-x="564" 
d="M58 17l352 597h-361q-11 1 -14.5 4.5t-3.5 13.5v51q0 17 18 17h486q14 0 14 -13v-5q0 -9 -9 -24l-376 -642q-10 -16 -27 -16h-64q-23 0 -15 17z" />
    <glyph glyph-name="eight.tf" horiz-adv-x="601" 
d="M182 358v3q-26 10 -68 42q-51 42 -51 115q0 86 62 140q62 55 177 55q113 0 174 -55q62 -54 62 -140q0 -74 -51 -115q-41 -33 -66 -43v-3q14 -4 33.5 -15t43.5 -30.5t40.5 -52.5t16.5 -72q0 -92 -65.5 -146t-188.5 -54q-122 0 -188.5 55t-66.5 145q0 77 57 125
q39 32 79 46zM137 192q0 -56 42.5 -90.5t121.5 -34.5t121.5 34.5t42.5 90.5q0 54 -48 89q-48 34 -116 42q-71 -7 -117.5 -42.5t-46.5 -88.5zM154 513q0 -49 41 -81t106 -38q65 6 106 38t41 81q0 54 -40.5 87.5t-106.5 33.5t-106.5 -33.5t-40.5 -87.5z" />
    <glyph glyph-name="nine.tf" horiz-adv-x="612" 
d="M63 101l32 35q14 14 27 1q42 -36 81 -52t89 -16q92 0 135 79q44 80 44 210q-25 -53 -76 -84t-124 -31q-95 0 -160 57q-64 58 -64 162q0 107 67 178q67 73 178 73q128 0 193 -67q29 -31 47 -74q31 -76 31 -185q0 -400 -278 -400q-125 0 -223 89q-11 11 1 25zM139 468
q0 -67 45 -109q47 -41 112 -41t117 47q51 48 51 110q0 23 -8 48t-25 51t-52 43t-83 17q-74 0 -116 -48q-41 -49 -41 -118z" />
    <glyph glyph-name="parenleft.case" horiz-adv-x="393" 
d="M342 -29l-24 -41q-6 -11 -14 -11q-5 0 -12 4q-121 63 -188.5 171t-67.5 249t67.5 249t188.5 171q7 4 12 4q8 0 14 -11l24 -41q11 -18 -11 -30q-95 -43 -150 -135q-56 -92 -56 -207q0 -114 56 -206q55 -91 150 -136q22 -12 11 -30z" />
    <glyph glyph-name="parenright.case" horiz-adv-x="393" 
d="M95 -70l-23 41q-11 20 11 30q95 45 150 136q56 92 56 206q0 115 -56 207q-55 92 -150 135q-22 10 -11 30l23 41q6 11 14 11q5 0 12 -4q122 -63 189.5 -171t67.5 -249t-67.5 -249t-189.5 -171q-7 -4 -12 -4q-8 0 -14 11z" />
    <glyph glyph-name="hyphen.case" horiz-adv-x="429" 
d="M59 338v35q0 11 3.5 14.5t14.5 3.5h276q17 0 17 -18v-36q0 -10 -3.5 -13.5t-13.5 -3.5h-276q-11 0 -14.5 4t-3.5 14z" />
    <glyph glyph-name="bracketleft.case" horiz-adv-x="384" 
d="M94 -88v863q0 10 3.5 13.5t13.5 3.5h191q10 0 13.5 -3.5t3.5 -13.5v-41q0 -10 -3.5 -13.5t-13.5 -3.5h-126v-747h126q10 0 13.5 -3.5t3.5 -13.5v-41q0 -10 -3.5 -13.5t-13.5 -3.5h-191q-10 0 -13.5 3.5t-3.5 13.5z" />
    <glyph glyph-name="bracketright.case" horiz-adv-x="381" 
d="M81 -30h125v747h-125q-18 0 -18 17v41q0 17 18 17h190q18 0 18 -17v-863q0 -17 -18 -17h-190q-18 0 -18 17v41q0 17 18 17z" />
    <glyph glyph-name="braceleft.case" horiz-adv-x="450" 
d="M138 144v79q0 31 -25.5 56t-60.5 35q-16 4 -16 20v47q0 15 16 19q35 10 60.5 35t25.5 56v79q0 61 17 110t45 75q26 26 62 41q57 25 124 25q10 0 13.5 -3.5t3.5 -13.5v-47q0 -18 -17 -18q-54 0 -101 -31q-57 -40 -57 -138v-79q0 -50 -26 -86t-63 -46v-4q37 -10 63 -46
t26 -86v-79q0 -98 57 -138q47 -31 101 -31q10 0 13.5 -3.5t3.5 -14.5v-47q0 -10 -3.5 -13.5t-13.5 -3.5q-67 0 -124 25q-121 46 -124 226z" />
    <glyph glyph-name="bar.case" horiz-adv-x="260" 
d="M150 -89h-40q-10 0 -13.5 3.5t-3.5 13.5v864q0 10 3.5 13.5t13.5 3.5h40q18 0 18 -17v-864q0 -17 -18 -17z" />
    <glyph glyph-name="braceright.case" horiz-adv-x="450" 
d="M47 -90v47q0 11 3.5 14.5t14.5 3.5q53 0 100 31q57 37 57 138v79q0 50 26.5 86t63.5 46v4q-37 10 -63.5 46t-26.5 86v79q0 101 -57 138q-47 31 -100 31q-11 0 -14.5 3.5t-3.5 14.5v47q0 17 18 17q67 0 124 -25q121 -46 124 -226v-79q0 -31 25.5 -56t59.5 -35
q17 -6 17 -19v-47q0 -14 -17 -20q-35 -9 -60 -34.5t-25 -56.5v-79q0 -61 -17 -110t-45 -75q-26 -26 -62 -41q-57 -25 -124 -25q-18 0 -18 17z" />
    <glyph glyph-name="brokenbar.case" horiz-adv-x="259" 
d="M144 -86h-29q-17 0 -17 18v363q0 18 17 18h29q17 0 17 -18v-363q0 -18 -17 -18zM144 420h-29q-10 0 -13.5 3.5t-3.5 13.5v318q0 10 3.5 13.5t13.5 3.5h29q10 0 13.5 -3.5t3.5 -13.5v-318q0 -10 -3.5 -13.5t-13.5 -3.5z" />
    <glyph glyph-name="guillemotleft.case" horiz-adv-x="549" 
d="M219 150l-167 185q-16 19 -16 33v6q0 15 16 34l167 185q8 8 13 8q3 0 10 -4l35 -20q14 -9 3 -23l-152 -183l152 -182q10 -13 -3 -23l-35 -20q-11 -8 -23 4zM439 150l-166 185q-16 16 -16 33v6q0 15 16 34l166 185q8 8 13 8q4 0 11 -4l35 -20q14 -9 3 -23l-153 -183
l153 -182q11 -14 -3 -23l-35 -20q-4 -4 -10 -4t-14 8z" />
    <glyph glyph-name="guillemotright.case" horiz-adv-x="549" 
d="M87 146l-35 20q-13 10 -3 23l152 182l-152 183q-11 14 3 23l35 20q7 4 10 4q5 0 13 -8l167 -185q16 -19 16 -34v-6q0 -14 -16 -33l-167 -185q-12 -12 -23 -4zM308 146l-35 20q-13 10 -3 23l152 182l-152 183q-11 14 3 23l35 20q7 4 10 4q5 0 13 -8l167 -185
q16 -19 16 -34v-6q0 -14 -16 -33l-167 -185q-12 -12 -23 -4z" />
    <glyph glyph-name="endash.case" horiz-adv-x="408" 
d="M45 338v35q0 11 3.5 14.5t14.5 3.5h283q17 0 17 -18v-36q0 -10 -3.5 -13.5t-13.5 -3.5h-283q-11 0 -14.5 4t-3.5 14z" />
    <glyph glyph-name="emdash.case" horiz-adv-x="577" 
d="M45 338v35q0 11 3.5 14.5t14.5 3.5h452q17 0 17 -18v-36q0 -10 -3.5 -13.5t-13.5 -3.5h-452q-11 0 -14.5 4t-3.5 14z" />
    <glyph glyph-name="bullet.case" horiz-adv-x="243" 
d="M178 300q-23 -23 -57 -23t-57 23t-23 57t23 57q23 24 57 24t57 -24q24 -23 24 -57t-24 -57z" />
    <glyph glyph-name="guilsinglleft.case" horiz-adv-x="331" 
d="M218 150l-167 185q-16 19 -16 33v6q0 15 16 34l167 185q8 8 13 8q3 0 10 -4l35 -20q14 -9 3 -23l-152 -183l152 -182q10 -13 -3 -23l-35 -20q-11 -8 -23 4z" />
    <glyph glyph-name="guilsinglright.case" horiz-adv-x="331" 
d="M91 146l-35 20q-13 10 -3 23l152 182l-152 183q-11 14 3 23l35 20q7 4 10 4q5 0 13 -8l167 -185q16 -19 16 -34v-6q0 -14 -16 -33l-167 -185q-12 -12 -23 -4z" />
    <glyph glyph-name="periodcentered.case" horiz-adv-x="247" 
d="M123 287q-29 0 -49.5 20.5t-20.5 49.5q0 30 20.5 50.5t49.5 20.5q30 0 50.5 -20.5t20.5 -50.5q0 -29 -20.5 -49.5t-50.5 -20.5z" />
    <glyph glyph-name="two.superior" horiz-adv-x="301" 
d="M44 476v4q0 2 4 9l127 167q25 39 16 63.5t-41 24.5q-40 0 -69 -29q-7 -7 -15 1l-22 23q-6 7 0 13q46 43 106 43q68 0 90 -49q23 -50 -13 -97l-90 -124h112q10 0 10 -9v-34q0 -10 -10 -10h-201q-4 0 -4 4z" />
    <glyph glyph-name="one.superior" horiz-adv-x="239" 
d="M110 482v232l-65 -22q-10 0 -10 8v27q0 7 6 11l67 36q14 8 21 8h26q10 0 10 -10v-290q0 -10 -10 -10h-35q-10 0 -10 10z" />
    <glyph glyph-name="zerosuperior" horiz-adv-x="334" 
d="M265 506q-32 -47 -97 -47q-64 0 -99 47q-33 46 -33 121t33 121q35 47 99 47q65 0 97 -47q33 -46 33 -121t-33 -121zM246 627q0 56 -20 88t-58 32q-39 0 -59 -32t-20 -88q0 -55 20.5 -87t58.5 -32t58 32t20 87z" />
    <glyph glyph-name="foursuperior" horiz-adv-x="288" 
d="M18 562v19q0 9 7 19l124 176q5 6 12 6h40q10 0 10 -10v-175h45q10 0 10 -10v-25q0 -10 -10 -10h-45v-70q0 -10 -10 -10h-30q-10 0 -10 10v70h-133q-10 0 -10 10zM161 717l-85 -120h85v120z" />
    <glyph glyph-name="fivessuperior" horiz-adv-x="268" 
d="M26 516l19 21q3 3 6 3q2 0 5 -3q29 -31 75 -34q71 0 71 59q0 54 -69 54h-85q-8 0 -7 9l19 150q1 7 8 7h154q7 0 7 -7v-27q0 -9 -7 -9h-123l-10 -79h46q115 0 115 -97q0 -51 -32 -77.5t-87 -26.5q-61 0 -106 47q-3 5 1 10z" />
    <glyph glyph-name="sixsuperior" horiz-adv-x="279" 
d="M254 743l-19 -21q-6 -6 -12 0q-32 29 -74 29q-37 0 -57 -33t-20 -84q27 43 86 43q44 0 74 -27.5t30 -74.5q0 -51 -31 -83.5t-82 -32.5q-126 0 -126 151q0 185 129 185q57 0 103 -41q4 -6 -1 -11zM74 569q0 -27 18.5 -47t54.5 -20q30 0 48 19.5t18 50.5q0 28 -18.5 46
t-47.5 18q-32 0 -52.5 -19t-20.5 -48z" />
    <glyph glyph-name="sevensuperior" horiz-adv-x="262" 
d="M30 480l146 255h-143q-8 0 -8 7v33q0 7 8 7h208q6 0 6 -5v-9q0 -6 -3 -11l-160 -277q-5 -8 -12 -8h-36q-9 0 -6 8z" />
    <glyph glyph-name="eightsuperior" horiz-adv-x="291" 
d="M91 631v1q-15 4 -34 23t-21 50q0 40 29 65t80 25t80.5 -25t29.5 -65q-1 -31 -20 -50t-34 -23v-1q19 -5 40.5 -25.5t21.5 -54.5q0 -41 -31 -66.5t-87 -25.5q-55 0 -86 25.5t-31 66.5q0 31 20 52.5t43 27.5zM76 554q0 -52 69 -52q71 0 71 52q0 24 -20 39.5t-51 18.5
q-31 -3 -50 -18.5t-19 -39.5zM145 651q29 2 46 16t17 36t-17 36t-46 14q-39 2 -55 -24t0 -52.5t55 -25.5z" />
    <glyph glyph-name="ninesuperior" horiz-adv-x="287" 
d="M33 511l19 21q6 6 12 0q32 -29 74 -29q37 0 57 33t20 84q-27 -43 -86 -43q-44 0 -74 27.5t-30 74.5q0 51 31 83.5t82 32.5q126 0 126 -151q0 -185 -129 -185q-57 0 -103 41q-4 6 1 11zM74 682q0 -28 18.5 -46t47.5 -18q32 0 52.5 19t20.5 48q0 27 -18.5 47t-54.5 20
q-30 0 -48 -19.5t-18 -50.5z" />
    <glyph glyph-name="zeroinferior" horiz-adv-x="312" 
d="M254 -116q-32 -47 -97 -47q-64 0 -99 47q-33 46 -33 121t33 121q35 47 99 47q65 0 97 -47q33 -46 33 -121t-33 -121zM98 -81q21 -34 59 -34q39 0 58 34q20 34 20 86t-20 86q-19 34 -58 34q-38 0 -59 -34q-20 -34 -20 -86t20 -86z" />
    <glyph glyph-name="twoinferior" horiz-adv-x="266" 
d="M27 -147v4q0 6 4 10l127 167q25 39 16 63.5t-41 24.5q-41 0 -70 -29q-7 -7 -15 1l-21 23q-7 7 0 13q44 43 106 43q67 0 89 -49q23 -50 -13 -97l-89 -124h111q10 0 10 -10v-34q0 -9 -10 -9h-201q-3 0 -3 3z" />
    <glyph glyph-name="threeinferior" horiz-adv-x="272" 
d="M27 -101l20 21q4 4 7 4q4 0 8 -4q32 -32 72 -32q66 0 66 53q0 19 -18.5 32t-48.5 13h-29q-10 0 -10 10v22q0 10 10 10h29q30 0 48.5 13t18.5 32q0 53 -66 53q-39 0 -72 -33q-7 -7 -15 1l-20 21q-6 8 0 14q44 44 107 44q49 0 82.5 -24.5t33.5 -69.5q0 -25 -14.5 -44
t-36.5 -28v-1q51 -20 51 -72q0 -44 -33.5 -68.5t-82.5 -24.5q-63 0 -107 44q-6 6 0 14z" />
    <glyph glyph-name="nineinferior" horiz-adv-x="289" 
d="M33 -111l19 21q6 6 12 0q31 -29 74 -29q37 0 57 32.5t20 83.5q-27 -43 -86 -43q-44 0 -74 28t-30 75q0 51 31 83.5t82 32.5q126 0 126 -151q0 -186 -129 -186q-57 0 -103 42q-5 5 1 11zM74 60q0 -28 18.5 -46t47.5 -18q32 0 52.5 19t20.5 48q0 27 -18.5 47t-54.5 20
q-30 0 -48 -19.5t-18 -50.5z" />
    <glyph glyph-name="fourinferior" horiz-adv-x="288" 
d="M18 -60v19q0 9 7 19l124 176q5 6 12 6h40q10 0 10 -10v-175h45q10 0 10 -10v-25q0 -10 -10 -10h-45v-70q0 -10 -10 -10h-30q-10 0 -10 10v70h-133q-10 0 -10 10zM161 95l-85 -120h85v120z" />
    <glyph glyph-name="eightinferior" horiz-adv-x="286" 
d="M88 9v1q-15 4 -34 23t-21 50q0 40 29.5 65t80.5 25t80.5 -25t29.5 -65q-2 -31 -21 -50t-34 -23v-1q23 -6 43 -27.5t20 -52.5q0 -42 -30.5 -67t-87.5 -25t-87.5 25t-30.5 67q0 31 20 52.5t43 27.5zM73 -69q0 -52 70 -52t70 52q0 24 -19.5 40t-50.5 19q-31 -3 -50.5 -19
t-19.5 -40zM143 29q62 5 62 52q0 22 -17 36t-45 14q-29 0 -46 -14q-26 -22 -11.5 -55.5t57.5 -32.5z" />
    <glyph glyph-name="seveninferior" horiz-adv-x="260" 
d="M30 -142l146 255h-143q-8 0 -8 7v33q0 7 8 7h208q6 0 6 -5v-9q0 -6 -3 -11l-160 -277q-5 -8 -12 -8h-36q-9 0 -6 8z" />
    <glyph glyph-name="sixinferior" horiz-adv-x="287" 
d="M257 121l-19 -21q-4 -3 -7 -3q-2 0 -5 3q-34 29 -75 29q-37 0 -57 -33t-20 -84q27 43 87 43q44 0 73.5 -28t29.5 -75q0 -51 -31 -83.5t-82 -32.5q-126 0 -126 151q0 186 129 186q58 0 104 -41q4 -6 -1 -11zM76 -54q0 -26 19 -46.5t54 -20.5q30 0 48 20t18 51q0 28 -18 46
t-48 18q-31 0 -52 -19t-21 -49z" />
    <glyph glyph-name="fiveinferior" horiz-adv-x="268" 
d="M26 -106l19 21q3 3 6 3q2 0 5 -3q29 -31 75 -34q71 0 71 59q0 54 -69 54h-85q-8 0 -7 9l19 150q1 7 8 7h154q7 0 7 -7v-27q0 -9 -7 -9h-123l-10 -79h46q115 0 115 -97q0 -51 -32 -77.5t-87 -26.5q-61 0 -106 47q-3 5 1 10z" />
    <glyph glyph-name="oneinferior" horiz-adv-x="185" 
d="M90 -140v231l-65 -22q-10 0 -10 8v28q0 7 6 11l67 36q14 8 21 8h26q10 0 10 -10v-290q0 -10 -10 -10h-35q-10 0 -10 10z" />
    <glyph glyph-name="zero.denom" horiz-adv-x="312" 
d="M254 34q-32 -47 -97 -47q-64 0 -99 47q-33 46 -33 121t33 121q35 47 99 47q65 0 97 -47q33 -46 33 -121t-33 -121zM157 38q35 0 55.5 32t20.5 85t-20.5 85t-55.5 32q-36 0 -56.5 -32t-20.5 -85t20.5 -85t56.5 -32z" />
    <glyph glyph-name="threesuperior" horiz-adv-x="298" 
d="M38 521l20 21q8 8 15 1q33 -33 72 -33q33 0 49.5 14.5t16.5 38.5q0 19 -18.5 32t-48.5 13h-29q-10 0 -10 10v22q0 10 10 10h29q30 0 48.5 13t18.5 32q0 53 -66 53q-39 0 -72 -33q-7 -7 -15 1l-20 21q-6 8 0 14q44 44 107 44q49 0 82.5 -24.5t33.5 -69.5q0 -25 -14.5 -44
t-36.5 -28v-1q51 -20 51 -71q0 -44 -34 -69t-82 -25q-62 0 -107 45q-6 6 0 13z" />
    </font>
</defs>
</svg>
