<svg width="548" height="144" viewBox="0 0 548 144" fill="none" xmlns="http://www.w3.org/2000/svg">
<path d="M18.7982 112.956C18.7982 110.458 20.9005 108.332 23.3714 108.332H31.7808C51.3297 108.332 64.5581 93.8243 64.5581 72.442C64.5581 51.0598 51.3297 36.8004 31.7808 36.8004H0V27.5518H31.7808C57.5139 27.5518 74.5783 45.4416 74.5783 72.7043C74.5783 99.967 57.5139 117.608 31.7808 117.608H23.3714C20.9005 117.608 18.7982 115.483 18.7982 112.984V112.956ZM4.94185 45.6763C7.53564 45.6763 9.76084 47.9263 9.76084 50.5491V117.581H0V50.5491C0 47.9263 2.34806 45.6763 4.94185 45.6763Z" fill="#08110C"/>
<path d="M89.308 27.5391H98.4545L97.5945 59.4261H89.9223L89.308 27.5391Z" fill="#08110C"/>
<path d="M132.598 27.5391H143.232L120.352 84.066H142.249C144.72 84.066 146.822 86.0676 146.822 88.5661C146.822 91.1888 144.72 93.3146 142.249 93.3146H116.653L106.878 117.582H96.2435L132.611 27.5391H132.598ZM146.7 49.8048C149.293 48.8109 152.024 49.929 153.129 52.676L178.985 117.582H168.351L143.983 56.4306C142.741 53.5594 143.983 50.7986 146.7 49.8048Z" fill="#08110C"/>
<path d="M191.217 109.948L235.503 47.7895C237.236 45.1668 240.827 44.5318 243.175 46.2849C244.663 47.541 245.769 50.4122 243.789 53.2835L203.845 108.306H256.034V117.554H191.217V109.921V109.948ZM192.459 27.5254H254.792V36.774H192.459V27.5254Z" fill="#08110C"/>
<path d="M304.634 27.5391H315.269L292.389 84.066H314.286C316.757 84.066 318.859 86.0676 318.859 88.5661C318.859 91.1888 316.757 93.3146 314.286 93.3146H288.689L278.915 117.582H268.28L304.648 27.5391H304.634ZM318.736 49.8048C321.33 48.8109 324.06 49.929 325.166 52.676L351.022 117.582H340.387L316.02 56.4306C314.777 53.5594 316.02 50.7986 318.736 49.8048Z" fill="#08110C"/>
<path d="M442.937 50.551C442.937 49.9298 443.443 49.4053 444.043 49.4053H451.429C453.845 49.4053 455.797 50.1507 457.039 51.393C457.995 52.3593 458.555 53.7535 458.555 55.3271V55.3824C458.555 58.6539 456.357 60.5726 453.285 61.1662L458.186 67.5436C458.418 67.8059 458.555 68.0543 458.555 68.3718C458.555 68.9654 457.995 69.4899 457.422 69.4899C456.971 69.4899 456.63 69.2277 456.384 68.8964L450.828 61.6079H445.163V68.358C445.163 68.9792 444.658 69.5037 444.03 69.5037C443.402 69.5037 442.924 68.993 442.924 68.358V50.551H442.937ZM451.224 59.5787C454.186 59.5787 456.289 58.0465 456.289 55.479V55.4238C456.289 52.9805 454.432 51.4897 451.251 51.4897H445.163V59.5787H451.224Z" fill="#08110C"/>
<path d="M457.422 69.8194C456.917 69.8194 456.48 69.5709 456.125 69.0878L450.678 61.9236H445.49V68.3562C445.49 69.1706 444.835 69.8194 444.043 69.8194C443.251 69.8194 442.623 69.143 442.623 68.3562V50.5491C442.623 49.7485 443.279 49.0859 444.043 49.0859H451.429C453.859 49.0859 455.934 49.8313 457.258 51.1703C458.295 52.2194 458.869 53.6964 458.869 55.3253C458.869 58.4174 457.039 60.5846 453.845 61.3714L458.432 67.3485C458.609 67.5556 458.869 67.9006 458.869 68.37C458.869 69.1154 458.172 69.8056 457.422 69.8056V69.8194ZM444.849 61.2748H450.992L456.644 68.6875C456.876 69.005 457.135 69.1568 457.435 69.1568C457.845 69.1568 458.241 68.7703 458.241 68.37C458.241 68.1629 458.159 67.9835 457.954 67.7626L452.712 60.9435L453.231 60.8469C456.411 60.2257 458.241 58.2379 458.241 55.3805C458.241 53.8621 457.736 52.5507 456.807 51.6259C455.592 50.3973 453.681 49.7347 451.429 49.7347H444.043C443.62 49.7347 443.265 50.1074 443.265 50.5491V68.3562C443.265 68.7979 443.62 69.1706 444.043 69.1706C444.494 69.1706 444.849 68.8117 444.849 68.3562V61.2748ZM451.224 59.9082H444.849V51.1703H451.251C454.609 51.1703 456.616 52.7578 456.616 55.4219C456.616 58.0861 454.446 59.9082 451.224 59.9082ZM445.49 59.2594H451.224C454.104 59.2594 455.975 57.7824 455.975 55.4771C455.975 53.1719 454.254 51.8191 451.251 51.8191H445.49V59.2594Z" fill="#08110C"/>
<path d="M463.306 68.2062V50.551C463.306 49.9298 463.811 49.4053 464.411 49.4053H476.671C477.23 49.4053 477.681 49.8608 477.681 50.4268C477.681 50.9927 477.23 51.4482 476.671 51.4482H465.544V58.2536H475.401C475.961 58.2536 476.411 58.7367 476.411 59.2751C476.411 59.841 475.961 60.2965 475.401 60.2965H465.544V67.2813H476.807C477.367 67.2813 477.817 67.7368 477.817 68.3028C477.817 68.8688 477.367 69.3243 476.807 69.3243H464.411C463.824 69.3243 463.306 68.8136 463.306 68.1786V68.2062Z" fill="#08110C"/>
<path d="M476.806 69.6675H464.411C463.646 69.6675 462.991 68.9911 462.991 68.2043V50.5491C462.991 49.7485 463.646 49.0859 464.411 49.0859H476.67C477.407 49.0859 478.008 49.6933 478.008 50.4387C478.008 51.1841 477.407 51.7915 476.67 51.7915H465.858V57.948H475.4C476.124 57.948 476.738 58.5692 476.738 59.3008C476.738 60.0324 476.137 60.6536 475.4 60.6536H465.858V66.9896H476.806C477.544 66.9896 478.144 67.597 478.144 68.3424C478.144 69.0878 477.544 69.6951 476.806 69.6951V69.6675ZM464.411 49.7347C463.988 49.7347 463.633 50.1074 463.633 50.5491V68.2043C463.633 68.646 463.988 69.0188 464.411 69.0188H476.806C477.189 69.0188 477.503 68.7151 477.503 68.3148C477.503 67.9144 477.202 67.6108 476.806 67.6108H465.216V59.9772H475.4C475.783 59.9772 476.097 59.6735 476.097 59.2732C476.097 58.9005 475.769 58.5692 475.4 58.5692H465.216V51.1151H476.67C477.052 51.1151 477.366 50.8114 477.366 50.4111C477.366 50.0108 477.066 49.7071 476.67 49.7071H464.411V49.7347Z" fill="#08110C"/>
<path d="M480.971 67.8593L488.97 50.1765C489.257 49.5553 489.68 49.1826 490.376 49.1826H490.486C491.155 49.1826 491.619 49.5553 491.864 50.1765L499.864 67.8317C499.946 68.0387 500.001 68.232 500.001 68.3976C500.001 68.9912 499.523 69.4743 498.936 69.4743C498.404 69.4743 498.035 69.1016 497.844 68.6461L495.782 64.0632H484.97L482.909 68.7013C482.704 69.1845 482.349 69.4743 481.844 69.4743C481.284 69.4743 480.834 69.0188 480.834 68.4528C480.834 68.2872 480.861 68.0801 480.971 67.8593ZM494.922 62.0202L490.39 51.8192L485.858 62.0202H494.922Z" fill="#08110C"/>
<path d="M498.936 69.8233C498.336 69.8233 497.831 69.4506 497.544 68.8018L495.578 64.4122H485.176L483.21 68.8709C482.95 69.492 482.473 69.8371 481.845 69.8371C481.108 69.8371 480.507 69.2298 480.507 68.4843C480.507 68.2221 480.561 67.9874 480.684 67.7527L488.684 50.0699C489.039 49.2693 489.599 48.8828 490.391 48.8828H490.5C491.278 48.8828 491.865 49.2969 492.179 50.0838L500.179 67.7251C500.288 67.9874 500.343 68.2359 500.343 68.4291C500.343 69.2021 499.715 69.8371 498.95 69.8371L498.936 69.8233ZM484.753 63.7634H495.988L498.131 68.5396C498.24 68.7742 498.472 69.1745 498.936 69.1745C499.346 69.1745 499.687 68.8294 499.687 68.4153C499.687 68.3325 499.674 68.1945 499.578 67.9736L491.578 50.3184C491.36 49.7663 491.005 49.504 490.486 49.504H490.377C489.845 49.504 489.517 49.7387 489.258 50.3046L481.258 68.0012C481.189 68.153 481.149 68.2911 481.149 68.4567C481.149 68.8432 481.449 69.1607 481.845 69.1607C482.2 69.1607 482.459 68.9675 482.623 68.5948L484.766 63.7496L484.753 63.7634ZM495.401 62.3692H485.34L490.377 51.05L495.414 62.3692H495.401ZM486.336 61.7204H494.418L490.377 52.6375L486.336 61.7204Z" fill="#08110C"/>
<path d="M504.26 50.3967C504.26 49.7755 504.765 49.251 505.366 49.251C505.966 49.251 506.499 49.7617 506.499 50.3967V67.2651H516.724C517.283 67.2651 517.734 67.7482 517.734 68.3142C517.734 68.8801 517.283 69.3356 516.724 69.3356H505.366C504.779 69.3356 504.26 68.8249 504.26 68.1899V50.3829V50.3967Z" fill="#08110C"/>
<path d="M516.724 69.668H505.366C504.601 69.668 503.946 68.9916 503.946 68.2048V50.3978C503.946 49.5972 504.601 48.9346 505.366 48.9346C506.13 48.9346 506.813 49.5972 506.813 50.3978V66.9349H516.724C517.461 66.9349 518.062 67.556 518.062 68.3152C518.062 69.0745 517.461 69.668 516.724 69.668ZM505.366 49.5834C504.943 49.5834 504.588 49.9561 504.588 50.3978V68.2048C504.588 68.6465 504.943 69.0192 505.366 69.0192H516.724C517.106 69.0192 517.42 68.7156 517.42 68.3152C517.42 67.9149 517.106 67.5836 516.724 67.5836H506.171V50.3978C506.171 49.9423 505.816 49.5834 505.366 49.5834Z" fill="#08110C"/>
<path d="M442.937 97.9661V80.2971C442.937 79.6759 443.442 79.1514 444.043 79.1514H456.302C456.862 79.1514 457.312 79.6069 457.312 80.1729C457.312 80.7388 456.862 81.1943 456.302 81.1943H445.176V87.9997H455.032C455.592 87.9997 456.042 88.4828 456.042 89.0211C456.042 89.5871 455.592 90.0426 455.032 90.0426H445.176V97.0274H456.438C456.998 97.0274 457.449 97.4829 457.449 98.0489C457.449 98.6149 456.998 99.0704 456.438 99.0704H444.043C443.456 99.0704 442.937 98.5596 442.937 97.9247V97.9661Z" fill="#08110C"/>
<path d="M456.439 99.4274H444.043C443.279 99.4274 442.623 98.751 442.623 97.9642V80.2952C442.623 79.4946 443.279 78.832 444.043 78.832H456.302C457.039 78.832 457.64 79.4394 457.64 80.1848C457.64 80.9302 457.039 81.5376 456.302 81.5376H445.49V87.6941H455.033C455.756 87.6941 456.37 88.3153 456.37 89.0469C456.37 89.7785 455.77 90.3997 455.033 90.3997H445.49V96.7357H456.439C457.176 96.7357 457.777 97.343 457.777 98.0885C457.777 98.8339 457.176 99.4412 456.439 99.4412V99.4274ZM444.043 79.4808C443.62 79.4808 443.265 79.8535 443.265 80.2952V97.9642C443.265 98.4059 443.62 98.7787 444.043 98.7787H456.439C456.821 98.7787 457.135 98.475 457.135 98.0747C457.135 97.6743 456.835 97.3707 456.439 97.3707H444.849V89.7371H455.033C455.415 89.7371 455.729 89.4196 455.729 89.0331C455.729 88.6466 455.401 88.3291 455.033 88.3291H444.849V80.875H456.302C456.684 80.875 456.998 80.5713 456.998 80.171C456.998 79.7707 456.698 79.467 456.302 79.467H444.043V79.4808Z" fill="#08110C"/>
<path d="M461.108 96.7106C460.848 96.545 460.684 96.2275 460.684 95.8548C460.684 95.2336 461.162 94.7366 461.749 94.7366C462.036 94.7366 462.282 94.8471 462.432 94.9989C464.288 96.6002 466.145 97.3594 468.657 97.3594C471.305 97.3594 473.053 95.9376 473.053 93.9636V93.9084C473.053 92.0587 472.07 91.0096 467.92 90.1262C463.387 89.1323 461.299 87.6553 461.299 84.3699V84.3147C461.299 81.1812 464.029 78.876 467.783 78.876C470.377 78.876 472.261 79.5248 474.063 80.8361C474.295 81.0018 474.541 81.3193 474.541 81.7472C474.541 82.3408 474.063 82.8239 473.476 82.8239C473.216 82.8239 473.025 82.7687 472.834 82.6306C471.169 81.4021 469.572 80.8913 467.729 80.8913C465.162 80.8913 463.524 82.3131 463.524 84.1077V84.1629C463.524 86.0402 464.534 87.0893 468.875 88.0418C473.271 89.008 475.292 90.6369 475.292 93.6876V93.7428C475.292 97.1661 472.479 99.3886 468.561 99.3886C465.681 99.3886 463.292 98.4775 461.094 96.7106H461.108Z" fill="#08110C"/>
<path d="M468.575 99.7085C465.721 99.7085 463.21 98.8113 460.916 96.9615C460.575 96.7269 460.356 96.299 460.356 95.8434C460.356 95.0428 460.971 94.4078 461.749 94.4078C462.09 94.4078 462.431 94.5459 462.65 94.7529C464.493 96.3404 466.295 97.0168 468.643 97.0168C470.991 97.0168 472.711 95.7606 472.711 93.9523C472.711 92.282 471.96 91.3019 467.837 90.4185C463.715 89.5074 460.957 88.127 460.957 84.3448C460.957 80.949 463.81 78.5195 467.756 78.5195C470.308 78.5195 472.302 79.1407 474.226 80.5487C474.418 80.6867 474.841 81.0871 474.841 81.722C474.841 82.4951 474.213 83.13 473.448 83.13C473.121 83.13 472.861 83.0472 472.616 82.8678C471.046 81.7082 469.53 81.1837 467.701 81.1837C465.421 81.1837 463.824 82.3708 463.824 84.0825C463.824 85.7942 464.616 86.7605 468.93 87.6991C473.612 88.7344 475.605 90.5151 475.605 93.6624C475.605 97.2238 472.711 99.6809 468.547 99.6809L468.575 99.7085ZM461.763 95.0704C461.339 95.0704 461.012 95.4155 461.012 95.8572C461.012 96.1057 461.121 96.3266 461.285 96.437H461.312C463.524 98.2315 465.831 99.0597 468.575 99.0597C472.411 99.0597 474.991 96.9201 474.991 93.7452C474.991 90.874 473.203 89.328 468.82 88.3617C464.629 87.4507 463.21 86.3878 463.21 84.1653C463.21 82.0533 465.107 80.5625 467.728 80.5625C469.667 80.5625 471.346 81.1285 473.011 82.357C473.148 82.4536 473.271 82.4951 473.476 82.4951C473.885 82.4951 474.226 82.15 474.226 81.7358C474.226 81.3907 473.981 81.1699 473.871 81.0871C472.042 79.7619 470.213 79.1821 467.783 79.1821C464.22 79.1821 461.626 81.3355 461.626 84.3034C461.626 87.2712 463.346 88.7758 467.988 89.7973C472.015 90.6532 473.366 91.6884 473.366 93.8971C473.366 96.1057 471.428 97.6655 468.657 97.6655C466.145 97.6655 464.22 96.9339 462.227 95.2223C462.131 95.1256 461.954 95.0428 461.763 95.0428V95.0704Z" fill="#08110C"/>
<path d="M484.629 81.2376H478.909C478.349 81.2376 477.871 80.7821 477.871 80.2161C477.871 79.6501 478.349 79.167 478.909 79.167H492.601C493.161 79.167 493.639 79.6501 493.639 80.2161C493.639 80.7821 493.161 81.2376 492.601 81.2376H486.881V98.1059C486.881 98.7271 486.376 99.2517 485.748 99.2517C485.12 99.2517 484.615 98.7409 484.615 98.1059V81.2376H484.629Z" fill="#08110C"/>
<path d="M485.762 99.5655C484.97 99.5655 484.315 98.9029 484.315 98.1023V81.5652H478.923C478.172 81.5652 477.558 80.9578 477.558 80.2124C477.558 79.467 478.186 78.832 478.923 78.832H492.615C493.352 78.832 493.98 79.467 493.98 80.2124C493.98 80.9578 493.366 81.5652 492.615 81.5652H487.223V98.1023C487.223 98.9029 486.568 99.5655 485.776 99.5655H485.762ZM478.923 79.4808C478.541 79.4808 478.199 79.8259 478.199 80.2124C478.199 80.5989 478.527 80.9164 478.923 80.9164H484.957V98.1023C484.957 98.5578 485.312 98.9167 485.762 98.9167C486.213 98.9167 486.568 98.5578 486.568 98.1023V80.9164H492.602C492.997 80.9164 493.325 80.5989 493.325 80.2124C493.325 79.8259 492.984 79.4808 492.602 79.4808H478.909H478.923Z" fill="#08110C"/>
<path d="M494.035 97.6211L502.034 79.9245C502.321 79.3034 502.744 78.9307 503.44 78.9307H503.55C504.219 78.9307 504.683 79.3034 504.928 79.9245L512.928 97.5935C513.01 97.7868 513.065 97.9938 513.065 98.1595C513.065 98.7531 512.587 99.2362 512 99.2362C511.468 99.2362 511.099 98.8635 510.908 98.408L508.846 93.8251H498.034L495.973 98.4632C495.768 98.9463 495.413 99.2362 494.908 99.2362C494.349 99.2362 493.898 98.7807 493.898 98.2147C493.898 98.0491 493.925 97.842 494.035 97.6211ZM507.986 91.7821L503.454 81.581L498.922 91.7821H507.986Z" fill="#08110C"/>
<path d="M512.014 99.5645C511.413 99.5645 510.908 99.1918 510.621 98.5431L508.656 94.1534H498.253L496.287 98.6121C496.028 99.2333 495.55 99.5783 494.922 99.5783C494.185 99.5783 493.584 98.971 493.584 98.2256C493.584 97.9633 493.639 97.7286 493.762 97.494L501.762 79.8112C502.117 79.0105 502.676 78.624 503.468 78.624H503.577C504.355 78.624 504.942 79.0381 505.256 79.825L513.256 97.4802C513.365 97.7424 513.42 97.9771 513.42 98.1841C513.42 98.9572 512.792 99.5922 512.028 99.5922L512.014 99.5645ZM497.83 93.5046H509.065L511.208 98.2808C511.318 98.5154 511.55 98.9158 512.014 98.9158C512.423 98.9158 512.765 98.5707 512.765 98.1565C512.765 98.0461 512.724 97.8943 512.656 97.7148L504.656 80.0596C504.437 79.5075 504.082 79.2452 503.564 79.2452H503.454C502.922 79.2452 502.594 79.4799 502.335 80.0458L494.335 97.7424C494.24 97.9357 494.226 98.1013 494.226 98.198C494.226 98.5845 494.526 98.902 494.922 98.902C495.277 98.902 495.537 98.7087 495.7 98.336L497.844 93.4908L497.83 93.5046ZM508.478 92.0966H498.417L503.454 80.7774L508.492 92.0966H508.478ZM499.414 91.4478H507.495L503.454 82.3649L499.414 91.4478Z" fill="#08110C"/>
<path d="M520.123 81.2376H514.403C513.844 81.2376 513.366 80.7821 513.366 80.2161C513.366 79.6501 513.844 79.167 514.403 79.167H528.096C528.656 79.167 529.134 79.6501 529.134 80.2161C529.134 80.7821 528.656 81.2376 528.096 81.2376H522.376V98.1059C522.376 98.7271 521.871 99.2517 521.243 99.2517C520.615 99.2517 520.11 98.7409 520.11 98.1059V81.2376H520.123Z" fill="#08110C"/>
<path d="M521.257 99.5655C520.465 99.5655 519.81 98.9029 519.81 98.1023V81.5652H514.417C513.666 81.5652 513.052 80.9578 513.052 80.2124C513.052 79.467 513.68 78.832 514.417 78.832H528.11C528.847 78.832 529.475 79.467 529.475 80.2124C529.475 80.9578 528.861 81.5652 528.11 81.5652H522.717V98.1023C522.717 98.9029 522.062 99.5655 521.27 99.5655H521.257ZM514.417 79.4808C514.035 79.4808 513.694 79.8259 513.694 80.2124C513.694 80.5989 514.021 80.9164 514.417 80.9164H520.451V98.1023C520.451 98.5578 520.806 98.9167 521.257 98.9167C521.707 98.9167 522.062 98.5578 522.062 98.1023V80.9164H528.096C528.492 80.9164 528.82 80.5989 528.82 80.2124C528.82 79.8259 528.478 79.4808 528.096 79.4808H514.404H514.417Z" fill="#08110C"/>
<path d="M533.174 97.9661V80.2971C533.174 79.6759 533.679 79.1514 534.28 79.1514H546.539C547.098 79.1514 547.549 79.6069 547.549 80.1729C547.549 80.7388 547.098 81.1943 546.539 81.1943H535.413V87.9997H545.269C545.829 87.9997 546.279 88.4828 546.279 89.0211C546.279 89.5871 545.829 90.0426 545.269 90.0426H535.413V97.0274H546.675C547.235 97.0274 547.685 97.4829 547.685 98.0489C547.685 98.6149 547.235 99.0704 546.675 99.0704H534.28C533.693 99.0704 533.174 98.5596 533.174 97.9247V97.9661Z" fill="#08110C"/>
<path d="M546.662 99.4274H534.267C533.502 99.4274 532.847 98.751 532.847 97.9642V80.2952C532.847 79.4946 533.502 78.832 534.267 78.832H546.526C547.263 78.832 547.863 79.4394 547.863 80.1848C547.863 80.9302 547.263 81.5376 546.526 81.5376H535.714V87.6941H545.256C545.98 87.6941 546.594 88.3153 546.594 89.0469C546.594 89.7785 545.993 90.3997 545.256 90.3997H535.714V96.7357H546.662C547.399 96.7357 548 97.343 548 98.0885C548 98.8339 547.399 99.4412 546.662 99.4412V99.4274ZM534.267 79.4808C533.843 79.4808 533.488 79.8535 533.488 80.2952V97.9642C533.488 98.4059 533.843 98.7787 534.267 98.7787H546.662C547.044 98.7787 547.358 98.475 547.358 98.0747C547.358 97.6743 547.058 97.3707 546.662 97.3707H535.072V89.7371H545.256C545.638 89.7371 545.952 89.4196 545.952 89.0331C545.952 88.6466 545.625 88.3291 545.256 88.3291H535.072V80.875H546.526C546.908 80.875 547.222 80.5713 547.222 80.171C547.222 79.7707 546.922 79.467 546.526 79.467H534.267V79.4808Z" fill="#08110C"/>
<path d="M404.768 143.561C403.703 143.561 402.843 142.691 402.843 141.614V1.94635C402.843 0.869646 403.703 0 404.768 0C405.832 0 406.693 0.869646 406.693 1.94635V141.614C406.693 142.691 405.832 143.561 404.768 143.561Z" fill="#08110C"/>
</svg>
