<svg width="56" height="56" viewBox="0 0 56 56" fill="none" xmlns="http://www.w3.org/2000/svg">
<path d="M22.7061 6.58753H32.8544C33.4836 6.58753 33.9985 6.07268 33.9985 5.44342C33.9985 4.81416 33.4836 4.29932 32.8544 4.29932H22.7061C22.0769 4.29932 21.562 4.81416 21.562 5.44342C21.562 6.07268 22.0769 6.58753 22.7061 6.58753Z" fill="#BACBCA"/>
<path d="M4.81228 51.6893H4.79079L4.77727 51.706L2.31788 54.7488C2.31778 54.7489 2.31769 54.7491 2.3176 54.7492C2.09738 55.0132 1.77841 55.1559 1.46006 55.1559C1.21823 55.1559 0.976537 55.0791 0.767426 54.9141C0.294629 54.5291 0.218172 53.8367 0.602565 53.3645L0.602694 53.3643L12.1353 39.063L12.1764 39.012L12.114 38.9919C9.82045 38.2539 8.14088 36.131 8.14088 33.6003V6.00446C8.14088 2.87159 10.6835 0.328949 13.8164 0.328949H41.744C44.8768 0.328949 47.4195 2.87159 47.4195 6.00446V33.5888C47.4195 36.131 45.7398 38.2538 43.4465 38.9804L43.3838 39.0003L43.4251 39.0516L54.9577 53.3643L54.9578 53.3645C55.3422 53.8368 55.2657 54.5291 54.7929 54.9142C54.3085 55.2993 53.6163 55.2216 53.2432 54.7497L53.2429 54.7493L50.7831 51.706L50.7696 51.6893H50.7481H4.81228ZM6.61925 49.4064L6.56017 49.4797H6.65429H48.9061H49.0002L48.9411 49.4064L44.891 44.3838L44.8775 44.367H44.8559H10.7044H10.6829L10.6694 44.3838L6.61925 49.4064ZM12.5114 42.0956L12.4524 42.1689H12.5464H43.0139H43.1079L43.049 42.0956L40.7837 39.2811L40.7702 39.2643H40.7486H14.8118H14.7902L14.7767 39.2811L12.5114 42.0956ZM26.6868 11.2101V11.1651H26.6418H11.5396C10.8855 11.1651 10.3505 11.7001 10.3505 12.3542V23.2919C10.3505 23.946 10.8855 24.481 11.5396 24.481H26.6418H26.6868V24.436V11.2101ZM28.93 11.1651H28.885V11.2101V24.436V24.481H28.93H44.0322C44.6863 24.481 45.2213 23.946 45.2213 23.2919V12.3542C45.2213 11.7001 44.6863 11.1651 44.0322 11.1651H28.93ZM45.1498 9.17029L45.2099 9.1916V9.12786V6.00446C45.2099 4.09183 43.6452 2.52713 41.7325 2.52713H13.8164C11.9038 2.52713 10.3391 4.09183 10.3391 6.00446V9.12786V9.1916L10.3991 9.17029C10.7498 9.04585 11.1337 8.96694 11.5282 8.96694H44.0207C44.4152 8.96694 44.7991 9.04585 45.1498 9.17029ZM10.3991 26.4758L10.3391 26.4546V26.5183V33.6003C10.3391 35.5129 11.9038 37.0776 13.8164 37.0776H41.7325C43.6452 37.0776 45.2099 35.5129 45.2099 33.6003V26.5183V26.4545L45.1498 26.4758C44.7992 26.6003 44.4153 26.6792 44.0209 26.6792C30.0657 26.6464 22.0886 26.673 17.4565 26.6885C16.4283 26.6919 15.5648 26.6948 14.8374 26.6963C12.8346 26.7006 11.8645 26.6949 11.3242 26.6632C11.0544 26.6473 10.8937 26.6251 10.7661 26.595C10.6629 26.5706 10.581 26.5411 10.4781 26.5041C10.4532 26.4951 10.4271 26.4857 10.3991 26.4758Z" fill="#BACBCA" stroke="#EFEDEC" stroke-width="0.0900279"/>
<path d="M17.7637 35.4304C19.6515 35.4304 21.196 33.8859 21.196 31.9981C21.196 30.1103 19.6515 28.5658 17.7637 28.5658C15.8759 28.5658 14.3314 30.1103 14.3314 31.9981C14.3314 33.8859 15.8759 35.4304 17.7637 35.4304ZM17.7637 30.854C18.3929 30.854 18.9078 31.3689 18.9078 31.9981C18.9078 32.6274 18.3929 33.1422 17.7637 33.1422C17.1344 33.1422 16.6196 32.6274 16.6196 31.9981C16.6196 31.3689 17.1344 30.854 17.7637 30.854Z" fill="#BACBCA"/>
<path d="M37.7855 35.4304C39.6733 35.4304 41.2178 33.8859 41.2178 31.9981C41.2178 30.1103 39.6733 28.5658 37.7855 28.5658C35.8977 28.5658 34.3532 30.1103 34.3532 31.9981C34.3532 33.8859 35.8977 35.4304 37.7855 35.4304ZM37.7855 30.854C38.4148 30.854 38.9296 31.3689 38.9296 31.9981C38.9296 32.6274 38.4148 33.1422 37.7855 33.1422C37.1562 33.1422 36.6414 32.6274 36.6414 31.9981C36.6414 31.3689 37.1562 30.854 37.7855 30.854Z" fill="#BACBCA"/>
</svg>
