<svg width="135" height="108" viewBox="0 0 135 108" fill="none" xmlns="http://www.w3.org/2000/svg">
<g clip-path="url(#clip0_54_4)">
<path d="M134.368 87.6322L110.946 64.1697C110.543 63.7686 109.995 63.5394 109.423 63.5394L73.7393 63.5183L67.5738 50.5114H83.0989C84.2851 50.5114 85.2514 49.5463 85.2514 48.3551C85.2514 47.1639 84.2851 46.1988 83.0989 46.1988H64.2983C64.217 46.1928 64.1358 46.1958 64.0545 46.1988H32.9861L15.8473 28.8945C12.2317 25.2726 6.34012 25.2665 2.71848 28.8945C0.963361 30.6527 0 32.9899 0 35.4748C0 37.9598 0.969382 40.297 2.71848 42.0492L29.9395 69.4774V105.841C29.9395 107.03 30.9028 107.998 32.092 107.998C33.2811 107.998 34.2445 107.03 34.2445 105.841V73.811L41.8038 81.4258C42.2073 81.8299 42.7552 82.0621 43.3272 82.0621L77.7764 82.0863L87.4672 102.551C87.8344 103.326 88.6081 103.782 89.4119 103.782C89.722 103.782 90.0381 103.712 90.3362 103.57C91.4079 103.061 91.8655 101.776 91.3567 100.696L82.545 82.0863L102.625 82.1013L120.742 101.206C121.143 101.628 121.694 101.87 122.278 101.879H122.305C122.877 101.879 123.425 101.646 123.828 101.248L134.38 90.6781C135.22 89.8367 135.22 88.4676 134.38 87.6262L134.368 87.6322ZM62.8111 50.5084L68.9736 63.5123L50.1249 63.5002L37.255 50.5053H62.8111V50.5084ZM33.6514 67.107C33.6243 67.0799 33.5972 67.0497 33.5701 67.0256L5.76511 39.0033C4.82283 38.0624 4.30201 36.8078 4.30201 35.4718C4.30201 34.1359 4.81982 32.8843 5.75909 31.9404C7.70388 29.9982 10.8649 29.9922 12.7976 31.9344L47.6984 67.1734C48.1018 67.5775 48.6527 67.8097 49.2247 67.8097L71.0148 67.8248L75.7292 77.7798L44.2213 77.7587L33.6514 67.107ZM122.335 96.6433L105.103 78.4734C104.699 78.0482 104.13 77.8009 103.543 77.8009L80.4979 77.7858L75.7834 67.8308L108.535 67.8519L129.807 89.1612L122.338 96.6433H122.335Z" fill="#1B4136"/>
<path d="M101.894 34.2113C108.149 34.2113 113.243 29.1117 113.243 22.8419C113.243 16.5722 108.149 11.4756 101.894 11.4756C95.6377 11.4756 90.5439 16.5752 90.5439 22.8419C90.5439 29.1087 95.6377 34.2113 101.894 34.2113ZM101.894 15.7851C105.78 15.7851 108.938 18.9516 108.938 22.845C108.938 26.7383 105.78 29.9048 101.894 29.9048C98.007 29.9048 94.849 26.7383 94.849 22.845C94.849 18.9516 98.007 15.7851 101.894 15.7851Z" fill="#1B4136"/>
<path d="M101.893 8.35061C103.08 8.35061 104.046 7.38557 104.046 6.19736V2.15324C104.046 0.96504 103.08 0 101.893 0C100.707 0 99.741 0.96504 99.741 2.15324V6.19435C99.741 7.38255 100.707 8.34759 101.893 8.34759V8.35061Z" fill="#1B4136"/>
<path d="M84.4025 11.629L87.5545 14.1501C87.9549 14.4698 88.4275 14.6206 88.9002 14.6206C89.5294 14.6206 90.1555 14.3432 90.58 13.8094C91.3206 12.8805 91.1671 11.5234 90.2429 10.7816L87.0909 8.26039C86.1606 7.52455 84.8119 7.66327 84.0653 8.59815C83.3247 9.52701 83.4782 10.8841 84.4025 11.626V11.629Z" fill="#1B4136"/>
<path d="M81.7533 29.6022C81.9098 29.6022 82.0694 29.5871 82.232 29.5509L86.1667 28.6522C87.3287 28.3868 88.0513 27.2318 87.7833 26.0707C87.5214 24.9097 86.3865 24.1859 85.2093 24.4483L81.2746 25.3469C80.1126 25.6123 79.39 26.7674 79.658 27.9284C79.8838 28.9266 80.7719 29.6052 81.7533 29.6052V29.6022Z" fill="#1B4136"/>
<path d="M92.7415 36.9127L90.9924 40.5527C90.4776 41.6233 90.9292 42.911 91.9949 43.4297C92.299 43.5744 92.6151 43.6438 92.9312 43.6438C93.729 43.6438 94.5027 43.1945 94.8699 42.4224L96.619 38.7824C97.1338 37.7118 96.6823 36.4241 95.6165 35.9054C94.5358 35.3957 93.2533 35.8391 92.7445 36.9127H92.7415Z" fill="#1B4136"/>
<path d="M108.17 35.9026C107.105 36.4183 106.653 37.706 107.168 38.7796L108.917 42.4196C109.284 43.1917 110.058 43.641 110.856 43.641C111.172 43.641 111.485 43.5716 111.792 43.4269C112.858 42.9112 113.309 41.6235 112.795 40.5499L111.045 36.9099C110.531 35.8393 109.248 35.3959 108.173 35.9026H108.17Z" fill="#1B4136"/>
<path d="M116.001 26.0688C115.733 27.2298 116.458 28.3849 117.617 28.6502L121.552 29.5489C121.715 29.5851 121.871 29.6002 122.031 29.6002C123.012 29.6002 123.9 28.9247 124.126 27.9234C124.394 26.7624 123.668 25.6074 122.509 25.342L118.575 24.4433C117.41 24.1839 116.263 24.9077 116.001 26.0657V26.0688Z" fill="#1B4136"/>
<path d="M114.887 14.6201C115.36 14.6201 115.832 14.4663 116.233 14.1496L119.385 11.6285C120.309 10.8866 120.462 9.52951 119.722 8.60066C118.972 7.66276 117.62 7.52102 116.696 8.2629L113.544 10.7841C112.62 11.5259 112.466 12.883 113.207 13.8119C113.632 14.3457 114.258 14.6231 114.887 14.6231V14.6201Z" fill="#1B4136"/>
</g>
<defs>
<clipPath id="clip0_54_4">
<rect width="135" height="108" fill="white"/>
</clipPath>
</defs>
</svg>
