<svg width="24" height="24" viewBox="0 0 24 24" fill="none" xmlns="http://www.w3.org/2000/svg">
<g clip-path="url(#clip0_84_565)">
<path d="M19.7447 5.58904C19.7447 6.35823 19.1243 6.97855 18.3552 6.97855C17.586 6.97855 16.9657 6.35203 16.9657 5.58904C16.9657 4.82605 17.5922 4.19953 18.3552 4.19953C19.1181 4.19953 19.7447 4.82605 19.7447 5.58904ZM18.014 11.8294C18.014 15.0551 15.3901 17.679 12.1644 17.679C8.93877 17.679 6.31484 15.0551 6.31484 11.8294C6.31484 8.60377 8.93877 5.97984 12.1644 5.97984C15.3901 5.97984 18.014 8.60377 18.014 11.8294ZM15.9111 11.8294C15.9111 9.76376 14.2301 8.08271 12.1644 8.08271C10.0988 8.08271 8.41771 9.76376 8.41771 11.8294C8.41771 13.8951 10.0988 15.5761 12.1644 15.5761C14.2301 15.5761 15.9111 13.8951 15.9111 11.8294ZM24 7.13363C24 3.19462 20.8054 0 16.8664 0H7.13365C3.19465 0 2.57492e-05 3.19462 2.57492e-05 7.13363V16.8664C2.57492e-05 20.8054 3.19465 24 7.13365 24H16.8664C20.8054 24 24 20.8054 24 16.8664V7.13363ZM21.6552 16.7609C21.6552 19.4655 19.4593 21.6614 16.7547 21.6614H7.2329C4.52833 21.6614 2.33241 19.4655 2.33241 16.7609V7.23908C2.33241 4.53451 4.52833 2.33859 7.2329 2.33859H16.7547C19.4593 2.33859 21.6552 4.53451 21.6552 7.23908V16.7609Z" fill="#EFEDEC"/>
</g>
<defs>
<clipPath id="clip0_84_565">
<rect width="24" height="24" fill="white"/>
</clipPath>
</defs>
</svg>
