<svg width="82" height="88" viewBox="0 0 82 88" fill="none" xmlns="http://www.w3.org/2000/svg">
<path d="M72.7893 0.5H8.3988C4.04497 0.5 0.5 4.00201 0.5 8.32809V79.6719C0.5 83.998 4.04497 87.5 8.3988 87.5H72.7893C77.1454 87.5 80.6881 83.9958 80.6881 79.6719V8.32809C80.6881 4.00201 77.1431 0.5 72.7893 0.5ZM76.2584 19.7162V79.6719C76.2584 81.5604 74.7085 83.101 72.7893 83.101H8.3988C6.47982 83.101 4.92971 81.5585 4.92971 79.6719V19.7162H76.2584ZM76.2605 15.3173H4.93177V8.32809C4.93177 6.43927 6.48205 4.89694 8.40085 4.89694H72.7914C74.7102 4.89694 76.2605 6.43927 76.2605 8.32809V15.3173Z" fill="#1B4136" stroke="#1B4136"/>
<path d="M40.594 27.2988C26.5479 27.2988 15.1349 38.5959 15.1349 52.5194C15.1349 66.4429 26.5479 77.74 40.594 77.74C54.64 77.74 66.0531 66.4429 66.0531 52.5194C66.0531 38.5959 54.64 27.2988 40.594 27.2988ZM40.594 31.6978C52.2029 31.6978 61.6213 41.0331 61.6213 52.5194C61.6213 64.0057 52.2029 73.341 40.594 73.341C28.9851 73.341 19.5667 64.0057 19.5667 52.5194C19.5667 41.0331 28.9851 31.6978 40.594 31.6978Z" fill="#1B4136" stroke="#1B4136"/>
<path d="M23.0916 52.5501L23.0916 52.5492L23.0916 52.5491V52.549V52.5489V52.5487V52.5486V52.5485V52.5484V52.5483V52.5481V52.548V52.5479V52.5478V52.5477V52.5475V52.5474V52.5473V52.5472V52.5471V52.547V52.5468V52.5467V52.5466V52.5465V52.5464V52.5462V52.5461V52.546V52.5459V52.5458V52.5456V52.5455V52.5454V52.5453V52.5452V52.5451V52.5449V52.5448V52.5447V52.5446V52.5445V52.5444V52.5442V52.5441V52.544V52.5439V52.5438V52.5436V52.5435V52.5434V52.5433V52.5432V52.5431V52.5429V52.5428V52.5427V52.5426V52.5425V52.5424V52.5422V52.5421V52.542V52.5419V52.5418V52.5417V52.5415V52.5414V52.5413V52.5412V52.5411V52.541V52.5408V52.5407V52.5406V52.5405V52.5404V52.5403V52.5401V52.54V52.5399V52.5398V52.5397V52.5396V52.5394V52.5393V52.5392V52.5391V52.539V52.5389V52.5387V52.5386V52.5385V52.5384V52.5383V52.5382V52.538V52.5379V52.5378V52.5377V52.5376V52.5375V52.5374V52.5372V52.5371V52.537V52.5369V52.5368V52.5367V52.5365V52.5364V52.5363V52.5362V52.5361V52.536V52.5359V52.5357V52.5356V52.5355V52.5354V52.5353V52.5352V52.535V52.5349V52.5348V52.5347V52.5346V52.5345V52.5344V52.5342V52.5341V52.534V52.5339V52.5338V52.5337V52.5336V52.5334V52.5333V52.5332V52.5331V52.533V52.5329V52.5327V52.5326V52.5325V52.5324V52.5323V52.5322V52.5321V52.5319V52.5318V52.5317V52.5316V52.5315V52.5314V52.5313V52.5311V52.531V52.5309V52.5308V52.5307V52.5306V52.5305V52.5303V52.5302V52.5301V52.53V52.5299V52.5298V52.5297V52.5295V52.5294V52.5293V52.5292V52.5291V52.529V52.5289V52.5287V52.5286V52.5285V52.5284V52.5283V52.5282V52.5281V52.5279V52.5278V52.5277V52.5276V52.5275V52.5274V52.5273V52.5271V52.527V52.5269V52.5268V52.5267V52.5266V52.5265V52.5264V52.5262V52.5261V52.526V52.5259V52.5258V52.5257V52.5256V52.5254V52.5253V52.5252V52.5251V52.525V52.5249V52.5248V52.5246V52.5245V52.5244V52.5243V52.5242V52.5241V52.524V52.5238V52.5237V52.5236V52.5235V52.5234V52.5233V52.5232V52.5231V52.5229V52.5228V52.5227V52.5226V52.5225V52.5224V52.5223V52.5221V52.522V52.5219V52.5218V52.5217V52.5216V52.5215V52.5214V52.5212V52.5211V52.521V52.5209V52.5208V52.5207V52.5206V52.5204V52.5203V52.5202V52.5201V52.52V52.5199V52.5198V52.5196V52.5195V52.5194V52.5193V52.5192V52.5191V52.519V52.5189V52.5187V52.5186V52.5185V52.5184V52.5183V52.5182V52.5181V52.5179V52.5178V52.5177V52.5176V52.5175V52.5174V52.5173V52.5172V52.517V52.5169V52.5168V52.5167V52.5166V52.5165V52.5164V52.5162V52.5161V52.516V52.5159V52.5158V52.5157V52.5156V52.5154V52.5153V52.5152V52.5151V52.515V52.5149V52.5148V52.5147V52.5145V52.5144V52.5143V52.5142V52.5141V52.514V52.5139V52.5137V52.5136V52.5135V52.5134V52.5133V52.5132V52.5131V52.5129V52.5128V52.5127V52.5126V52.5125V52.5124V52.5123V52.5121V52.512V52.5119V52.5118V52.5117V52.5116V52.5115V52.5114V52.5112V52.5111V52.511V52.5109V52.5108V52.5107V52.5106V52.5104V52.5103V52.5102V52.5101V52.51V52.5099V52.5098V52.5096V52.5095V52.5094V52.5093V52.5092V52.5091V52.509V52.5088V52.5087V52.5086V52.5085V52.5084V52.5083V52.5082V52.508V52.5079V52.5078V52.5077V52.5076V52.5075V52.5074V52.5072V52.5071V52.507V52.5069V52.5068V52.5067V52.5065V52.5064V52.5063V52.5062V52.5061V52.506V52.5059V52.5057V52.5056V52.5055V52.5054V52.5053V52.5052V52.5051V52.5049V52.5048V52.5047V52.5046V52.5045V52.5044V52.5042V52.5041V52.504V52.5039V52.5038V52.5037V52.5036V52.5034V52.5033V52.5032V52.5031V52.503V52.5029V52.5028V52.5026V52.5025V52.5024V52.5023V52.5022V52.5021V52.5019V52.5018V52.5017V52.5016V52.5015V52.5014V52.5012V52.5011V52.501V52.5009V52.5008V52.5007V52.5006V52.5004V52.5003V52.5002V52.5001V52.5V52.4999V52.4997V52.4996V52.4995V52.4994V52.4993V52.4992V52.499V52.4989V52.4988V52.4987V52.4986V52.4985V52.4983V52.4982V52.4981V52.498V52.4979V52.4978V52.4976V52.4975V52.4974V52.4973V52.4972V52.4971V52.4969V52.4968V52.4967V52.4966V52.4965V52.4964V52.4962V52.4961V52.496V52.4959V52.4958V52.4956V52.4955V52.4954V52.4953V52.4952V52.4951V52.4949V52.4948V52.4947V52.4946V52.4945V52.4944V52.4942V52.4941V52.494V52.4939V52.4938V52.4936V52.4935V52.4934V52.4933V52.4932V52.4931V52.4929V52.4928V52.4927V52.4926V52.4925V52.4923V52.4922V52.4921V52.492V52.4919V52.4918V52.4916V52.4915V52.4914V52.4913V52.4912V52.491V52.4909V52.4908V52.4907V52.4906V52.4904V52.4903V52.4902V52.4901M23.0916 52.5501L23.5916 52.4925V52.5492C23.6081 61.8286 31.221 69.3585 40.594 69.3585C49.967 69.3585 57.5964 61.8123 57.5964 52.5186C57.5964 43.225 49.9773 35.6787 40.594 35.6787C31.2113 35.6787 23.6071 43.2076 23.5916 52.4901H23.0916M23.0916 52.5501C23.1086 62.1097 30.9496 69.8585 40.594 69.8585C50.2384 69.8585 58.0964 62.0931 58.0964 52.5186C58.0964 42.9443 50.2489 35.1787 40.594 35.1787C30.9396 35.1787 23.1071 42.927 23.0916 52.4901M23.0916 52.5501L23.5916 52.4921L23.0916 52.4913C23.0916 52.4909 23.0916 52.4905 23.0916 52.4901M53.3008 55.5687C49.7176 56.3933 47.0481 55.5383 44.375 54.4238C44.375 54.4238 44.3749 54.4238 44.3748 54.4237L53.3008 55.5687ZM53.3008 55.5687C51.9146 61.2388 46.7503 65.4616 40.594 65.4616C33.8671 65.4616 28.325 60.4202 27.6027 53.9571L53.3008 55.5687ZM40.594 39.5756C47.2606 39.5756 52.7639 44.5273 53.5652 50.9072C50.0762 52.1227 47.8509 51.1531 45.2326 50.0125C44.773 49.8122 44.3012 49.6067 43.8084 49.4067C41.8911 48.628 39.7482 47.9013 37.0585 47.742C34.5625 47.5941 31.6221 47.936 27.9723 49.1433C29.4709 43.6381 34.5563 39.5756 40.594 39.5756Z" fill="#1B4136" stroke="#1B4136"/>
<path d="M14.9865 13.5812C16.9078 13.5812 18.4736 12.0372 18.4736 10.1226C18.4736 8.208 16.9078 6.66406 14.9865 6.66406C13.0651 6.66406 11.4994 8.208 11.4994 10.1226C11.4994 12.0372 13.0651 13.5812 14.9865 13.5812Z" fill="#1B4136" stroke="#1B4136"/>
<path d="M26.1279 13.5812C28.0492 13.5812 29.615 12.0372 29.615 10.1226C29.615 8.208 28.0492 6.66406 26.1279 6.66406C24.2066 6.66406 22.6408 8.208 22.6408 10.1226C22.6408 12.0372 24.2066 13.5812 26.1279 13.5812Z" fill="#1B4136" stroke="#1B4136"/>
<path d="M65.6787 8.34766H52.4889C51.5071 8.34766 50.7023 9.13791 50.7023 10.122C50.7023 11.1061 51.5071 11.8964 52.4889 11.8964H65.6787C66.6606 11.8964 67.4654 11.1061 67.4654 10.122C67.4654 9.13791 66.6606 8.34766 65.6787 8.34766Z" fill="#1B4136" stroke="#1B4136"/>
</svg>
