<svg width="103" height="103" viewBox="0 0 103 103" fill="none" xmlns="http://www.w3.org/2000/svg">
<g clip-path="url(#clip0_57_36)">
<mask id="mask0_57_36" style="mask-type:luminance" maskUnits="userSpaceOnUse" x="0" y="0" width="103" height="103">
<path d="M103 0H0V103H103V0Z" fill="white"/>
</mask>
<g mask="url(#mask0_57_36)">
<path d="M32.7756 63.2305H70.2244V66.7355H32.7756V63.2305ZM100.554 59.6787C99.6352 59.7255 98.7784 60.3486 98.4669 61.2209C97.5322 63.6978 96.0367 67.7013 94.6659 71.4244H79.3841C78.1535 71.4867 77.0942 72.655 77.1565 73.8701C77.2188 75.1007 78.3872 76.16 79.6022 76.0977H92.9523C92.2358 78.0605 91.488 80.1167 90.8338 81.9549H76.0972C74.8666 81.9393 73.7294 83.0609 73.7294 84.2916C73.7294 85.5222 74.8666 86.6438 76.0972 86.6282H77.2656V99.4954C77.25 100.726 78.3716 101.863 79.6022 101.863C80.8329 101.863 81.9545 100.726 81.9389 99.4954V86.6282H89.6187L93.7468 99.0593C94.1363 100.228 95.5538 100.929 96.7222 100.539C97.8905 100.15 98.5915 98.7321 98.202 97.5638L94.5413 86.6282H95.9744C97.2051 86.6438 98.3422 85.5222 98.3422 84.2916C98.3422 83.0609 97.2051 81.9393 95.9744 81.9549H95.7875C98.0619 75.6459 100.399 69.4148 102.844 62.8722C103.405 61.4235 102.096 59.6164 100.539 59.6943M2.14972 59.6943C0.700991 59.8034 -0.389451 61.5169 0.140192 62.8722C1.37083 66.1591 3.44267 71.7048 5.18738 76.4404C5.98184 78.5745 6.65169 80.4439 7.19691 81.9549H6.79189C5.56124 82.0172 4.50196 83.1856 4.56427 84.4006C4.62658 85.6313 5.79491 86.6905 7.00997 86.6282H8.44313L4.78236 97.5638C4.39291 98.7321 5.09391 100.15 6.26224 100.539C7.43057 100.929 8.84815 100.228 9.23759 99.0593L13.3657 86.6282H21.0455V99.4954C21.0299 100.726 22.1515 101.863 23.3822 101.863C24.6128 101.863 25.7344 100.726 25.7188 99.4954V86.6282H26.8872C28.1178 86.6438 29.255 85.5222 29.255 84.2916C29.255 83.0609 28.1178 81.9393 26.8872 81.9549H12.1818C11.4808 80.0077 10.7019 77.858 10.0632 76.0977H23.4133C24.644 76.1133 25.7811 74.9917 25.7811 73.761C25.7811 72.5304 24.644 71.4088 23.4133 71.4244H8.34966C6.97882 67.7013 5.46778 63.7134 4.54869 61.2209C4.20598 60.2707 3.17785 59.6164 2.1653 59.6787L2.14972 59.6943ZM51.2508 0.000442439C50.098 0.125064 49.1478 1.21551 49.1633 2.38384V2.46172C41.6081 2.78886 31.467 4.7205 22.1671 9.30035C11.8858 14.3631 2.55474 22.853 0.0467256 35.8448C-0.233674 37.2001 0.965812 38.6644 2.35223 38.6644H17.5717C18.8023 38.68 19.9395 37.5584 19.9395 36.3277C19.9395 35.0971 18.8023 33.9755 17.5717 33.9911H5.37431C8.24061 24.3017 15.5622 17.7746 24.2078 13.5219C33.6635 8.86417 44.5679 7.08831 51.5 7.08831C58.4321 7.08831 69.3365 8.86417 78.7766 13.5219C87.4223 17.7902 94.7438 24.3017 97.6101 33.9911H26.9183C25.6877 33.9755 24.5505 35.0971 24.5505 36.3277C24.5505 37.5584 25.6877 38.68 26.9183 38.6644H49.1478V58.5572H30.2052C29.0525 58.6662 28.0867 59.7411 28.0867 60.8938V69.0877C28.0867 70.3183 29.2083 71.4244 30.4233 71.4244H49.1478V98.3271H40.7358C39.5051 98.3894 38.4458 99.5422 38.5082 100.773C38.5705 102.003 39.7388 103.063 40.9539 103H62.015C63.2456 103.016 64.3828 101.894 64.3828 100.664C64.3828 99.4331 63.2456 98.3115 62.015 98.3271H53.8211V71.4244H72.5455C73.7762 71.4244 74.8822 70.3028 74.8822 69.0877V60.8938C74.8822 59.6632 73.7606 58.5572 72.5455 58.5572H53.8211V38.6644H100.632C102.019 38.6644 103.218 37.2157 102.938 35.8448C100.414 22.853 91.0986 14.3787 80.8017 9.30035C71.5018 4.7205 61.3763 2.80444 53.8055 2.46172V2.38384C53.8367 1.05973 52.5281 -0.139757 51.204 0.000442439H51.2508Z" fill="#0F352A"/>
</g>
</g>
<defs>
<clipPath id="clip0_57_36">
<rect width="103" height="103" fill="white"/>
</clipPath>
</defs>
</svg>
