<svg width="41" height="56" viewBox="0 0 41 56" fill="none" xmlns="http://www.w3.org/2000/svg">
<g clip-path="url(#clip0_83_423)">
<path d="M12.3295 8.68046V1.85665C12.8373 1.85665 13.2528 1.44113 13.2528 0.933271C13.2528 0.42541 12.8373 0.0098877 12.3295 0.0098877H5.86577C5.35791 0.0098877 4.94239 0.42541 4.94239 0.933271C4.94239 1.44113 5.35791 1.85665 5.86577 1.85665V8.68046C5.86577 11.2105 4.96085 13.6483 3.31723 15.5689C1.38736 17.822 0.32547 20.6937 0.32547 23.6577V54.4895C0.32547 54.9974 0.740992 55.4129 1.24885 55.4129H16.9464C17.4542 55.4129 17.8698 54.9974 17.8698 54.4895V23.6577C17.8698 20.6937 16.8079 17.822 14.878 15.5689C13.2344 13.6483 12.3295 11.2105 12.3295 8.68046ZM7.71254 9.24372H10.4827C10.5381 10.6842 10.852 12.1062 11.4061 13.4359L11.2122 13.639C10.021 14.8394 8.09112 14.8394 6.89073 13.6575C6.82609 13.5929 6.76145 13.5282 6.70605 13.4544C7.28778 12.1247 7.62943 10.6934 7.71254 9.24372ZM10.4827 1.85665V7.39696H7.71254V1.85665H10.4827ZM2.17224 28.6348H10.4827V49.8726H2.17224V28.6348ZM16.023 53.5661H2.17224V51.7194H11.4061C11.9139 51.7194 12.3295 51.3038 12.3295 50.796V27.7114C12.3295 27.2035 11.9139 26.788 11.4061 26.788H2.17224V23.6577C2.17224 21.1277 3.07715 18.6899 4.72078 16.7693C5.14553 16.2799 5.52412 15.7536 5.86577 15.1995C6.66911 15.8921 7.6756 16.2984 8.72826 16.3722H9.07914C10.2795 16.3722 11.4338 15.9383 12.3295 15.1441C12.6803 15.7166 13.0682 16.2614 13.5022 16.7693C15.1365 18.6899 16.0322 21.1369 16.023 23.6577V53.5661Z" fill="#BACBCA"/>
<path d="M37.2609 53.5661H31.7206V43.3535C36.596 42.901 40.2526 38.6996 40.031 33.8149L38.3966 19.2993C38.3412 18.8284 37.9442 18.4775 37.4733 18.4775H24.1211C23.6502 18.4775 23.2532 18.8284 23.1978 19.2993L21.5634 33.8703C21.3787 38.7366 25.0261 42.901 29.8738 43.3535V53.5661H24.3335C23.8257 53.5661 23.4101 53.9816 23.4101 54.4895C23.4101 54.9973 23.8257 55.4129 24.3335 55.4129H37.2609C37.7687 55.4129 38.1843 54.9973 38.1843 54.4895C38.1843 53.9816 37.7687 53.5661 37.2609 53.5661ZM24.943 20.3243H36.6515L37.8888 31.4049H23.7056L24.943 20.3243ZM23.4101 34.0181L23.5025 33.2517H38.1012L38.175 33.9627C38.3043 37.2315 36.2452 40.177 33.1334 41.1835C31.619 41.6822 29.9754 41.6822 28.461 41.1835C25.3677 40.1863 23.3086 37.2684 23.4101 34.0181Z" fill="#BACBCA"/>
</g>
<defs>
<clipPath id="clip0_83_423">
<rect width="39.7147" height="55.403" fill="white" transform="translate(0.32547 0.0098877)"/>
</clipPath>
</defs>
</svg>
