<svg width="60" height="60" viewBox="0 0 60 60" fill="none" xmlns="http://www.w3.org/2000/svg">
<path d="M59.1394 49.5212H53.8108V46.7245H56.5413C56.9964 46.7245 57.3687 46.3522 57.3687 45.8971V38.8144C57.3687 38.3593 56.9964 37.9869 56.5413 37.9869H30.916C32.3558 35.4881 33.117 32.6749 33.117 29.7541C33.117 24.9054 31.0319 20.3794 27.3664 17.2269C28.1607 15.5969 28.5827 13.7931 28.5827 11.9811C28.5827 5.36997 23.2045 0 16.6016 0C9.99881 0 4.61229 5.37824 4.61229 11.9811C4.61229 13.7931 5.03427 15.5969 5.8286 17.2269C2.16312 20.3794 0.0697403 24.9054 0.0697403 29.7541C0.0697403 38.5827 7.04491 45.7978 15.7659 46.2363V59.2434H17.4208V46.2446C19.9527 46.1205 22.4019 45.4255 24.6028 44.2009V45.8888C24.6028 46.3439 24.9751 46.7163 25.4302 46.7163H28.1607V49.5129H22.8321C22.377 49.5129 22.0047 49.8853 22.0047 50.3404V54.5271C22.0047 54.9822 22.377 55.3545 22.8321 55.3545H28.1607V59.2434H29.8156V55.3545H52.1477V59.2434H53.8025V55.3545H59.1311C59.5862 55.3545 59.9586 54.9822 59.9586 54.5271V50.3404C59.9586 49.8853 59.5862 49.5129 59.1311 49.5129L59.1394 49.5212ZM25.4302 37.9869C24.9751 37.9869 24.6028 38.3593 24.6028 38.8144V42.273C22.4432 43.6548 19.9858 44.4574 17.4208 44.5898V37.3829L21.4503 33.3534C21.773 33.0307 21.773 32.5094 21.4503 32.1867C21.1276 31.864 20.6064 31.864 20.2837 32.1867L17.4208 35.0496V22.026C17.4208 21.5709 17.0484 21.1986 16.5934 21.1986C16.1383 21.1986 15.7659 21.5709 15.7659 22.026V44.5815C7.95507 44.1512 1.72458 37.6725 1.72458 29.7541C1.72458 25.1785 3.78487 20.9255 7.38415 18.0874C7.70685 17.8392 7.78959 17.3841 7.59101 17.0366C6.72221 15.4976 6.26713 13.7518 6.26713 11.9893C6.26713 6.29668 10.9007 1.66312 16.5934 1.66312C22.286 1.66312 26.9196 6.29668 26.9196 11.9893C26.9196 13.7518 26.4645 15.4976 25.5957 17.0366C25.3971 17.3924 25.4799 17.8392 25.8026 18.0874C29.4019 20.9338 31.4621 25.1867 31.4621 29.7541C31.4621 32.708 30.5933 35.5378 28.9716 37.9787H25.4302V37.9869ZM26.2577 45.0697V39.6418H55.7139V45.0697H26.2577ZM52.1477 46.7245V49.5212H29.8156V46.7245H52.1477ZM58.3037 53.708H23.6595V51.1761H58.312V53.708H58.3037Z" fill="#BACBCA"/>
<path d="M46.9928 10.2271C43.9148 10.2271 41.416 12.7341 41.416 15.8039C41.416 18.8736 43.9148 21.3807 46.9928 21.3807C50.0708 21.3807 52.5696 18.8736 52.5696 15.8039C52.5696 12.7341 50.0708 10.2271 46.9928 10.2271ZM46.9928 19.7341C44.8332 19.7341 43.0708 17.9717 43.0708 15.8122C43.0708 13.6526 44.8332 11.8902 46.9928 11.8902C49.1524 11.8902 50.9148 13.6526 50.9148 15.8122C50.9148 17.9717 49.1524 19.7341 46.9928 19.7341Z" fill="#BACBCA"/>
<path d="M46.9928 8.11675C47.4478 8.11675 47.8202 7.74441 47.8202 7.28933V4.05411C47.8202 3.59902 47.4478 3.22668 46.9928 3.22668C46.5377 3.22668 46.1653 3.59902 46.1653 4.05411V7.28933C46.1653 7.74441 46.5377 8.11675 46.9928 8.11675Z" fill="#BACBCA"/>
<path d="M46.1653 24.3343V27.5695C46.1653 28.0246 46.5377 28.3969 46.9928 28.3969C47.4478 28.3969 47.8202 28.0246 47.8202 27.5695V24.3343C47.8202 23.8792 47.4478 23.5068 46.9928 23.5068C46.5377 23.5068 46.1653 23.8792 46.1653 24.3343Z" fill="#BACBCA"/>
<path d="M35.235 16.6393H38.4702C38.9253 16.6393 39.2976 16.267 39.2976 15.8119C39.2976 15.3568 38.9253 14.9845 38.4702 14.9845H35.235C34.7799 14.9845 34.4076 15.3568 34.4076 15.8119C34.4076 16.267 34.7799 16.6393 35.235 16.6393Z" fill="#BACBCA"/>
<path d="M54.6878 15.8119C54.6878 16.267 55.0601 16.6393 55.5152 16.6393H58.7504C59.2055 16.6393 59.5779 16.267 59.5779 15.8119C59.5779 15.3568 59.2055 14.9845 58.7504 14.9845H55.5152C55.0601 14.9845 54.6878 15.3568 54.6878 15.8119Z" fill="#BACBCA"/>
<path d="M53.0163 10.6075C53.2314 10.6075 53.4383 10.5248 53.6038 10.3675L55.8875 8.08386C56.2102 7.76116 56.2102 7.23989 55.8875 6.91719C55.5648 6.5945 55.0435 6.5945 54.7208 6.91719L52.4371 9.20088C52.1144 9.52357 52.1144 10.0448 52.4371 10.3675C52.6026 10.533 52.8095 10.6075 53.0246 10.6075H53.0163Z" fill="#BACBCA"/>
<path d="M40.3816 21.2482L38.098 23.5319C37.7753 23.8546 37.7753 24.3759 38.098 24.6986C38.2634 24.8641 38.4703 24.9385 38.6854 24.9385C38.9006 24.9385 39.1074 24.8558 39.2729 24.6986L41.5566 22.4149C41.8793 22.0922 41.8793 21.5709 41.5566 21.2482C41.2339 20.9256 40.7126 20.9256 40.3899 21.2482H40.3816Z" fill="#BACBCA"/>
<path d="M40.3816 10.3675C40.5471 10.533 40.754 10.6075 40.9691 10.6075C41.1842 10.6075 41.3911 10.5248 41.5566 10.3675C41.8793 10.0448 41.8793 9.52357 41.5566 9.20088L39.2729 6.91719C38.9502 6.5945 38.4289 6.5945 38.1062 6.91719C37.7835 7.23989 37.7835 7.76116 38.1062 8.08386L40.3899 10.3675H40.3816Z" fill="#BACBCA"/>
<path d="M52.4371 21.2482C52.1144 21.5709 52.1144 22.0922 52.4371 22.4149L54.7208 24.6986C54.878 24.8641 55.0931 24.9385 55.3083 24.9385C55.5234 24.9385 55.7303 24.8558 55.8957 24.6986C56.2184 24.3759 56.2184 23.8546 55.8957 23.5319L53.6121 21.2482C53.2894 20.9256 52.7681 20.9256 52.4454 21.2482H52.4371Z" fill="#BACBCA"/>
</svg>
