<svg width="25" height="15" viewBox="0 0 25 15" fill="none" xmlns="http://www.w3.org/2000/svg">
<path fill-rule="evenodd" clip-rule="evenodd" d="M0 1.36042C0 0.609081 0.60908 0 1.36042 0H23.6396C24.3909 0 25 0.609081 25 1.36042C25 2.11176 24.3909 2.72084 23.6396 2.72084H1.36042C0.609079 2.72084 0 2.11176 0 1.36042Z" fill="white"/>
<path fill-rule="evenodd" clip-rule="evenodd" d="M0 7.35734C0 6.606 0.60908 5.99692 1.36042 5.99692H23.6396C24.3909 5.99692 25 6.606 25 7.35734C25 8.10868 24.3909 8.71776 23.6396 8.71776H1.36042C0.609079 8.71776 0 8.10868 0 7.35734Z" fill="white"/>
<path fill-rule="evenodd" clip-rule="evenodd" d="M0 13.3543C0 12.6029 0.60908 11.9939 1.36042 11.9939H23.6396C24.3909 11.9939 25 12.6029 25 13.3543C25 14.1056 24.3909 14.7147 23.6396 14.7147H1.36042C0.609079 14.7147 0 14.1056 0 13.3543Z" fill="white"/>
</svg>
