<svg width="62" height="62" viewBox="0 0 62 62" fill="none" xmlns="http://www.w3.org/2000/svg">
<g clip-path="url(#clip0_83_362)">
<path d="M30.7881 61.1268C47.7919 61.1268 61.5762 47.4431 61.5762 30.5634C61.5762 13.6837 47.7919 0 30.7881 0C13.7843 0 0 13.6837 0 30.5634C0 47.4431 13.7843 61.1268 30.7881 61.1268Z" fill="#1B4136"/>
<path d="M38.2723 31.4272C37.5426 30.9907 36.5883 30.5077 35.7277 30.8607C35.0634 31.13 34.6425 32.1608 34.2121 32.6809C33.9876 32.9502 33.7256 32.9967 33.3889 32.8574C30.9004 31.8729 29.0012 30.2291 27.626 27.9538C27.3921 27.6009 27.4389 27.3223 27.7196 26.9973C28.1312 26.5144 28.6551 25.9664 28.7674 25.3071C28.8796 24.657 28.5709 23.8954 28.2996 23.3104C27.9535 22.5674 27.5605 21.5087 26.8121 21.0908C26.1198 20.7007 25.2124 20.9236 24.6043 21.4158C23.5471 22.2702 23.0326 23.6168 23.0513 24.9449C23.0513 25.3256 23.0981 25.6971 23.1916 26.0686C23.4068 26.9416 23.8091 27.7681 24.2768 28.5389C24.623 29.124 24.9972 29.6998 25.4088 30.2477C26.7373 32.0401 28.3932 33.6003 30.311 34.7612C31.2652 35.3463 32.2943 35.857 33.3701 36.2007C34.5676 36.5907 35.6341 36.9993 36.9251 36.7579C38.2816 36.5071 39.6101 35.6713 40.1527 34.3804C40.3117 33.9996 40.3959 33.5724 40.3024 33.1638C40.1153 32.328 38.9739 31.8265 38.291 31.4272H38.2723Z" fill="white"/>
<path d="M31.6488 11.3022C21.8352 11.3022 13.8551 19.224 13.8551 28.966C13.8551 31.9471 14.6223 34.8818 16.091 37.5007L13.509 47.0663L23.201 44.4938C25.8018 45.8961 28.7113 46.6391 31.6582 46.6391C41.4718 46.6391 49.4519 38.7173 49.4519 28.9753C49.4519 19.2333 41.4718 11.3115 31.6582 11.3115L31.6488 11.3022ZM31.6488 43.2958C29.0668 43.2958 26.5221 42.5992 24.2769 41.2712L23.6688 40.909L18.2615 42.3485L19.7022 37.0085L19.328 36.3956C17.9434 34.1481 17.2137 31.5756 17.2137 28.966C17.2137 21.0628 23.6875 14.6362 31.6488 14.6362C39.6101 14.6362 46.084 21.0628 46.084 28.966C46.084 36.8692 39.6101 43.2958 31.6488 43.2958Z" fill="white"/>
</g>
<defs>
<clipPath id="clip0_83_362">
<rect width="61.5669" height="61.1175" fill="white"/>
</clipPath>
</defs>
</svg>
