<svg width="139" height="79" viewBox="0 0 139 79" fill="none" xmlns="http://www.w3.org/2000/svg">
<path d="M112.177 25.1152C108.842 25.1152 105.667 25.7558 102.724 26.8769L99.3023 20.0921C99.0413 8.76484 92.9518 0 85.1949 0C83.6001 0 82.2952 1.31036 82.2952 2.91191C82.2952 4.51345 83.6001 5.82381 85.1949 5.82381C89.4286 5.82381 93.1548 12.2009 93.5028 19.7136L67.9704 46.8526L52.0797 10.3081H58.9086C60.5035 10.3081 61.8084 8.99779 61.8084 7.39624C61.8084 5.79469 60.5035 4.48433 58.9086 4.48433H36.3775C34.7826 4.48433 33.4777 5.79469 33.4777 7.39624C33.4777 8.99779 34.7826 10.3081 36.3775 10.3081H45.7437L50.0499 20.2232L41.916 29.8034C37.6099 26.8478 32.4193 25.1152 26.8228 25.1152C12.034 25.1152 0 37.1996 0 52.0503C0 66.901 12.034 78.9854 26.8228 78.9854C40.6256 78.9854 52.0362 68.4443 53.4861 54.9622H67.057C67.2019 54.9622 67.3324 54.9331 67.4774 54.9185C67.5354 54.9185 67.5934 54.9185 67.6369 54.904C67.6369 54.904 67.6659 54.904 67.6804 54.904C67.8399 54.8749 67.9994 54.8166 68.1589 54.7584C68.1734 54.7584 68.1879 54.7584 68.2024 54.7438C68.2603 54.7147 68.3183 54.6856 68.3763 54.6565C68.4778 54.5982 68.5793 54.5546 68.6808 54.4818C68.6808 54.4818 68.6953 54.4818 68.7098 54.4672C68.7823 54.409 68.8548 54.3507 68.9273 54.2925C68.9998 54.2342 69.0723 54.176 69.1303 54.1178C69.1303 54.1178 69.1593 54.0886 69.1738 54.0741L95.7066 25.8723L97.5479 29.5267C90.2115 34.3459 85.3544 42.6449 85.3544 52.0649C85.3544 66.9156 97.3884 79 112.177 79C126.966 79 139 66.9156 139 52.0649C139 37.2142 126.966 25.1297 112.177 25.1297V25.1152ZM62.6203 49.1384H53.4716C52.8336 43.1544 50.2093 37.7674 46.3092 33.6034L52.6306 26.1635L62.6203 49.1384ZM42.525 38.0586C45.2218 41.1016 47.0341 44.9161 47.6286 49.1384H33.1153L42.525 38.0586ZM26.8228 73.1616C15.2382 73.1616 5.79952 63.6979 5.79952 52.0503C5.79952 40.4027 15.2382 30.939 26.8228 30.939C30.9839 30.939 34.8551 32.1766 38.1173 34.2731L24.619 50.1576C24.619 50.1576 24.561 50.2449 24.532 50.2886C24.474 50.376 24.416 50.4633 24.358 50.5507C24.3145 50.6235 24.271 50.7108 24.2275 50.7836C24.184 50.871 24.1405 50.9584 24.1115 51.0457C24.0825 51.1331 24.0535 51.2204 24.0245 51.3223C23.9955 51.4097 23.981 51.4971 23.9665 51.5844C23.952 51.6863 23.9375 51.7882 23.9375 51.8902C23.9375 51.9338 23.923 51.9921 23.923 52.0358C23.923 52.0794 23.923 52.1086 23.923 52.1522C23.923 52.2541 23.9375 52.3561 23.952 52.458C23.952 52.5453 23.981 52.6327 23.9955 52.7201C24.0245 52.8074 24.0535 52.9093 24.0825 52.9967C24.1115 53.084 24.1405 53.1714 24.184 53.2442C24.2275 53.3316 24.271 53.4189 24.3145 53.4917C24.358 53.5791 24.4015 53.6519 24.4595 53.7247C24.5175 53.7975 24.5755 53.8703 24.6335 53.9431C24.706 54.0159 24.7639 54.0887 24.8364 54.1614C24.8654 54.1906 24.8799 54.2197 24.9089 54.2488C24.9524 54.2925 25.0104 54.3216 25.0539 54.3507C25.1264 54.3944 25.1844 54.4526 25.2569 54.4963C25.3439 54.5546 25.4309 54.5982 25.5324 54.6419C25.6049 54.671 25.6629 54.7147 25.7354 54.7293C25.8514 54.7729 25.9529 54.8021 26.0688 54.8312C26.1268 54.8457 26.1848 54.8749 26.2573 54.8749C26.4313 54.904 26.6198 54.9331 26.8083 54.9331H47.6141C46.1932 65.1976 37.4214 73.1325 26.8228 73.1325V73.1616ZM112.177 73.1616C100.578 73.1616 91.154 63.6979 91.154 52.0503C91.154 44.887 94.7352 38.5536 100.187 34.739L109.596 53.3752C110.104 54.3798 111.133 54.9768 112.192 54.9768C112.627 54.9768 113.076 54.8749 113.497 54.6565C114.932 53.9285 115.497 52.1813 114.773 50.74L105.363 32.1038C107.509 31.3612 109.799 30.939 112.177 30.939C123.776 30.939 133.2 40.4027 133.2 52.0503C133.2 63.6979 123.776 73.1616 112.177 73.1616Z" fill="#1B4136"/>
</svg>
