<svg width="24" height="22" viewBox="0 0 24 22" fill="none" xmlns="http://www.w3.org/2000/svg">
<g clip-path="url(#clip0_82_72)">
<path d="M0.89812 7.23155H5.74578V21.7832H0.89812V7.23155ZM3.31857 0C4.86685 0 6.1244 1.17576 6.1244 2.62333C6.1244 4.07091 4.86685 5.24667 3.31857 5.24667C1.77029 5.24667 0.512741 4.07091 0.512741 2.62333C0.512741 1.17576 1.77029 0 3.31857 0ZM8.77473 21.7895H13.6089V14.5895C13.6089 12.6931 13.9943 10.8536 16.5094 10.8536C19.0245 10.8536 19.0245 13.0218 19.0245 14.716V21.7895H23.8586V13.8057C23.8586 9.88649 22.9526 6.87124 18.0576 6.87124C15.698 6.87124 14.1227 8.0786 13.4736 9.22276H13.4128V7.23155H8.76797V21.7832L8.77473 21.7895Z" fill="#313131"/>
</g>
<defs>
<clipPath id="clip0_82_72">
<rect width="23" height="21.7895" fill="white" transform="translate(0.512741)"/>
</clipPath>
</defs>
</svg>
