<svg width="19" height="22" viewBox="0 0 19 22" fill="none" xmlns="http://www.w3.org/2000/svg">
<path d="M0.4 19.8C0.4 19.4 0.52 19.08 0.8 18.8L7.56 10.48L1.2 2.68C0.88 2.32 0.72 1.96 0.72 1.56C0.72 0.679999 1.36 0.119999 2.16 0.119999C2.76 0.119999 3.16 0.399998 3.52 0.84L9.48 8.4L15.4 0.879999C15.76 0.44 16.16 0.119999 16.72 0.119999C17.52 0.119999 18.12 0.719999 18.12 1.52C18.12 1.92 17.96 2.24 17.72 2.52L11.28 10.4L18 18.64C18.28 19 18.44 19.36 18.44 19.76C18.44 20.6 17.8 21.2 17 21.2C16.4 21.2 16 20.92 15.64 20.48L9.36 12.52L3.12 20.44C2.76 20.88 2.36 21.2 1.8 21.2C1 21.2 0.4 20.56 0.4 19.8Z" fill="#EFEDEC"/>
</svg>
