<svg width="69" height="109" viewBox="0 0 69 109" fill="none" xmlns="http://www.w3.org/2000/svg">
<g clip-path="url(#clip0_57_11)">
<mask id="mask0_57_11" style="mask-type:luminance" maskUnits="userSpaceOnUse" x="0" y="0" width="69" height="109">
<path d="M69 0H0V109H69V0Z" fill="white"/>
</mask>
<g mask="url(#mask0_57_11)">
<path d="M61.0406 107.028C60.1249 107.028 59.3924 106.107 59.3783 104.984V80.3829H9.70616V104.984C9.70616 106.121 8.95953 107.028 8.04385 107.028C7.12817 107.028 6.39563 106.107 6.39563 104.984V78.3244C6.39563 77.1872 7.12817 76.2803 8.04385 76.2803H61.0406C61.9563 76.2803 62.6888 77.2016 62.7029 78.3244V104.984C62.7029 106.121 61.9563 107.028 61.0547 107.028H61.0406Z" fill="#0F352A"/>
<path d="M61.0406 107.028C60.1249 107.028 59.3924 106.107 59.3783 104.984V80.3829H9.70616V104.984C9.70616 106.121 8.95953 107.028 8.04385 107.028C7.12817 107.028 6.39563 106.107 6.39563 104.984V78.3244C6.39563 77.1872 7.12817 76.2803 8.04385 76.2803H61.0406C61.9563 76.2803 62.6888 77.2016 62.7029 78.3244V104.984C62.7029 106.121 61.9563 107.028 61.0547 107.028H61.0406Z" stroke="#0F352A" stroke-width="0.55" stroke-miterlimit="10"/>
<path d="M8.41008 80.3683C7.29717 80.3683 6.40967 79.447 6.40967 78.3242V43.4591C6.40967 42.3219 7.31126 41.415 8.41008 41.415C9.50889 41.415 10.4105 42.3363 10.4105 43.4591V78.3242C10.4105 79.4614 9.50889 80.3683 8.41008 80.3683Z" fill="#0F352A"/>
<path d="M8.41008 80.3683C7.29717 80.3683 6.40967 79.447 6.40967 78.3242V43.4591C6.40967 42.3219 7.31126 41.415 8.41008 41.415C9.50889 41.415 10.4105 42.3363 10.4105 43.4591V78.3242C10.4105 79.4614 9.50889 80.3683 8.41008 80.3683Z" stroke="#0F352A" stroke-width="0.55" stroke-miterlimit="10"/>
<path d="M60.5898 80.3683C59.4769 80.3683 58.5894 79.447 58.5894 78.3242V43.4591C58.5894 42.3219 59.491 41.415 60.5898 41.415C61.6886 41.415 62.5902 42.3363 62.5902 43.4591V78.3242C62.5902 79.4614 61.6886 80.3683 60.5898 80.3683Z" fill="#0F352A"/>
<path d="M60.5898 80.3683C59.4769 80.3683 58.5894 79.447 58.5894 78.3242V43.4591C58.5894 42.3219 59.491 41.415 60.5898 41.415C61.6886 41.415 62.5902 42.3363 62.5902 43.4591V78.3242C62.5902 79.4614 61.6886 80.3683 60.5898 80.3683Z" stroke="#0F352A" stroke-width="0.55" stroke-miterlimit="10"/>
<path d="M5.35317 41.4011H63.6468L53.208 14.7413H15.7919L5.35317 41.4011ZM66.6051 45.5037H2.39482C1.28191 45.5037 0.394409 44.5824 0.394409 43.4596C0.394409 43.2005 0.436671 42.9414 0.535283 42.6966L12.5659 11.9342C12.8758 11.1569 13.6084 10.6387 14.4254 10.6387H54.5604C55.3775 10.6387 56.1241 11.1425 56.4199 11.9342L68.4646 42.6966C68.8732 43.7475 68.3801 44.9423 67.3517 45.3597C67.1123 45.4605 66.8587 45.5037 66.6051 45.5037Z" fill="#0F352A"/>
<path d="M5.35317 41.4011H63.6468L53.208 14.7413H15.7919L5.35317 41.4011ZM66.6051 45.5037H2.39482C1.28191 45.5037 0.394409 44.5824 0.394409 43.4596C0.394409 43.2005 0.436671 42.9414 0.535283 42.6966L12.5659 11.9342C12.8758 11.1569 13.6084 10.6387 14.4254 10.6387H54.5604C55.3775 10.6387 56.1241 11.1425 56.4199 11.9342L68.4646 42.6966C68.8732 43.7475 68.3801 44.9423 67.3517 45.3597C67.1123 45.4605 66.8587 45.5037 66.6051 45.5037Z" stroke="#0F352A" stroke-width="0.55" stroke-miterlimit="10"/>
<path d="M22.4553 14.7553C21.3424 14.7553 20.4549 13.834 20.4408 12.7112V5.16813C20.4408 4.03092 21.3424 3.12402 22.4553 3.12402C23.5682 3.12402 24.4557 4.04531 24.4557 5.16813V12.6968C24.4557 13.834 23.5541 14.7409 22.4553 14.7409V14.7553Z" fill="#0F352A"/>
<path d="M22.4553 14.7553C21.3424 14.7553 20.4549 13.834 20.4408 12.7112V5.16813C20.4408 4.03092 21.3424 3.12402 22.4553 3.12402C23.5682 3.12402 24.4557 4.04531 24.4557 5.16813V12.6968C24.4557 13.834 23.5541 14.7409 22.4553 14.7409V14.7553Z" stroke="#0F352A" stroke-width="0.55" stroke-miterlimit="10"/>
<path d="M46.5447 14.7553C45.4318 14.7553 44.5443 13.834 44.5443 12.7112V5.16813C44.5443 4.03092 45.4459 3.12402 46.5447 3.12402C47.6435 3.12402 48.5451 4.04531 48.5451 5.16813V12.6968C48.5451 13.834 47.6435 14.7409 46.5447 14.7409V14.7553Z" fill="#0F352A"/>
<path d="M46.5447 14.7553C45.4318 14.7553 44.5443 13.834 44.5443 12.7112V5.16813C44.5443 4.03092 45.4459 3.12402 46.5447 3.12402C47.6435 3.12402 48.5451 4.04531 48.5451 5.16813V12.6968C48.5451 13.834 47.6435 14.7409 46.5447 14.7409V14.7553Z" stroke="#0F352A" stroke-width="0.55" stroke-miterlimit="10"/>
<path d="M52.56 8.59415C52.4191 8.59415 52.2641 8.57976 52.1233 8.55097L34.4999 4.54912L16.8766 8.55097C15.7919 8.79569 14.7213 8.09032 14.4818 6.9819C14.2423 5.88787 14.9185 4.79384 16.0032 4.54912L34.0632 0.446506C34.345 0.388925 34.6408 0.388925 34.9367 0.446506L52.9967 4.54912C54.0814 4.79384 54.7576 5.88787 54.5181 6.99629C54.3068 7.93198 53.5038 8.59416 52.56 8.60855" fill="#0F352A"/>
<path d="M52.56 8.59415C52.4191 8.59415 52.2641 8.57976 52.1233 8.55097L34.4999 4.54912L16.8766 8.55097C15.7919 8.79569 14.7213 8.09032 14.4818 6.9819C14.2423 5.88787 14.9185 4.79384 16.0032 4.54912L34.0632 0.446506C34.345 0.388925 34.6408 0.388925 34.9367 0.446506L52.9967 4.54912C54.0814 4.79384 54.7576 5.88787 54.5181 6.99629C54.3068 7.93198 53.5038 8.59415 52.56 8.60855V8.59415Z" stroke="#0F352A" stroke-width="0.55" stroke-miterlimit="10"/>
<path d="M54.5745 74.222H14.4395C13.3266 74.222 12.4391 73.3007 12.4391 72.1779C12.4391 71.0551 13.3407 70.1338 14.4395 70.1338H54.5745C55.6874 70.1338 56.5749 71.0551 56.5749 72.1779C56.5749 73.3007 55.6733 74.222 54.5745 74.222Z" fill="#0F352A"/>
<path d="M54.5745 74.222H14.4395C13.3266 74.222 12.4391 73.3007 12.4391 72.1779C12.4391 71.0551 13.3407 70.1338 14.4395 70.1338H54.5745C55.6874 70.1338 56.5749 71.0551 56.5749 72.1779C56.5749 73.3007 55.6733 74.222 54.5745 74.222Z" stroke="#0F352A" stroke-width="0.55" stroke-miterlimit="10"/>
<path d="M40.5153 39.3568H26.4702C25.3573 39.3568 24.4557 38.4355 24.4557 37.3127C24.4557 36.1898 25.3573 35.2686 26.4702 35.2686H40.5153C41.6282 35.2686 42.5157 36.1898 42.5157 37.3127C42.5157 38.4355 41.6141 39.3568 40.5153 39.3568Z" fill="#0F352A"/>
<path d="M40.5153 39.3568H26.4702C25.3573 39.3568 24.4557 38.4355 24.4557 37.3127C24.4557 36.1898 25.3573 35.2686 26.4702 35.2686H40.5153C41.6282 35.2686 42.5157 36.1898 42.5157 37.3127C42.5157 38.4355 41.6141 39.3568 40.5153 39.3568Z" stroke="#0F352A" stroke-width="0.55" stroke-miterlimit="10"/>
<path d="M64.9992 108.598H3.18377C2.32444 108.598 1.63416 107.892 1.63416 107.014C1.63416 106.136 2.32444 105.431 3.18377 105.431H64.9992C65.8585 105.431 66.5488 106.136 66.5488 107.014C66.5488 107.892 65.8585 108.598 64.9992 108.598Z" fill="#0F352A"/>
<path d="M64.9992 108.598H3.18377C2.32444 108.598 1.63416 107.892 1.63416 107.014C1.63416 106.136 2.32444 105.431 3.18377 105.431H64.9992C65.8585 105.431 66.5488 106.136 66.5488 107.014C66.5488 107.892 65.8585 108.598 64.9992 108.598Z" stroke="#0F352A" stroke-width="0.55" stroke-miterlimit="10"/>
</g>
</g>
<defs>
<clipPath id="clip0_57_11">
<rect width="69" height="109" fill="white"/>
</clipPath>
</defs>
</svg>
