<svg width="24" height="21" viewBox="0 0 24 21" fill="none" xmlns="http://www.w3.org/2000/svg">
<path d="M22.311 0H1.32487C1.07523 0 0.835815 0.0991684 0.659294 0.275689C0.482774 0.452209 0.383606 0.691622 0.383606 0.941259V16.9493C0.383606 17.1989 0.482774 17.4383 0.659294 17.6149C0.835815 17.7914 1.07523 17.8906 1.32487 17.8906H4.04259C4.29222 17.8906 4.53164 17.7914 4.70816 17.6149C4.88468 17.4383 4.98385 17.1989 4.98385 16.9493C4.98385 16.6997 4.88468 16.4602 4.70816 16.2837C4.53164 16.1072 4.29222 16.008 4.04259 16.008H2.26612V1.88252H21.3697V16.0014H19.8451C19.5955 16.0014 19.3561 16.1006 19.1796 16.2771C19.003 16.4536 18.9039 16.693 18.9039 16.9427C18.9039 17.1923 19.003 17.4317 19.1796 17.6082C19.3561 17.7848 19.5955 17.8839 19.8451 17.8839H22.311C22.5606 17.8839 22.8 17.7848 22.9765 17.6082C23.1531 17.4317 23.2522 17.1923 23.2522 16.9427V0.941259C23.2522 0.691622 23.1531 0.452209 22.9765 0.275689C22.8 0.0991684 22.5606 0 22.311 0Z" fill="#1B4136"/>
<path d="M5.97154 15.5375L11.1551 20.721C11.2406 20.8108 11.3447 20.8809 11.46 20.9265C11.6896 21.0194 11.9463 21.0194 12.1759 20.9265C12.2912 20.8809 12.3953 20.8108 12.4808 20.721L17.6644 15.5375C17.8392 15.3612 17.9374 15.1229 17.9374 14.8746C17.9374 14.6263 17.8392 14.388 17.6644 14.2118C17.578 14.1236 17.4748 14.0535 17.361 14.0057C17.2472 13.9579 17.125 13.9332 17.0015 13.9332C16.878 13.9332 16.7558 13.9579 16.642 14.0057C16.5282 14.0535 16.425 14.1236 16.3386 14.2118L12.7592 17.7912V5.19688C12.7592 4.94724 12.66 4.70782 12.4835 4.5313C12.307 4.35478 12.0676 4.25562 11.8179 4.25562C11.5683 4.25562 11.3289 4.35478 11.1524 4.5313C10.9759 4.70782 10.8767 4.94724 10.8767 5.19688V17.7912L7.29725 14.2118C7.21106 14.1233 7.10797 14.0531 6.9941 14.0052C6.88023 13.9574 6.7579 13.933 6.63439 13.9334C6.44902 13.9344 6.26808 13.9902 6.11428 14.0937C5.96049 14.1972 5.84067 14.3438 5.76988 14.5151C5.69908 14.6865 5.68045 14.8749 5.71633 15.0567C5.7522 15.2386 5.84098 15.4059 5.97154 15.5375Z" fill="#1B4136"/>
</svg>
