<svg width="24" height="23" viewBox="0 0 24 23" fill="none" xmlns="http://www.w3.org/2000/svg">
<g clip-path="url(#clip0_82_70)">
<path d="M18.9648 5.35616C18.9648 6.09331 18.3703 6.68778 17.6332 6.68778C16.896 6.68778 16.3016 6.08736 16.3016 5.35616C16.3016 4.62497 16.902 4.02455 17.6332 4.02455C18.3644 4.02455 18.9648 4.62497 18.9648 5.35616ZM17.3062 11.3365C17.3062 14.4278 14.7916 16.9424 11.7004 16.9424C8.60914 16.9424 6.09454 14.4278 6.09454 11.3365C6.09454 8.24528 8.60914 5.73068 11.7004 5.73068C14.7916 5.73068 17.3062 8.24528 17.3062 11.3365ZM15.291 11.3365C15.291 9.35694 13.68 7.74593 11.7004 7.74593C9.7208 7.74593 8.10979 9.35694 8.10979 11.3365C8.10979 13.3161 9.7208 14.9271 11.7004 14.9271C13.68 14.9271 15.291 13.3161 15.291 11.3365ZM23.0428 6.83639C23.0428 3.06151 19.9813 0 16.2065 0H6.87924C3.10436 0 0.0428467 3.06151 0.0428467 6.83639V16.1636C0.0428467 19.9385 3.10436 23 6.87924 23H16.2065C19.9813 23 23.0428 19.9385 23.0428 16.1636V6.83639ZM20.7958 16.0625C20.7958 18.6544 18.6913 20.7589 16.0995 20.7589H6.97435C4.38247 20.7589 2.27805 18.6544 2.27805 16.0625V6.93745C2.27805 4.34557 4.38247 2.24115 6.97435 2.24115H16.0995C18.6913 2.24115 20.7958 4.34557 20.7958 6.93745V16.0625Z" fill="#313131"/>
</g>
<defs>
<clipPath id="clip0_82_70">
<rect width="23" height="23" fill="white" transform="translate(0.0428162)"/>
</clipPath>
</defs>
</svg>
