<svg width="50" height="55" viewBox="0 0 50 55" fill="none" xmlns="http://www.w3.org/2000/svg">
<path d="M44.6555 14.5836V14.8268H44.8986H46.8684C48.3109 14.8522 49.452 15.9998 49.452 17.4082V23.2173V23.2706C49.452 24.6788 48.2848 25.8254 46.8705 25.8254H44.8986H44.6555V26.0685V47.1177C44.63 48.5601 43.4824 49.7013 42.074 49.7013H40.1021H39.859V49.9444V51.9142C39.8335 53.3566 38.6859 54.4978 37.2775 54.4978H33.8687C32.4544 54.4722 31.3119 53.3261 31.3119 51.9163V49.9444V49.7013H31.0687H18.6245H18.3813V49.9444V51.9163C18.3813 53.3557 17.2363 54.4978 15.8265 54.4978H12.4157C11.0074 54.4978 9.8609 53.3306 9.8609 51.9163V49.9444V49.7013H9.61775H7.64788C6.23355 49.6757 5.09105 48.5296 5.09105 47.1198V26.0685V25.8254H4.8479H2.87814C1.46375 25.7999 0.321204 24.6537 0.321204 23.2439V17.4348C0.321204 15.9954 1.46626 14.8534 2.876 14.8534H4.8479H5.09105V14.6102V4.96396C5.09105 2.51347 7.08732 0.517204 9.53781 0.517204H40.2087C42.6592 0.517204 44.6555 2.51347 44.6555 4.96396V14.5836ZM4.8479 24.3931H5.09105V24.1499V16.4755V16.2324H4.8479H2.876C2.23542 16.2324 1.7002 16.7676 1.7002 17.4082V23.2173C1.7002 23.889 2.23998 24.3931 2.876 24.3931H4.8479ZM31.3652 2.13935V1.8962H31.122H22.8614H18.6778H18.4346V2.13935V5.0439V5.28705H18.6778H31.122H31.3652V5.0439V2.13935ZM17.029 2.166V1.92284H16.7858H9.53781C7.86687 1.92284 6.51111 3.26975 6.49681 4.93731H6.49669V4.96396V9.81375V10.0569H6.73985H43.0333H43.2765V9.81375V4.93731C43.2765 3.25748 41.9152 1.8962 40.2354 1.8962H32.9873H32.7442V2.13935V6.0032C32.7442 6.3752 32.4267 6.69269 32.0547 6.69269H17.7185C17.3465 6.69269 17.029 6.3752 17.029 6.0032V2.166ZM11.5097 49.648H11.2665V49.8911V51.863C11.2665 52.5036 11.8018 53.0388 12.4424 53.0388H15.8798C16.5204 53.0388 17.0556 52.5036 17.0556 51.863V49.8911V49.648H16.8125H11.5097ZM38.5333 51.863V51.6199H38.5066V49.8911V49.648H38.2635H32.9873H32.7442V49.8911V51.863C32.7442 52.5036 33.2794 53.0388 33.92 53.0388H37.3575C37.9981 53.0388 38.5333 52.5036 38.5333 51.863ZM6.73985 30.5686H6.49669V30.8117V47.0932C6.49669 47.7338 7.03191 48.269 7.6725 48.269H42.1273C42.7679 48.269 43.3031 47.7338 43.3031 47.0932V36.0879V30.8117V30.5686H43.06H6.73985ZM9.69553 28.8959L9.66921 29.1629H9.93751H16.8391H17.107L17.0812 28.8964C16.9101 27.1285 15.5127 25.7311 13.7448 25.56C11.6907 25.3604 9.89502 26.8726 9.69553 28.8959ZM43.06 29.1629H43.3031V28.9198V11.6791V11.4359H43.06H6.73985H6.49669V11.6791V28.9198V29.1629H6.73985H8.07221H8.31536V28.9198C8.31536 26.1229 10.6047 23.8335 13.4017 23.8335C16.1986 23.8335 18.4879 26.1229 18.4879 28.9198V29.1629H18.7311H43.06ZM44.6821 24.1499V24.3931H44.9253H46.8972C47.5378 24.3931 48.073 23.8579 48.073 23.2173V17.4082C48.073 16.7676 47.5378 16.2324 46.8972 16.2324H44.9253H44.6821V16.4755V24.1499Z" fill="#BACBCA" stroke="#BACBCA" stroke-width="0.486311"/>
</svg>
